<svg xmlns="http://www.w3.org/2000/svg" viewBox="0 0 800 600">
  <path d="M332.964,92.094L361.017,92.525L399.271,105.867L414.755,113.596L451.37,93.279L468.311,105.544L484.706,76.336L514.945,77.633L522.778,68.329L528.061,42.376L549.92,20L577.245,34.638L571.78,54.339L587.081,57.379L582.345,110.914L602.383,131.691L620.053,118.314L642.459,112.094L673.973,83.574L708.948,88.321L761.047,88.429L770.155,106.619L740.645,113.811L714.96,125.489L656.85,132.76L602.565,145.991L572.873,173.405L584.895,199.825L590.725,230.716L565.404,256.627L567.59,280.229L553.746,302.277L505.472,300.417L525.51,340.561L493.267,355.919L471.772,392.193L474.505,428.124L454.831,444.845L436.068,439.311L397.45,447.058L391.803,463.721L354.095,463.621L326.042,497.001L324.22,546.903L258.459,571.153L223.12,566.035L212.919,578.723L182.68,571.35L132.038,580L47.332,550.359L93.238,497.2L89.048,459.209L50.794,449.168L46.786,411.352L30.209,363.377L51.887,330.297L29.845,321.351L43.689,276.908L64.274,199.93L116.008,223.483L154.08,215.189L164.645,186.95L204.539,177.536L233.139,158.442L243.158,108.015L285.784,95.756L293.799,72.983L317.662,90.046Z" fill="#000000"/>
</svg>