<svg xmlns="http://www.w3.org/2000/svg" viewBox="0 0 800 600">
  <path d="M118.929,333.094L119.516,327.183L119.419,325.106L119.223,288.555L163.149,265.579L190.249,260.815L212.457,252.382L222.925,236.674L254.622,224.157L255.796,200.587L271.547,197.831L283.874,185.965L319.387,180.585L324.376,168.047L317.234,161.21L307.842,126.834L306.179,106.863L296.005,85.622L322.126,67.386L351.475,61.601L368.596,47.712L394.815,37.419L440.894,31.396L485.798,28.638L499.495,33.635L525.127,20.288L554.183,20L565.238,27.89L583.826,25.877L578.249,43.257L582.554,75.249L576.195,102.617L559.466,121.008L561.814,145.616L584.022,164.932L584.315,172.741L601.044,185.693L612.588,242.754L621.393,270.441L622.861,284.877L618.067,310.117L620.121,324.171L616.599,340.908L618.947,360.03L608.186,372.703L624.23,394.71L625.307,407.565L634.992,424.267L647.71,418.759L669.135,432.64L681.071,451.238L587.935,507.308L509.278,564.353L470.928,577.177L440.796,580L440.502,561.667L427.882,556.975L410.957,548.703L404.5,535.112L312.832,471.295L221.164,406.449Z" fill="#000000"/>
</svg>