<svg xmlns="http://www.w3.org/2000/svg" viewBox="0 0 800 600">
  <path d="M202.399,34L187.632,42.554L181.053,53.045L179.737,70.861L169.356,75.144L158.537,44.486L174.912,26.895L187.194,20ZM175.058,87.791L191.872,82.331L203.569,83.091L217.897,78.184L337.788,78.737L347.731,109.164L359.427,133.676L368.785,146.916L384.283,168.355L411.185,165.092L424.49,159.332L447.006,165.092L453.147,154.822L463.235,130.974L488.383,129.381L490.576,122.247L511.338,122.109L507.829,136.864L557.101,136.518L557.832,162.316L566.02,178.147L560.025,202.897L563.095,228.176L576.693,243.449L574.5,292.596L584.442,288.814L602.133,289.864L627.281,283.633L645.849,286.083L650.089,298.972L645.411,319.033L652.575,338.496L646.58,354.119L650.089,368.426L565.435,367.932L563.534,501.428L591.021,536.054L617.485,562.608L542.919,580L444.52,574.006L416.448,553.531L251.818,555.403L245.677,558.356L221.406,539.144L195.089,537.922L170.818,545.111L151.226,553.243L147.425,526.504L152.981,489.347L167.017,450.785L169.21,432.737L182.369,395.047L192.019,377.88L215.266,350.669L228.424,332.168L232.665,301.425L230.471,277.965L218.336,263.211L207.517,238.217L197.574,213.477L199.768,204.985L212.195,188.64L199.914,149.065L191.58,121.624L171.257,95.743Z" fill="#000000"/>
</svg>