<svg xmlns="http://www.w3.org/2000/svg" viewBox="0 0 800 600">
  <path d="M297.274,296.046L298.345,296.046L301.492,293.874L304.676,296.046L307.275,300.526L308.187,307.121L308.438,312.01L308.522,318.068L305.254,321.966L301.818,325.203L297.851,328.28L293.428,330.909L288.427,330.11L285.653,325.706L286.025,320.484L290.532,317.123L292.349,313.155L293.671,308.221L294.629,304.101L295.906,300.311ZM260.056,320.906L264.806,321.392L269.358,322.628L270.932,317.533L272.049,313.333L274.238,318.254L273.615,324.635L272.999,330.565L268.576,328.729L263.856,329.519L261.211,325.137L261.211,324.635ZM243.959,241.076L245.403,240.299L247.843,240.554L248.466,237.261L248.587,234.917L248.542,229.976L249.743,227.169L251.688,226.244L252.806,228.444L253.3,230.682L254.212,233.451L254.911,236.142L255.488,239.033L255.739,241.98L255.367,244.596L254.789,247.137L252.312,248.086L249.948,249.457L247.181,249.327L248.215,246.602L245.73,247.546L243.374,248.498L241.763,246.462L241.641,243.672ZM183.972,245.249L185.294,244.059L187.977,244.985L191.04,245.514L193.358,246.451L195.668,245.652L196.907,249.576L195.258,249.03L192.697,249.303L190.09,249.03L187.232,249.445L185.081,248.074ZM141.13,257.834L141.586,255.357L144.109,256.659L146.838,257.834L149.361,256.52L148.16,259.162L146.176,261.115L143.243,260.504ZM131.288,256.37L132.823,254.785L134.928,256.52L138.158,259.457L136.912,259.162L134.184,258.42ZM54.383,301.766L55.667,297.854L59.596,299.492L61.702,302.819L63.313,306.688L63.89,311.795L59.84,313.393L57.073,309.33L55.834,305.378L55.751,304.729ZM97.661,403.077L97.886,402.813L98.342,391.835L90.027,390.97L83.202,385.867L81.424,377.834L75.762,373.602L76.134,365.25L76.917,358.09L77.707,351.952L77.289,345.513L73.778,341.402L72.167,336.294L68.899,331.944L74.029,332.755L78.908,330.611L81.963,335.198L85.725,331.161L89.199,326.212L90.894,321.945L90.149,316.877L87.42,313.611L84.319,310.198L79.98,309.522L76.18,307.973L72.083,306.876L70.715,302.801L67.987,299.475L66.338,295.839L65.676,284.775L66.71,285.692L68.61,288.663L72.083,287.724L75.435,286.424L77.168,290.563L80.519,289.609L83.331,287.546L85.976,284.964L88.37,281.894L91.555,281.005L91.471,277.687L90.734,274.456L91.35,271.476L94.078,270.012L95.317,272.785L98.547,271.151L100.986,269.037L104.004,268.87L106.854,268.082L109.711,266.182L111.984,264.456L114.545,262.768L116.202,263.231L117.646,263.842L120.792,262.768L123.604,264.149L126.5,264.002L129.266,262.926L132.116,263.682L135.263,264.456L138.196,264.149L141.259,264.309L144.398,264.456L147.294,264.149L149.444,261.847L152.006,260.646L154.658,262.306L157.174,260.945L159.454,258.267L160.814,260.646L161.559,263.377L162.927,266.019L165.116,263.682L167.639,266.644L170.489,267.601L172.929,269.845L175.908,269.356L178.598,267.917L181.775,268.234L184.633,269.356L187.528,270.812L188.646,267.286L187.278,264.617L186.244,261.847L183.516,261.245L182.315,258.407L181.859,255.631L181.114,250.256L182.733,251.229L185.499,251.651L188.228,251.229L190.713,252.354L192.864,254.488L193.768,257.087L196.626,257.53L199.354,256.508L202.25,255.058L204.849,254.192L207,255.918L209.812,255.344L211.628,249.85L213.331,253.062L215.77,254.34L218.415,253.625L220.148,256.508L222.922,256.797L225.483,257.669L228.006,259.303L229.663,256.508L230.484,253.908L232.597,256.797L235.493,256.069L237.643,257.669L239.087,260.193L241.899,259.444L244.088,257.821L246.239,255.918L248.8,254.909L251.78,254.056L254.47,253.062L256.537,251.518L257.776,249.291L258.27,246.311L258.027,243.513L257.366,240.92L256.621,238.367L255.96,235.875L255.42,233.661L255.298,231.258L255.504,228.888L256.492,226.681L257.32,224.285L257.654,222.048L257.236,219.623L256.993,217.455L258.027,215.012L259.182,213.447L260.55,211.484L261.994,209.846L263.689,208.341L264.517,206.153L265.672,204.782L266.995,203.516L269.024,203.233L270.347,201.693L271.836,200.75L273.569,200.179L275.104,198.964L276.297,197.472L277.954,196.923L279.193,198.128L278.41,199.708L276.259,201.127L275.347,202.171L273.782,201.414L272.041,201.891L270.597,203.042L269.062,204.294L268.028,205.763L267.74,207.737L267.869,209.645L268.857,211.378L267.413,212.614L265.429,213.025L264.266,214.803L263.028,216.494L261.705,218.862L261.371,220.939L262.116,223.273L263.233,225.079L264.973,226.452L266.584,228.303L267.451,230.661L267.907,232.939L268.53,235.384L269.518,237.488L270.141,239.891L270.43,246.033L271.046,248.604L271.213,251.373L271.874,254.192L271.585,258.114L270.43,261.245L269.191,263.842L266.379,264.926L265.429,267.752L264.145,270.489L260.96,273.618L258.148,274.965L255.504,276.827L252.646,278.733L250.951,282.434L247.561,282.79L243.845,282.434L240.493,283.147L236.937,283.147L237.598,286.807L240.82,288.484L243.184,291.142L244.506,294.64L242.15,297.836L238.51,296.825L235.493,299.475L235.363,303.862L235.28,308.202L237.765,311.991L238.221,316.388L240.904,320.948L245.373,322.928L249.173,326.455L252.198,330.611L256.043,334.937L261.287,337.134L266.463,341.102L270.058,345.513L273.987,350.707L276.054,358.434L277.088,364.916L279.649,358.75L283.122,353.872L286.801,348.836L291.186,344.921L294.948,340.829L300.2,340.531L305.368,342.555L309.624,346.108L310.992,339.667L313.925,335.483L319.261,335.198L323.441,332.221L327.408,329.293L331.793,327.475L336.46,325.181L339.728,321.945L338.238,317.574L337.334,313.373L337.334,309.08L333.237,309.522L328.897,311.325L324.763,311.325L324.178,307.102L324.474,299.067L325.424,296.825L328.441,294.452L331.998,292.107L334.56,289.233L337.121,286.424L339.028,282.79L341.916,281.188L344.774,279.955L346.218,279.245L349.486,278.898L352.587,277.687L355.194,275.973L357.755,273.95L360.073,271.958L363.007,269.356L364.869,266.644L366.852,264.309L367.475,261.245L365.241,259.444L365.986,256.357L367.392,254.056L369.581,252.634L371.899,250.952L374.05,248.746L375.699,246.033L376.732,242.869L378.268,241.042L380.783,241.432L381.817,243.65L384.34,243.911L384.424,241.432L385.503,238.88L387.775,239.516L388.315,241.958L390.831,242.339L393.567,241.176L396.211,240.41L398.605,240.787L399.517,243.513L401.835,241.31L403.986,240.144L406.38,239.253L408.736,238.367L410.887,236.862L413.243,235.875L415.067,234.515L416.344,232.334L417.917,233.913L420.106,233.064L421.641,235.993L422.834,238.247L425.236,236.991L426.186,234.515L428.337,232.813L431.111,233.179L431.932,235.502L433.672,233.179L435.945,232.459L438.422,232.22L440.657,232.334L443.013,233.064L445.293,233.42L446.281,235.502L447.649,237.369L449.959,236.25L452.444,235.993L454.838,235.993L457.194,235.875L459.307,235.012L461.542,234.272L463.404,232.574L465.387,231.495L467.538,230.898L469.149,229.243L470.305,225.996L471.505,224.061L473.694,224.971L474.523,227.029L476.339,228.424L478.535,227.961L480.025,230.068L481.591,231.619L483.741,230.19L484.486,227.609L486.386,226.571L488.583,224.628L490.65,223.837L493.128,222.713L494.784,221.493L496.517,220.171L498.174,218.974L500.158,219.623L502.058,217.677L503.426,216.182L505.409,216.283L507.15,215.012L507.56,213.133L509.338,211.688L511.071,210.663L513.184,209.846L515.13,209.444L516.984,209.75L518.975,210.258L520.67,211.688L520.875,213.961L522.737,215.751L524.014,217.242L526.537,217.891L527.943,219.406L529.684,220.939L531.706,221.273L533.4,220.171L535.224,217.891L537.208,219.077L539.275,219.736L541.259,220.388L543.326,220.825L545.431,220.825L547.172,226.8L547.088,228.303L546.837,231.021L544.816,232.574L543.159,234.885L543.448,237.369L545.804,237.239L545.515,239.769L544.443,242.216L543.448,244.974L545.059,247.114L547.498,247.792L549.938,246.578L551.101,243.911L551.8,241.432L552.963,239.384L554.285,237.488L554.817,235.257L555.935,232.22L557.257,231.619L559.659,231.371L561.764,230.661L563.915,229.711L564.948,227.379L565.571,225.197L567.015,223.051L569.083,221.598L570.861,220.502L572.024,218.646L573.217,217.677L574.752,216.817L576.858,217.353L578.758,216.817L580.825,216.182L583.143,216.494L584.67,215.012L585.75,211.484L586.532,212.927L587.528,215.44L589.306,216.494L591.328,216.927L593.357,216.283L595.508,216.706L597.492,216.817L598.814,216.283L600.593,216.605L602.204,217.779L604.104,217.029L606.384,217.029L608.322,216.283L610.518,217.029L611.924,215.221L612.996,213.447L614.448,211.99L617.092,208.142L618.453,208.844L620.064,210.258L621.47,212.096L624.16,215.331L626.228,215.44L628.173,215.44L630.446,214.803L632.718,214.069L634.459,212.614L635.903,211.068L638.259,210.865L639.832,209.75L641.489,210.768L642.56,212.408L644.05,214.069L646.368,213.861L647.812,215.221L650.335,216.605L652.98,217.14L655.169,216.706L656.826,215.012L658.232,213.339L660.132,212.927L662.039,213.654L664.228,214.177L666.212,213.339L668.112,213.339L669.974,213.861L671.919,214.385L673.819,213.447L676.092,212.614L678.243,212.408L680.644,212.408L682.582,211.892L684.49,211.484L685.067,208.94L685.151,206.845L686.473,208.238L686.846,210.557L687.545,212.721L688.419,214.485L690.198,215.44L692.592,215.121L695.366,215.012L697.266,214.694L700.032,214.694L702.023,214.594L704.79,214.803L707.146,215.221L708.635,216.927L708.225,218.974L709.585,220.607L711.858,221.933L714.214,223.39L716.95,224.403L719.8,225.305L721.951,226.224L724.345,226.343L725.713,224.403L727.575,225.996L729.186,227.84L731.048,229.243L733.609,229.833L736.049,230.538L737.082,232.939L739.484,234.398L741.095,236.614L743.451,237.618L745.891,237.488L748.163,237.867L750.687,237.737L753.21,238.247L755.566,239.132L757.755,240.665L759.951,241.958L761.433,243.911L761.19,246.578L760.073,249.018L759.123,252.209L758.378,254.773L757.382,257.821L754.616,259.008L753.377,261.703L750.641,263.377L749.691,266.494L748.247,269.524L746.719,272.129L745.845,275.636L745.313,278.898L745.1,282.961L745.146,286.424L746.347,290.184L746.803,293.857L747.791,297.434L751.72,298.855L752.549,303.44L748.741,305.155L745.518,307.537L741.506,307.973L739.727,314.53L739.355,320.232L738.45,324.94L737.333,329.837L740.145,334.37L741.217,340.259L743.033,345.797L745.602,351.004L748.536,356.132L751.72,361.455L756.554,367.023L757.633,376.263L763.713,380.591L764.116,382.15L765.697,388.41L771.526,382.99L776.36,389.702L780,395.088L780,395.088L780,403.077L780,403.077ZM20,403.077L20,395.088L20,395.088L20,395.088L20,395.088L20.122,395.282L21.984,382.604L25.791,389.257L26.034,388.484L28.269,381.767L28.558,382.011L28.801,382.15L31.856,391.045L34.531,382.15L35.01,380.97L41.212,377.431L43.226,382.15L44.214,384.651L47.398,391.835L53.395,397.675L56.789,403.077L20,403.077Z" fill="#000000"/>
</svg>