<svg xmlns="http://www.w3.org/2000/svg" viewBox="0 0 800 600">
  <path d="M335.216,523.71L340.052,533.446L346.394,549.412L362.863,562.414L380.61,567.854L374.908,578.909L362.863,580L356.431,572.207L348.766,571.611L335.216,571.573ZM474.729,138.406L471.536,150.195L468.16,165.471L468.297,180.432L465.514,183.814L464.556,193.65L463.689,201.635L479.794,214.862L478.06,225.629L485.953,232.46L485.314,240.187L473.133,260.666L454.336,269.349L428.925,272.735L415.01,271.11L417.701,280.843L415.101,293.182L417.428,301.579L409.809,307.477L396.852,309.811L384.671,303.674L379.744,308.075L381.523,324.902L390.1,330.057L397.035,324.671L400.776,333.575L389.142,338.917L378.968,349.714L377.098,367.456L374.086,377.003L362.133,377.063L352.188,386.272L348.538,399.933L360.993,413.467L373.128,417.22L368.749,434.139L353.785,444.9L345.572,467.656L333.984,475.475L328.829,484.782L332.889,505.825L341.33,517.757L335.992,516.704L324.267,513.448L293.609,510.691L288.362,498.781L288.636,483.665L280.196,484.952L275.725,477.726L274.63,456.901L284.347,448.384L288.362,436.23L286.856,426.647L293.609,410.702L298.216,386.456L296.848,375.88L302.414,372.49L301.045,365.773L295.16,362.236L299.357,354.841L293.609,348.207L290.643,328.259L295.753,324.787L293.609,304.184L296.574,287.163L299.996,272.542L307.569,266.63L303.737,250.938L303.691,236.331L313.272,226.053L312.952,213.024L320.206,197.999L320.252,183.968L316.967,181.2L311.128,155.335L318.929,140.169L317.697,126.023L322.259,112.864L330.563,99.383L339.505,90.531L335.718,84.961L338.364,80.413L337.954,57.033L351.732,50.186L356.111,35.824L354.56,32.379L365.099,20L381.705,23.33L389.142,33.239L394.115,22.219L408.531,22.775L410.584,25.716L433.897,48.191L444.254,50.28L459.72,60.573L472.768,66.038L474.593,72.235L462.138,93.733L474.912,97.594L489.146,99.794L499.183,97.497L510.68,86.591L512.733,74.139L519.029,71.426L525.37,79.553L525.097,90.868L514.421,98.73L505.935,104.567L491.61,118.535Z" fill="#000000"/>
</svg>