<svg xmlns="http://www.w3.org/2000/svg" viewBox="0 0 800 600">
  <path d="M610.565,523.531L619.404,524.821L620.469,548.276L615.411,555.139L613.867,571.383L608.702,565.831L598.425,580L595.39,578.894L586.285,578.237L577.18,560.916L575.156,547.702L566.637,530.462L567.009,521.482L576.647,523.2L590.971,529.963L599.011,527.273ZM291.935,365.083L276.28,374.075L263.448,378.157L260.626,387.404L255.141,394.624L242.575,395.077L233.31,396.646L220.211,393.419L209.615,395.348L199.445,396.163L190.659,405.703L186.346,404.913L178.892,409.992L171.81,415.701L161.001,414.997L151.097,414.997L135.389,403.517L127.455,400.093L127.774,389.897L135.123,387.464L137.625,383.447L137.093,377.113L138.903,364.906L137.252,354.584L129.425,337.099L127.029,327.326L127.668,317.638L121.758,306.604L121.385,301.639L114.835,294.957L112.972,281.862L104.559,268.748L102.482,261.709L108.978,268.832L104.026,253.557L111.321,258.311L115.741,264.695L115.474,256.252L108.126,243.366L106.742,238.235L103.281,233.365L104.931,224.013L107.913,220.022L109.937,211.98L108.393,202.587L114.463,191.102L115.581,203.264L121.864,192.288L133.845,186.955L141.086,180.185L152.375,174.37L159.084,173.139L163.184,175.093L174.845,169.211L183.79,167.449L186.027,164.009L189.967,162.57L198.114,162.943L213.662,158.339L221.702,151.383L225.483,143.017L234.162,135.1L234.854,128.888L235.227,120.461L245.557,107.331L251.787,120.671L258.123,117.579L252.852,110.282L257.484,102.794L263.98,106.131L265.791,94.441L273.884,86.887L277.452,80.852L284.907,78.239L285.119,73.975L291.616,75.758L291.882,71.936L298.378,69.742L305.513,67.679L316.429,74.673L324.682,83.726L333.894,83.829L343.319,85.28L340.177,76.869L347.259,64.664L353.968,60.674L351.625,56.893L358.068,48.215L367.013,42.885L374.575,44.678L387.034,41.835L386.768,34.11L375.906,29.129L383.786,26.934L393.584,30.687L401.464,36.871L413.924,40.734L418.131,39.199L427.289,43.858L435.915,39.531L441.506,40.836L444.967,37.945L451.73,45.421L447.789,53.528L442.198,59.671L437.087,60.185L438.79,66.262L434.477,73.872L429.206,81.396L430.271,85.695L442.039,94.181L453.433,99.096L461.048,104.41L471.75,113.549L475.904,113.523L483.624,117.474L485.914,122.27L500.025,127.521L509.769,122.218L512.697,113.915L515.679,107.07L517.49,98.627L522.016,86.421L519.939,79.015L521.004,74.595L519.3,65.849L521.27,54.401L524.092,51.32L521.803,46.267L525.37,38.252L528.139,29.946L528.512,25.659L534.049,20L538.203,27.368L539.214,36.845L542.942,38.661L543.527,45.037L548.905,52.732L550.024,61.343L549.491,66.854L554.816,78.834L564.347,73.071L569.246,79.532L576.328,85.514L574.783,92.31L577.978,105.479L580.215,113.183L583.942,115.066L587.935,128.31L586.498,136.392L591.29,146.958L607.317,155.151L617.807,162.623L627.711,169.478L625.741,173.3L634.207,183.245L639.958,200.474L645.868,196.959L651.885,203.887L655.506,201.422L658.062,218.439L668.551,228.368L675.42,234.574L686.975,247.763L691.128,260.957L691.501,270.372L690.489,280.623L697.518,294.815L696.666,309.721L694.11,317.581L690.117,332.8L690.436,342.664L687.507,355.055L680.958,370.953L670.042,379.59L664.611,393.328L659.659,402.152L655.293,417.69L649.596,426.722L645.868,440.407L643.951,453.126L644.697,459.008L636.231,465.486L619.671,466.183L605.986,473.872L599.224,481.189L590.278,489.35L578.031,480.933L568.979,477.606L571.269,467.8L563.176,471.357L550.237,485.039L537.457,479.908L529.044,476.903L520.578,475.562L506.254,470.117L496.723,458.599L493.954,444.52L490.547,435.252L483.252,427.832L469.035,425.644L473.88,416.833L470.313,403.486L463.071,415.915L449.919,419.253L457.693,409.261L459.93,398.913L465.627,390.198L464.456,377.083L452.422,392.184L443.157,398.278L437.513,412.554L425.958,405.156L426.437,395.68L417.172,382.788L409.345,376.189L412.114,372.112L393.158,361.507L382.775,361.005L368.558,352.557L342.041,354.202L322.925,360.415L306.046,366.238Z" fill="#000000"/>
</svg>