<svg xmlns="http://www.w3.org/2000/svg" viewBox="0 0 800 600">
  <path d="M780,243.832L772.338,305.519L715.42,306.029L734.758,338.594L701.191,434.487L681.853,459.531L593.193,463.03L542.112,496.452L458.56,485.244L313.346,447.019L290.725,395.513L190.754,421.182L179.078,449.522L117.417,428.465L65.607,424.447L20,397.277L35.324,360.651L31.675,334.277L61.959,325.889L113.404,367.484L127.633,327.923L217.024,334.277L289.63,307.304L338.157,311.891L369.899,342.655L379.386,317.238L364.791,218.608L401.277,199.248L437.033,128.628L512.194,178.026L569.477,115.053L605.233,103.548L683.677,150.506L731.474,142.7L778.176,171.544L769.784,190.973Z" fill="#000000"/>
</svg>