<svg xmlns="http://www.w3.org/2000/svg" viewBox="0 0 800 600">
  <path d="M258.444,20L291.954,25.423L374.009,122.275L426.421,133.01L447.042,92.695L518.357,28.404L581.08,112.335L641.655,224.349L697.504,231.792L734.02,273.957L636.07,286.389L615.019,407.041L594.398,461.013L551.007,496.845L554.015,572.537L524.372,580L450.049,500.215L490.862,424.279L455.634,378.775L410.955,390.3L270.473,503.842L267.466,397.104L214.194,371.697L163.501,329.655L197.01,279.778L133.428,226.21L157.486,186.788L111.948,159.265L87.46,117.709L116.673,91.887L205.602,137.301L269.614,146.949L285.939,128.181L227.512,42.214ZM227.083,508.245L145.457,488.028L84.882,416.969L65.98,358.576L90.897,354.374L126.125,396.058L178.967,395.534L178.537,419.319Z" fill="#000000"/>
</svg>