<svg xmlns="http://www.w3.org/2000/svg" viewBox="0 0 800 600">
  <path d="M603.82,449.264L601.901,517.851L570.889,503.321L576.644,580L551.386,530.432L546.271,481.821L529.326,435.636L492.238,379.677L410.391,375.927L418.384,415.492L390.568,468.873L352.842,449.427L339.733,466.929L314.795,456.398L280.266,447.805L266.518,368.75L235.825,296.108L250.852,237.563L196.18,211.325L216.003,175.757L271.314,139.254L207.371,87.126L238.703,20L309.041,62.731L351.563,67.748L359.236,136.096L443.961,149.552L526.128,148.224L577.283,164.984L536.359,247.614L496.714,253.213L469.219,308.408L517.816,358.468L532.523,296.765L556.821,296.436Z" fill="#000000"/>
</svg>