<svg xmlns="http://www.w3.org/2000/svg" viewBox="0 0 800 600">
  <path d="M415.585,20L487.497,50.782L497.069,80.75L532.903,66.405L599.661,95.255L606.287,151.425L591.561,183.37L634.267,260.244L662.001,281.48L658.074,302.427L703.97,322.701L723.605,353.147L697.098,378.021L642.121,374.173L628.867,384.748L645.066,422.249L661.755,493.963L603.097,500.533L582.235,524.675L577.817,580L550.574,569.465L489.215,574.643L471.299,549.071L445.773,568.17L420.003,552.228L366.498,550L290.414,523.741L221.447,514.957L168.678,517.576L131.373,547.399L98.73,551.671L97.257,502.596L76.395,450.946L117.137,427.964L117.628,383.019L98.73,339.596L95.785,288.734L161.561,289.517L235.682,245.64L251.39,179.364L307.349,141.133L300.967,87.497L342.446,67.021Z" fill="#000000"/>
</svg>