<svg xmlns="http://www.w3.org/2000/svg" viewBox="0 0 800 600">
  <path d="M155.282,69.458L185.605,72.983L206.654,72.067L215.78,59.453L251.55,42.631L273.188,27.024L326.621,20L322.352,51.145L327.357,67.132L323.972,95.073L368.426,132.503L414.205,139.451L430.249,155.065L457.923,163.379L474.851,175.612L500.611,175.185L524.31,187.647L526.076,212.047L534.172,224.342L534.614,242.6L522.69,243.317L538.441,292.771L616.898,294.501L610.863,319.198L615.279,336.066L637.506,348.106L647.221,374.791L640.008,408.739L628.674,427.717L632.648,452.487L619.842,461.476L619.253,448.07L581.128,425.883L543.151,425.223L471.907,437.85L452.329,476.164L451.299,499.704L435.107,552.422L428.483,542.933L381.968,541.141L365.923,576.696L341.93,544.725L288.35,533.98L254.347,573.919L224.907,580L208.862,519.161L186.782,470.034L199.736,427.937L178.245,409.617L172.798,378.507L152.779,349.268L178.539,303.086L161.022,267.362L170.296,253.071L163.083,237.37L178.981,216.263L179.864,180.382L181.777,150.876L190.609,136.686Z" fill="#000000"/>
</svg>