<svg xmlns="http://www.w3.org/2000/svg" viewBox="0 0 800 600">
  <path d="M669.226,286.021L589.342,331.004L538.729,376.961L519.825,418.043L502.954,441.345L472.058,446.287L462.301,476.112L456.61,495.567L420.428,510.191L374.49,507.115L347.456,489.535L323.674,482.028L296.233,496.52L282.411,526.544L255.579,545.385L227.325,573.577L186.875,580L174.273,557.866L179.558,519.531L146.019,460.079L130.774,450.811L130.774,271.285L186.469,269.226L188.095,55.06L230.171,53.149L317.169,32.343L338.715,56.771L374.693,33.548L391.971,33.347L423.681,20L433.844,24.414L455.593,71.98L466.976,82.569L484.66,117.136L548.689,183.074L572.878,189.602L572.878,210.848L589.546,249.279L633.248,258.527Z" fill="#000000"/>
</svg>