<svg xmlns="http://www.w3.org/2000/svg" viewBox="0 0 800 600">
  <path d="M413.42,580L409.648,570.779L415.624,563.094L407.787,552.132L397.11,543.275L383.103,533.075L378.058,533.558L364.394,521.345L355.578,523.023L373.7,501.691L389.078,486.696L398.188,480.43L409.648,471.99L409.942,459.843L403.135,451.119L396.376,454.031L399.02,445.335L400.882,436.452L400.882,428.241L395.984,425.546L390.89,427.964L385.846,427.309L384.23,421.572L382.956,408.028L380.409,403.616L371.251,399.636L365.667,402.521L351.317,399.711L352.199,379.874L348.183,371.788L352.444,368.797L351.121,360.556L354.893,354.242L357.292,342.946L354.06,334.067L346.664,330.061L345.195,324.449L347.203,316.232L321.099,315.656L315.858,299.202L319.825,298.963L319.678,292.888L316.985,288.797L316.397,280.679L308.512,276.533L299.941,276.675L294.309,272.604L285.101,269.838L279.762,264.643L264.531,262.331L249.74,249.877L250.866,240.581L249.201,235.261L250.621,224.899L232.843,227.236L225.643,232.429L213.742,238.026L210.705,242.223L203.702,242.528L193.613,241.355L185.923,243.748L179.752,242.152L180.634,221.139L169.467,229.27L157.468,228.919L152.325,221.559L143.314,220.765L146.203,214.839L138.612,206.476L132.98,194.106L136.555,191.598L136.555,185.797L144.783,181.832L143.412,174.441L146.889,169.672L147.869,163.31L163.443,154.019L174.561,151.386L176.373,149.331L188.666,149.977L194.788,112.622L195.082,106.726L192.976,98.919L186.952,93.968L187.001,84.067L194.641,81.833L197.384,83.238L197.825,78.033L189.89,76.629L189.695,68.106L216.191,68.406L220.697,63.729L224.468,68.037L227.162,76.076L229.708,74.395L237.202,81.58L247.781,80.705L250.425,76.537L260.515,73.358L266.147,71.124L267.714,65.365L277.412,61.494L276.677,58.636L265.167,57.461L263.257,48.885L263.845,39.75L257.723,36.218L260.27,34.948L270.359,36.703L281.183,40.119L285.101,36.888L294.896,34.764L310.079,29.66L315.075,24.462L313.262,20.601L320.364,20L323.499,23.144L321.735,29.129L326.437,31.208L329.523,37.534L325.751,42.357L323.597,53.934L327.074,60.826L328.053,67.139L336.428,73.519L343.138,74.187L344.607,71.516L348.917,70.94L355.088,68.544L359.496,64.927L367.039,66.079L370.32,65.595L377.716,66.701L378.94,63.936L376.687,61.217L378.058,57.276L383.544,58.498L389.96,57.092L397.747,59.973L403.673,62.784L407.885,59.097L410.922,59.673L412.783,63.499L419.297,62.531L424.537,57.369L428.7,47.316L436.732,34.856L441.385,34.21L444.765,41.757L452.356,65.572L459.653,67.807L459.996,77.204L449.809,88.419L454.021,92.518L478.069,94.636L478.558,108.292L488.893,99.357L505.985,104.239L528.613,112.553L535.224,120.525L533.02,128.061L548.84,123.866L575.287,131.081L595.613,130.551L615.742,141.829L633.129,157.115L643.61,161.044L655.217,161.599L660.164,165.901L664.767,183.315L667.02,191.622L661.633,214.35L654.678,223.334L635.528,242.575L626.86,258.277L616.77,270.382L613.391,270.642L609.571,280.94L610.55,307.298L606.779,329.145L605.31,338.563L601,344.207L598.6,363.438L584.789,382.362L582.487,397.451L571.467,403.815L568.284,412.674L553.493,412.624L532.09,418.309L522.539,424.917L507.308,429.275L491.292,441.167L479.783,456.103L477.775,467.425L480.028,475.842L477.53,491.366L474.444,498.933L464.894,507.486L449.809,535.169L437.859,547.792L428.602,555.314L422.382,570.696Z" fill="#000000"/>
</svg>