<svg xmlns="http://www.w3.org/2000/svg" viewBox="0 0 800 600">
  <path d="M26.756,503.367L20.32,444.701L47.491,401.869L44.989,367.558L123.999,283.315L138.657,213.482L165.828,188.605L213.735,202.256L255.207,181.518L268.792,155.224L346.015,109.313L364.964,77.382L457.56,34.62L512.259,20L537.285,39.84L600.923,39.318L593.057,89.014L606.285,135.658L662.058,202.429L665.275,251.784L779.68,274.876L777.535,344.546L755.726,374.767L707.104,384.376L687.084,428.603L652.762,440.078L565.886,437.852L520.125,429.802L487.948,446.242L443.974,438.879L271.653,443.502L269.15,500.975L282.735,576.761L214.808,550.836L168.331,554.589L133.652,580L88.963,558.684L71.445,525.402Z" fill="#000000"/>
</svg>