<svg xmlns="http://www.w3.org/2000/svg" viewBox="0 0 800 600">
  <path d="M511.911,20L531.818,52.652L535.047,86.429L533.253,120.213L560.334,166.254L532.536,165.741L518.547,169.336L495.77,164.199L485.009,188.072L514.422,217.546L536.123,226.08L543.117,246.973L558.72,281.631L551.008,295.241L525.9,346.119L513.884,355.196L510.118,394.016L515.139,415.1L511.014,429.994L534.688,456.128L538.813,474.048L557.285,499.816L580.062,515.861L582.214,538.57L587.415,553.086L583.828,580L544.373,568.189L504.02,555.027L441.249,553.086L434.972,550.385L405.56,556.799L375.25,550.132L351.577,553.339L270.513,552.242L277.687,512.906L258.318,479.879L235.541,471.428L225.497,449.025L212.585,441.837L213.302,428.048L226.035,392.661L249.709,344.337L264.236,343.828L293.828,314.535L312.659,313.685L340.637,334.322L374.892,317.423L379.555,296.516L390.853,276.27L398.565,250.808L425.108,230.09L435.152,194.74L445.733,183.454L452.727,157.177L465.999,124.849L507.966,85.569L510.476,68.689L516.036,59.465L496.308,39.186L497.922,22.94Z" fill="#000000"/>
</svg>