<svg xmlns="http://www.w3.org/2000/svg" viewBox="0 0 800 600">
  <path d="M274.54,529.639L273.88,529.627L264.558,522.325L261.103,519.074L252.37,515.934L249.679,509.111L250.374,504.295L244.193,500.913L243.36,494.433L237.526,488.487L237.422,484.209L240.096,480.149L239.974,474.76L231.763,469.238L226.832,459.102L223.829,452.562L219.401,448.39L216.155,444.547L213.603,439.622L208.759,442.721L204.072,447.979L199.783,441.788L196.415,437.588L191.711,434.899L186.971,434.619L186.988,373.596L187.023,325.999L196.016,329.323L203.62,335.883L208.638,337.11L212.874,331.456L218.707,327.174L225.877,328.857L233.099,322.756L240.999,319.212L244.315,325.056L247.908,321.779L248.985,315.064L252.318,316.599L260.478,329.206L266.884,319.718L267.544,330.322L273.464,328.063L275.287,323.991L281.137,324.796L288.499,330.6L299.783,335.587L306.433,337.857L311.155,336.997L317.648,343.724L310.877,350.15L319.592,352.893L332.613,351.384L336.71,349.15L341.849,356.759L347.092,350.345L342.179,344.852L345.287,340.357L351.155,339.751L355.026,338.422L358.915,341.587L363.759,348.671L369.141,347.644L377.665,353.408L385.148,351.384L392.179,351.686L391.623,343.657L395.911,341.364L403.394,345.8L403.359,357.861L406.432,347.732L410.304,348.081L412.491,334.811L407.318,326.375L401.693,320.702L402.075,304.618L407.786,293.548L414.141,296.036L419.019,302.764L425.582,319.26L421.293,326.164L430.269,328.973L430.252,342.724L436.693,332.241L442.457,340.872L441.016,350.519L445.686,359.042L450.72,349.911L454.227,338.625L454.505,323.612L461.345,324.701L468.481,326.751L474.956,333.552L475.252,340.2L471.658,347.184L475.061,354.03L474.436,360.136L464.991,368.68L458.29,370.53L453.307,366.9L451.866,372.933L447.213,382.787L445.807,387.788L440.217,395.336L433.325,396.064L429.505,400.69L429.193,407.662L423.585,408.988L417.682,417.436L412.457,428.799L410.582,436.525L410.304,447.568L417.404,449.131L419.575,457.725L421.832,464.524L428.568,462.762L437.543,466.606L442.352,469.948L445.807,474.045L451.849,476.416L456.953,479.991L464.922,480.478L470.165,481.308L469.384,488.529L470.877,496.734L474.366,505.642L481.554,513.028L485.269,510.517L487.873,502.461L485.356,489.687L481.953,485.326L489.679,481.408L495.13,475.429L497.804,469.4L497.404,463.501L494.14,455.848L488.272,448.91L493.967,439.005L491.866,430.189L490.252,414.394L493.62,411.977L501.883,414.815L506.849,415.814L510.842,413.091L515.321,416.6L521.258,422.527L522.734,426.424L531.328,427.184L531.189,435.442L532.786,447.489L537.196,448.942L540.685,454.38L547.665,449.257L552.283,438.826L555.477,434.339L559.227,442.914L565.512,454.798L570.842,465.589L568.897,471.098L575.321,475.966L579.661,480.836L587.335,483.003L590.442,485.678L592.352,492.656L596.102,493.732L598.046,496.789L598.394,505.735L594.887,508.676L591.432,511.395L583.48,514.134L577.421,520.391L569.262,521.614L558.949,520.02L551.71,519.969L546.727,520.493L542.682,525.862L536.536,529.141L529.574,538.757L524.019,545.315L528.116,544.156L535.859,534.754L545.981,528.655L553.185,527.931L557.456,531.525L552.908,536.407L554.435,544.108L556.015,549.408L562.283,552.874L570.251,551.866L575.078,544L575.408,549.101L578.533,551.62L572.56,556.134L561.883,560.184L557.092,562.917L551.71,567.744L548.047,567.248L547.856,561.57L556.241,555.949L548.515,556.169L543.151,557.003L540.008,553.119L540.008,543.593L537.873,541.538L534.626,542.741L533.029,540.875L529.349,546.22L527.89,551.655L526.172,554.798L524.123,555.856L522.578,556.204L522.092,557.893L513.203,557.893L505.876,557.939L503.706,559.196L498.602,564.056L498.012,564.578L496.467,567.191L492.04,567.18L487.3,567.214L485.13,568.261L485.894,569.564L486.328,571.588L486.241,572.256L479.939,575.506L474.974,576.532L469.366,580L468.151,580L466.519,578.982L465.981,578.05L466.085,577.38L467.144,575.097L469.418,571.487L470.824,567.575L469.852,561.742L468.828,555.566L463.793,552.335L464.401,551.104L463.689,550.245L462.37,550.245L461.397,549.148L461.154,547.491L460.217,548.214L458.915,548.001L459.21,547.302L458.081,546.613L457.613,544.766L453.863,542.501L449.974,540.126L445.252,537.346L440.72,534.73L436.415,536.773L434.835,536.846L428.898,534.963L424.991,535.906L420.321,533.661L415.391,532.502L412.023,532.057L410.529,530.819L409.679,526.766L408.047,526.804L408.029,529.639L398.047,529.639L381.536,529.639L365.148,529.639L350.686,529.639L336.207,529.639L321.988,529.639L307.283,529.639L302.544,529.639L288.238,529.639ZM461.866,413.002L465.46,408.147L472.074,408.254L471.97,410.29L466.328,416.041L462.925,415.814ZM482.213,279.51L476.901,270.737L477.109,264.611L479.418,263.475L490.46,265.308L498.776,274.582L499.21,279.123L494.071,278.653L488.88,278.293L483.602,280.502ZM479.609,416.809L481.467,413.708L483.446,413.936L484.661,416.058L482.786,421.43L480.651,420.57L479.384,417.523ZM415.477,241.623L412.856,248.745L405.859,247.39L400.009,242.566L402.578,234.092L409.505,228.903L413.724,235.672ZM414.384,189.933L412.196,190.574L403.151,189.139L401.866,182.819L411.571,183.167L414.957,187.353ZM400.339,160.669L406.102,169.13L404.783,177.699L397.648,182.47L393.724,177.067L391.658,168.193L391.276,158.018L397.526,159.031ZM441.832,252.348L434.036,250.124L421.224,244.256L419.557,233.93L418.967,224.289L414.123,215.522L404.158,213.026L398.568,206.582L400.373,197.829L410.321,199.185L415.668,206.047L425.165,206.011L429.332,212.852L428.22,220.482L433.759,224.991L436.832,229.627L443.325,230.48L450.373,232.112L458.029,227.914L467.856,226.224L475.686,227.616L480.859,234.899L481.936,242.66L478.915,247.545L471.727,251.436L465.564,249.236L451.727,252.014ZM330.356,175.442L337.162,179.076L335.547,185.939L326.554,192.377L319.419,185.133L323.307,177.817ZM331.814,159.704L338.082,164.704L332.196,169.414L324.193,169.374L324.28,165.941L329.228,158.567ZM598.793,512.193L596.224,517.018L593.029,523.618L596.171,521.092L599.418,522.693L597.717,525.296L602.005,527.33L604.227,525.523L609.036,527.806L607.543,533.18L610.911,531.934L611.536,535.783L613.029,540.247L610.998,546.482L608.828,546.743L605.651,545.422L606.692,539.606L605.355,538.696L599.765,544.873L596.883,544.622L600.286,541.297L595.651,539.557L590.477,539.981L581.119,539.763L580.373,537.639L583.376,535.098L581.276,533.131L585.338,528.717L590.321,516.786L593.307,512.428L597.491,509.755L599.73,510.097ZM462.404,383.972L467.682,387.884L473.203,391.387L473.637,396.66L477.179,395.803L480.633,399.438L476.345,402.849L468.845,400.249L466.137,395.318L461.363,401.13L454.488,406.691L452.838,400.396L446.293,401.442L450.495,396.046L451.102,387.252L452.752,376.671L456.241,377.643L457.127,382.729L459.609,380.951ZM487.057,286.762L491.623,280.365L502.317,288.48L508.967,295.931L509.592,302.585L518.533,299.148L523.567,308.691L535.199,314.477L539.401,320.246L543.967,333.231L535.113,339.481L546.467,348.038L554.123,350.865L561.067,362.394L568.654,363.205L567.144,371.684L558.689,385.25L552.751,380.324L545.165,368.965L538.932,370.47L538.324,377.247L543.394,383.992L549.939,389.221L551.918,392.2L555.06,403.031L553.394,410.682L547.317,407.824L535.217,399.217L542.04,408.469L547.057,414.797L547.838,418.392L534.765,414.271L524.418,408.182L518.567,402.995L520.251,399.936L513.064,394.288L506.033,388.878L506.12,392.124L492.179,393.894L488.099,390.059L491.276,381.675L500.338,381.48L510.251,379.99L508.654,375.816L510.321,369.901L516.571,357.966L515.234,352.398L513.376,347.994L505.998,341.677L496.224,337.155L499.314,333.735L494.21,325.197L489.956,324.394L486.154,319.597L483.568,323.778L474.835,325.575L457.283,322.447L447.075,318.271L439.262,316.112L435.252,311.029L440.286,304.263L433.446,304.212L431.918,288.614L435.616,274.132L440.582,267.273L453.029,262.686L449.488,273.654L453.29,283.867L457.734,270.595L469.956,263.621L478.238,280.915L477.509,291.356ZM411.189,256.922L421.241,257.519L430.443,261.778L423.238,276.82L417.491,280.007L412.318,291.939L406.814,291.356L403.811,277.265L403.88,268.968L406.398,261.689ZM274.453,219.633L282.648,204.185L292.544,190.084L299.939,190.424L306.554,187.124L305.894,203.934L302.179,211.21L297.683,212.224L288.707,220.889L280.999,223.954ZM226.936,490.522L231.572,489.868L230.113,499.088L234.315,505.469L232.388,505.456L229.488,501.843L227.7,498.165L225.269,495.654L224.384,492.075L224.662,489.464ZM358.186,147.065L367.665,150.604L380.703,159.788L384.384,171.357L386.259,181.148L378.394,178.565L370.46,170.913L359.714,170.063L364.366,162.84L358.55,156.873ZM271.311,533.23L268.881,534.238L260.964,530.918L259.506,528.318L255.2,525.724L254.332,523.605L249.367,522.249L247.509,518.15L247.926,516.386L252.978,518.047L255.947,519.189L260.478,519.995L262.11,522.592L264.506,526.126L269.315,529.179ZM280.808,251.314L287.7,255.035L300.009,256.025L304.696,261.102L309.87,268.337L303.811,272.581L291.988,284.084L286.016,295.121L286.016,301.768L273.325,308.966L270.773,302.432L259.644,294.362L261.71,287.73L265.044,275.899L269.228,264.844L264.506,254.132ZM346.971,225.025L351.259,221.701L356.311,222.577L357.162,232.145L354.228,241.15L337.908,244.006L325.738,251.892L318.394,252.317L317.787,246.401L327.804,238.201L306.016,240.423L299.262,237.051L305.842,217.961L310.391,212.259L323.967,219.123L332.526,230.807L340.946,232.275L334.054,213.269L338.481,205.69L343.446,208.109L345.078,217.927ZM353.221,275.003L358.62,281.628L361.658,296.973L363.151,307.616L371.241,314.868L379.957,321.611L379.418,327.759L371.502,328.88L374.592,334.125L372.96,339.053L364.228,336.951L355.929,333.299L350.339,334.125L341.276,338.693L329.054,340.67L320.478,341.922L317.856,335.633L311.276,331.941L307.005,333.46L301.051,322.518L304.262,321.037L311.71,318.609L318.516,319.236L324.801,316.745L315.478,313.373L305.165,314.526L298.325,314.232L295.79,308.866L306.971,302.891L299.54,303.12L291.12,299.122L295.165,287.461L298.516,281.079L311.432,271.05L316.363,274.273L313.95,281.957L324.679,277.015L331.38,285.196L336.832,276.903L341.241,282.258L345.182,297.7L347.613,291.303L344.193,274.778L348.429,272.355ZM382.561,281.079L377.248,270.282L382.96,262.012L388.707,265.627L397.318,263.446L398.568,268.423L394.071,276.429L401.363,283.431L400.495,297.57L392.596,303.451L387.943,302.177L384.609,296.374L372.63,284.247L372.717,279.068ZM352.856,266.206L359.314,265.511L362.978,269.254L358.741,280.199L351.207,268.595ZM391.918,207.258L395.599,216.796L395.755,227.02L393.55,241.244L385.599,243.13L380.425,240.17L380.512,229.035L372.613,230.545L372.3,215.176L377.491,215.798L384.766,208.781L391.536,209.98ZM403.898,111.086L407.231,101.941L412.179,99.763L410.061,92.647L421.276,91.041L427.439,107.464L435.564,113.822L443.463,119.312L447.283,137.631L453.081,146.14L446.467,153.799L437.561,172.283L429.019,173.967L419.036,170.913L413.845,161.046L413.915,151.904L417.734,145.035L408.915,145.212L403.602,136.4L400.547,123.885ZM425.252,70.026L432.422,63.465L438.047,62.337L447.509,56.564L454.609,42.867L460.581,44.775L465.79,55.102L469.453,34.904L475.824,28.595L484.47,24.194L499.21,22.552L501.779,26.843L515.703,20L526.137,22.62L536.588,25.148L549.47,28.326L559.835,33.324L568.654,43.759L568.446,53.571L556.675,68.923L545.008,75.756L540.651,83.199L551.154,83.033L539.765,102.147L531.918,110.636L523.654,133.831L513.706,138.312L510.633,143.703L496.033,146.537L502.682,149.778L499.349,154.314L503.342,166.557L498.758,174.725L491.311,181.304L489.019,190.197L482.283,196.762L482.96,201.66L491.206,200.825L491.311,206.011L478.429,218.406L465.825,212.782L451.658,215.935L444.47,213.478L435.356,212.398L434.748,202.312L443.672,197.462L441.293,181.304L444.245,179.703L457.127,189.517L450.547,174.805L442.734,170.266L446.641,160.837L455.182,154.87L456.554,145.919L449.748,135.531L447.7,121.247L460.877,122.497L464.696,125.552L472.213,115.106L461.363,111.735L444.488,113.624L435.963,103.486L431.936,90.933L426.311,81.482ZM504.192,355.973L501.067,359.653L495.651,360.283L494.453,354.159L496.502,346.987L500.929,345.183L504.696,348.758L504.748,354.223ZM402.734,329.067L405.668,334.285L402.665,338.986L396.172,334.925L392.248,336.406L385.651,330.299L389.905,326.022L393.273,319.934L398.394,323.944L401.276,326.446ZM555.79,523.162L557.456,522.541L563.793,524.414L568.724,527.518L568.862,528.867L566.519,529.004L560.269,526.679ZM558.22,543.797L559.904,547.23L563.411,548.167L567.873,547.977L565.494,550.833L563.724,551.28L557.595,548.333L556.397,545.982Z" fill="#000000"/>
</svg>