<svg xmlns="http://www.w3.org/2000/svg" viewBox="0 0 800 600">
  <path d="M780,388.239L760.719,394.54L723.005,393.14L678.723,386.939L656.688,392.04L648.001,406.34L628.932,408.14L605.626,395.641L540.156,425.133L513.248,419.136L505.197,423.734L487.611,459.398L443.752,447.912L400.742,442.019L363.239,420.236L314.72,400.241L283.15,419.236L260.268,449.211L254.971,490.345L217.257,487.051L177.424,477.17L142.253,508.406L111.319,563.256L105.174,546.108L102.632,519.28L75.723,500.324L53.9,469.882L49.027,448.711L21.059,417.837L25.933,400.241L20,375.333L24.449,329.471L38.645,318.748L68.308,258.641L116.827,254.22L127.845,238.944L137.591,240.05L152.211,253.517L226.367,230.8L251.369,207.658L282.091,186.812L276.158,165.845L292.685,160.398L349.679,164.029L404.979,136.477L447.566,71.229L477.441,46.995L514.731,36.744L521.299,62.411L555.199,99.783L555.411,124.152L545.877,148.996L549.691,167.559L570.031,184.696L614.948,210.678L647.154,234.721L647.577,254.019L687.198,284.947L711.776,310.527L726.607,346.101L770.677,369.528Z" fill="#000000"/>
</svg>