<svg xmlns="http://www.w3.org/2000/svg" viewBox="0 0 800 600">
  <path d="M572.331,158.514L574.027,298.619L544.962,296.194L529.581,321.874L520.741,343.353L527.765,351.458L516.623,362.077L520.499,376.427L511.779,390.812L508.388,403.481L520.256,401.497L527.28,414.791L527.644,434.755L539.996,444.866L539.633,453.168L518.319,459.028L501.243,472.88L476.901,510.174L445.293,525.922L412.716,523.846L403.27,526.96L406.661,538.944L389.101,550.859L374.81,564.086L332.424,577.071L324.068,569.374L318.497,568.742L312.2,577.473L284.467,580L289.674,570.81L279.138,547.407L274.415,533.299L259.761,527.536L239.9,507.633L247.167,491.513L262.547,494.982L271.993,492.554L290.764,492.901L272.477,461.811L273.688,438.998L271.509,416.19L258.066,394.141L261.457,377.832L239.9,377.071L239.9,354.804L225.973,341.942L240.506,296.076L283.377,263.058L285.193,217.203L298.151,145.022L305.418,129.615L291.37,117.27L290.885,105.813L278.29,96.471L270.055,39.999L303.964,20L438.148,89.744Z" fill="#000000"/>
</svg>