<svg xmlns="http://www.w3.org/2000/svg" viewBox="0 0 800 600">
  <path d="M430.294,522.347L430.294,565.209L442.428,565.243L449.292,565.777L445.533,573.801L435.81,580L430.213,579.354L423.512,577.725L415.26,571.745L403.371,568.856L389.071,557.866L377.509,547.45L361.861,526.122L371.217,530.075L387.151,542.795L402.227,549.706L408.069,540.883L411.746,527.873L422.205,520.135ZM419.427,20L424.983,28.115L426.495,36.75L432.46,41.835L428.864,53.519L434.993,67.154L439.446,84.04L447.617,82.353L449.006,85.438L445.084,98.299L432.746,104.431L433.113,125.368L430.744,129.441L434.135,134.429L426.127,142.356L418.691,154.429L414.606,166.213L415.709,178.881L408.723,192.462L413.952,215.624L416.894,218.103L416.853,230.668L410.357,244.123L410.643,255.791L402.063,264.995L402.104,278.075L405.536,292.129L398.754,297.423L395.69,310.516L393.034,325.758L394.954,344.208L390.379,347.317L393.034,365.181L398.182,371.122L394.423,377.744L399.694,380.912L400.919,386.927L395.935,389.963L397.161,399.434L393.034,421.147L386.988,435.425L388.336,444.007L384.74,454.891L376.038,462.519L377.019,481.168L381.023,487.638L388.581,486.486L388.336,500.022L393.034,510.688L420.489,513.157L430.989,516.073L420.898,515.947L415.423,520.513L405.209,527.268L403.371,545.038L398.55,545.494L385.762,539.265L372.77,526.059L358.634,515.382L355.079,503.727L358.307,493.089L352.587,481.168L351.116,451.364L355.978,434.997L367.949,422.046L350.708,417.221L361.535,402.732L365.375,376.085L377.999,381.665L383.923,349.292L376.324,345.218L372.77,364.52L365.62,362.33L369.175,340.31L373.056,312.493L378.244,302.422L374.976,288.23L374.077,272.057L378.857,271.6L385.803,248.856L393.647,226.773L398.468,206.557L395.853,186.582L399.244,175.724L397.855,159.617L404.515,143.894L406.557,119.323L410.193,93.386L413.748,65.916L412.931,46.076L410.561,29.168L416.403,26.114Z" fill="#000000"/>
</svg>