<svg xmlns="http://www.w3.org/2000/svg" viewBox="0 0 800 600">
  <path d="M463.486,578.637L453.317,574.594L452.961,563.311L459.07,557.368L472.628,553.665L479.72,553.977L482.485,559.017L477.044,564.799L474.189,572.36ZM101.57,227.762L100.589,218.157L109.063,213.738L97.913,183.803L122.442,176.79L128.82,172.876L137.74,140.683L162.313,146.667L169.226,138.422L169.806,119.887L180.063,118.115L189.518,105.584L194.379,104.01L197.635,117.196L208.027,127.068L225.687,134.009L234.25,148.724L229.478,169.668L233.938,177.327L248.656,180.332L265.335,182.796L280.32,193.645L287.947,195.578L293.611,211.377L300.88,221.444L314.527,221.045L340.127,224.835L356.584,222.5L368.803,225.006L387.133,235.169L402.118,235.141L407.604,240.312L422.054,231.359L442.034,225.546L460.631,224.921L475.081,218.987L484.001,209.906L492.653,204.147L490.646,198.472L486.677,191.825L493.188,180.57L500.146,182.143L512.901,185.696L525.254,176.403L544.119,169.548L553.218,157.733L561.914,152.613L579.932,150.226L589.699,152.246L591.037,145.805L579.843,133.012L569.897,127.1L560.353,133.947L548.133,131.076L541.131,133.386L537.92,125.844L546.706,107.123L552.727,92.72L567.578,99.95L585.061,87.826L584.927,79.28L596.121,58.337L603.034,51.928L602.855,40.765L596.077,35.893L606.29,25.649L621.676,21.926L638.133,21.363L656.641,27.54L667.523,35.096L675.194,55.528L679.832,64.096L684.158,76.203L688.752,95.19L710.293,101.305L724.966,114.751L729.961,132.232L748.826,132.263L759.529,124.964L780,119.444L773.489,136.125L768.717,142.816L764.435,162.585L756.14,179.827L741.066,176.731L730.451,182.914L733.707,197.8L731.923,217.985L725.59,218.443L725.679,226.995L717.696,217.068L712.746,226.513L693.613,233.703L695.575,242.469L684.827,241.853L678.985,236.661L670.467,248.385L656.819,257.199L646.696,267.611L629.391,272.276L620.293,279.793L606.914,284.139L613.514,276.733L610.928,270.478L620.739,259.597L614.183,251.026L603.391,256.812L589.387,268.103L581.76,278.467L569.63,279.252L563.297,286.669L569.853,297.371L579.977,299.951L580.378,306.971L590.19,311.532L604.06,300.376L615.075,306.47L623.059,306.866L625.065,315.026L607.538,319.346L601.741,327.654L589.699,335.312L583.366,345.943L596.701,354.226L601.562,368.898L609.099,382.411L617.528,393.646L617.305,404.421L609.545,408.352L612.489,416.01L619.803,420.465L617.885,432.044L614.719,443.223L607.806,444.484L598.752,459.626L588.718,477.769L577.211,494.099L560.175,506.617L542.96,517.978L529.001,519.524L521.419,525.467L517.137,521.113L510.136,527.776L492.831,534.461L479.72,536.489L475.483,550.492L468.615,551.274L465.359,541.662L468.302,536.534L451.667,532.273L445.825,534.438L433.337,530.963L427.45,525.535L429.413,517.818L418.085,515.36L412.108,510.297L401.583,517.477L389.497,519.024L379.641,518.955L372.996,522.248L366.574,524.199L368.447,539.459L361.846,539.099L360.731,535.971L360.33,530.467L351.276,534.348L345.88,531.889L336.693,526.871L340.305,515.748L332.456,513.127L329.512,500.679L316.445,502.928L317.917,486.776L329.646,475.323L330.137,463.929L329.78,453.28L324.384,449.943L320.236,441.676L313.011,442.724L299.631,440.603L303.824,434.679L298.026,425.869L289.195,431.852L278.804,428.371L264.488,437.382L253.249,447.833L243.259,449.588L237.818,445.815L231.262,445.483L222.432,442.224L215.742,445.791L207.536,456.185L206.51,445.174L198.928,448.118L184.479,446.765L170.475,443.533L160.44,437.358L150.807,434.56L146.659,427.746L139.657,425.724L127.17,416.423L117.224,412.004L112.096,415.428L94.881,405.374L82.705,396.206L79.227,380.098L88.146,382.063L88.548,374.56L83.597,366.963L84.846,354.784L71.556,337.09L51.174,330.92L47.517,319.11L38.375,311.874L36.145,307.42L34.271,298.489L34.717,292.353L27.18,288.764L23.122,290.346L20,275.62L23.523,271.922L21.784,268.157L33.647,260.506L42.21,257.309L55.322,259.515L60.005,249.053L75.882,247.104L80.297,240.565L99.831,231.557Z" fill="#000000"/>
</svg>