<svg xmlns="http://www.w3.org/2000/svg" viewBox="0 0 800 600">
  <path d="M601.436,395.237L595.21,399.347L588.625,379.696L579.406,369.164L568.392,380.597L503.621,379.865L504.1,400.698L523.495,404.132L522.418,416.854L515.713,413.421L497.036,418.881L496.917,443.085L511.643,455.187L516.791,474.271L516.072,488.685L501.107,580L484.465,562.282L474.528,561.492L495.959,527.552L470.458,512.001L450.583,514.874L438.491,509.072L420.173,517.917L395.391,513.748L375.876,478.832L360.431,470.274L349.776,454.568L327.747,438.807L318.887,441.959L304.64,434.079L288.238,423.103L278.779,428.394L250.644,423.778L242.503,409.424L236.277,409.987L202.994,390.958L198.564,380.653L210.896,378.176L209.459,361.504L217.241,349.447L233.763,347.193L247.771,326.281L260.462,308.798L248.25,300.842L254.476,281.478L247.053,250.96L254.116,242.192L248.849,213.878L235.439,196.016L239.749,179.723L250.405,182.165L256.631,172.166L248.968,152.374L253.039,147.478L270.159,148.503L295.182,125.024L308.83,121.43L309.189,110.297L315.295,81.701L334.331,65.997L355.283,65.366L357.917,58.308L384.017,61.121L410.117,44.004L423.167,36.413L439.21,20L450.943,22.075L459.682,31.06L453.217,42.509L431.906,48.2L423.406,65.137L410.596,74.827L400.898,87.427L396.827,111.554L387.609,131.24L404.849,133.52L409.039,148.959L416.462,156.358L418.976,169.893L415.025,182.336L416.223,189.319L424.484,192.1L432.385,203.844L475.127,200.611L494.402,204.865L517.868,233.646L531.277,230.079L555.222,231.891L574.138,228.041L585.991,233.816L580.005,251.809L572.582,263.06L569.948,286.956L576.653,309.136L586.111,319.007L587.188,326.507L570.427,343.079L582.399,350.405L591.259,362.067Z" fill="#000000"/>
</svg>