<svg xmlns="http://www.w3.org/2000/svg" viewBox="0 0 800 600">
  <path d="M713.053,329.44L642.01,346.215L642.674,421.493L681.183,449.305L653.961,471.421L660.601,505.212L645.33,543.089L636.034,580L535.778,538.671L498.597,499.528L519.843,466.998L512.54,425.919L461.415,381.018L389.045,344.316L325.97,320.259L313.354,265.462L264.886,232.18L276.837,286.69L240.32,331.339L197.827,279.404L138.735,261.026L113.505,222.985L114.833,166.196L138.735,106.81L86.947,80.432L129.44,44.181L157.326,20L278.829,69.622L320.658,45.135L379.75,61.037L410.291,99.502L464.735,112.211L508.556,72.166L555.032,174.131L626.739,249.616Z" fill="#000000"/>
</svg>