<svg xmlns="http://www.w3.org/2000/svg" viewBox="0 0 800 600">
  <path d="M180.37,49.022L191.998,40.689L216.868,54.422L286.309,55.193L302.782,28.648L318.285,30.346L344.124,20L358.012,59.049L379.006,47.633L415.826,34.051L456.199,53.959L472.026,84.025L512.399,103.283L543.728,80.327L585.716,76.936L647.083,100.357L670.984,229.635L633.195,305.657L609.617,407.664L648.698,485.358L644.499,520.885L603.803,521.952L541.144,504.268L483.653,505.335L377.391,521.038L315.055,546.945L226.234,580L208.793,577.716L215.899,503.506L224.296,492.221L221.712,456.676L183.6,418.967L155.178,412.858L129.016,388.107L148.395,348.049L139.351,304.279L143.55,277.933L157.762,277.933L163.252,238.379L156.147,220.888L164.867,208.302L198.135,197.4L175.849,124.684L155.178,86.953L162.606,56.118Z" fill="#000000"/>
</svg>