<svg xmlns="http://www.w3.org/2000/svg" viewBox="0 0 800 600">
  <path d="M404.108,20L435.546,37.793L509.852,99.149L591.66,126.641L628.813,105.186L652.748,160.272L684.543,200.683L646.318,253.458L601.306,222.358L532.715,224.261L447.334,200.921L400.893,204.021L379.459,233.293L344.092,200.921L323.014,259.143L371.599,324.468L393.391,367.338L438.761,418.812L476.628,448.942L514.139,505.887L602.02,557.196L590.946,580L497.706,530.206L440.19,481.266L349.45,440.609L266.213,339.486L286.219,328.929L240.849,270.501L239.063,223.072L175.117,200.921L144.751,261.511L115.457,214.505L117.601,165.545L121.173,163.388L190.478,168.179L208.697,144.195L242.278,167.461L281.217,170.095L280.86,130.491L315.512,116.041L325.158,58.217Z" fill="#000000"/>
</svg>