<svg xmlns="http://www.w3.org/2000/svg" viewBox="0 0 800 600">
  <path d="M210.317,173.887L271.137,179.33L326.636,180.237L392.778,206.24L420.654,234.113L486.542,225.604L511.377,243.387L570.93,290.409L614.772,324.583L638.086,323.561L679.9,338.888L674.832,360.183L726.782,363.24L780,394.02L771.637,411.536L724.755,421.045L677.366,424.719L628.963,418.89L528.103,426.113L575.238,384.362L546.602,364.768L501.24,359.801L476.912,337.994L460.187,295.023L420.4,297.969L354.765,277.581L333.731,261.655L241.994,249.952L217.412,235.144L243.768,216.056L174.585,212.182L124.155,251.753L95.012,252.782L84.875,271.291L49.903,279.635L20,272.446L56.999,248.922L72.204,221.476L104.135,204.561L140.12,189.559L193.338,182.309Z" fill="#000000"/>
</svg>