<svg xmlns="http://www.w3.org/2000/svg" viewBox="0 0 800 600">
  <path d="M339.39,73.492L394.001,132.458L479.641,148.133L472.608,198.041L535.079,235.206L552.041,188.572L631.062,208.72L641.818,264.943L727.458,275.841L780,363.431L746.075,363.731L728.285,395.416L701.807,403.17L694.36,443.025L672.02,451.33L669.124,467.621L629.82,485.652L578.933,482.699L562.798,521.017L509.842,488.31L455.645,497.162L366.696,443.916L326.151,456.961L261.198,528.367L175.972,472.354L111.018,396.908L52.684,354.442L40.272,279.471L20,226.082L103.571,186.738L146.184,141.682L228.928,106.576L257.888,71.633L288.089,92.678Z" fill="#000000"/>
</svg>