<svg xmlns="http://www.w3.org/2000/svg" viewBox="0 0 800 600">
  <path d="M630.149,313.449L635.557,341.215L632.636,356.902L638.585,374.447L655.997,391.346L672.22,429.574L660.432,426.491L620.091,431.578L611.979,435.228L603.435,454.629L610.141,468.08L604.841,504.194L601.164,534.943L609.276,540.399L630.257,552.362L638.477,546.795L640.964,580L618.036,579.739L605.706,562.78L594.567,549.656L571.53,545.39L564.825,529.283L546.439,538.995L522.429,534.683L512.371,520.774L493.336,517.922L479.168,518.7L477.545,509.165L467.163,508.388L453.427,506.576L434.825,511.185L421.739,510.408L414.384,513.206L416.007,476.851L405.948,465.554L403.677,446.854L408.111,428.546L402.055,416.836L401.514,397.752L365.067,398.008L367.662,387.094L352.305,387.196L350.682,392.473L332.08,393.652L324.618,411.292L320.075,418.889L303.42,414.628L293.578,418.889L273.678,421.303L262.213,405.444L255.292,395.65L246.639,377.518L239.285,355.011L150.6,354.602L140.001,358.232L131.349,357.669L118.911,361.709L114.693,352.353L122.372,349.185L123.345,336.006L128.212,328.246L139.136,321.918L147.031,324.98L157.305,313.449L173.745,313.755L175.583,322.275L186.831,327.633L204.568,308.757L221.981,294.024L229.659,284.394L228.578,259.645L241.664,230.436L255.4,214.973L275.192,200.479L278.653,190.868L279.41,179.885L284.277,169.461L282.762,152.426L286.44,125.774L292.388,107.05L301.365,90.965L303.095,72.784L305.799,51.787L317.479,36.486L333.594,26.79L358.361,36.996L377.504,48.116L399.459,51.124L421.847,56.987L430.824,38.782L434.933,36.435L448.669,39.496L482.088,24.442L493.985,30.822L503.718,29.904L508.153,22.604L519.401,20L542.005,23.166L561.256,23.88L571.098,20.664L589.375,45.566L602.786,49.187L610.898,44.138L624.741,46.127L641.505,39.751L648.643,52.603L675.032,72.631L673.302,107.814L685.307,111.885L675.681,122.569L664.109,130.556L652.645,146.222L646.264,160.155L644.641,184.309L637.612,195.75L637.395,218.431L628.743,226.824L627.661,244.682L623.552,247.023L620.74,263.463L628.31,277.11Z" fill="#000000"/>
</svg>