<svg xmlns="http://www.w3.org/2000/svg" viewBox="0 0 800 600">
  <path d="M640.779,155.317L652.85,222.376L625.532,279.737L529.284,372.244L423.188,407.082L369.188,483.984L352.352,543.584L302.481,580L265.634,535.345L229.739,525.759L193.527,532.798L190.986,500.452L216.08,479.344L205.598,442.532L252.61,376.43L233.551,337.864L199.88,378.971L147.15,340.255L164.939,315.298L150.009,235.221L180.821,221.928L197.339,166.966L230.692,110.066L224.339,74.072L272.94,55.253L333.293,20L421.6,70.488L438.118,68.994L459.718,107.079L534.366,119.325L559.461,105.287L602.979,134.409Z" fill="#000000"/>
</svg>