<svg xmlns="http://www.w3.org/2000/svg" viewBox="0 0 800 600">
  <path d="M716.646,580L510.109,580L308.258,580L98.91,580L98.91,370.42L98.91,161.731L83.354,113.473L96.661,76.202L88.602,50.228L107.532,21.034L176.689,20L226.918,36.114L278.458,54.136L302.635,63.589L342.743,44.257L364.109,26.823L410.027,21.758L447.136,29.508L461.193,59.686L473.375,39.826L514.982,54.239L555.652,57.631L581.329,42.299L610.379,130.448L615.439,145.958L600.82,170.006L589.575,214.82L575.519,245.581L563.336,255.835L545.906,236.807L522.479,210.513L485.37,125.066L479.934,130.448L501.488,193.458L533.537,252.85L572.895,343.773L592.011,375.209L608.879,407.766L655.547,471.087L645.239,481.01L646.925,517.886L707.462,568.492Z" fill="#000000"/>
</svg>