<svg xmlns="http://www.w3.org/2000/svg" viewBox="0 0 800 600">
  <path d="M754.769,359.718L619.611,504.187L557.283,506.299L514.755,540.165L484.108,541.057L471.023,556.152L438.309,556.152L419.025,539.921L375.293,559.965L361.174,580L329.322,576.188L318.647,570.673L307.455,571.971L292.476,571.484L231.87,530.747L198.64,530.747L182.283,514.992L182.283,488.012L157.318,479.962L129.081,427.62L107.214,416.453L98.95,397.205L74.673,373.692L45.231,370.261L61.588,342.708L86.898,341.563L94.129,326.747L93.44,283.211L107.559,232.395L130.286,218.716L135.107,198.835L155.596,161.552L184.521,137.274L203.805,88.908L211.553,46.528L267.166,56.888L282.145,20L311.071,42.432L339.136,30.803L350.672,41.178L383.557,41.763L425.224,61.563L437.448,78.578L458.798,94.403L478.426,123.166L494.783,139.016L477.91,160.641L461.725,183.554L465.513,197.019L466.202,211.872L492.889,212.697L504.425,209.233L515.1,217.975L504.597,235.195L522.331,261.934L539.893,285.345L558.144,302.574L714.652,360.045Z" fill="#000000"/>
</svg>