<svg xmlns="http://www.w3.org/2000/svg" viewBox="0 0 800 600">
  <path d="M456.823,91.329L453.486,134.984L488.085,175.297L467.244,219.476L493.539,283.764L478.315,330.252L498.668,369.483L489.468,402.954L522.928,437.348L514.38,462.393L493.376,490.258L445.019,550.14L403.989,553.789L364.18,570.445L327.383,580L314.276,555.184L292.377,540.157L297.425,493.896L286.434,450.216L297.262,421.229L317.777,389.399L369.472,332.781L384.532,321.548L382.253,298.629L350.748,272.607L343.177,250.791L342.525,161.003L307.275,119.429L277.072,88.755L290.668,71.911L315.823,105.397L345.293,102.318L369.553,117.433L391.126,89.614L402.279,42.376L437.367,20L466.348,46.255Z" fill="#000000"/>
</svg>