<svg xmlns="http://www.w3.org/2000/svg" viewBox="0 0 800 600">
  <path d="M116.643,559.553L110.909,568.448L107.937,575.624L104.196,579.309L99.546,580L98.217,577.269L96.049,576.858L93.042,579.49L88.812,577.483L91.294,573.403L92.133,568.958L93.847,564.776L90.036,558.993L89.266,552.331L94.301,543.944L97.623,545.018L104.755,547.33L115.034,555.563ZM678.428,45.612L683.008,49.522L696.993,52.259L692.098,62.316L690.875,72.654L688.182,75.113L683.777,73.799L684.092,77.443L676.994,85.446L676.819,91.822L681.469,89.631L684.791,95.783L684.406,99.724L687.273,104.932L683.882,109.13L686.399,119.688L691.679,121.407L690.56,127.249L681.749,134.806L662.589,131.195L648.464,135.527L647.346,143.477L636.088,145.191L625.144,139.232L621.613,142.072L603.747,136.067L599.866,130.878L604.901,122.826L606.754,95.452L596.719,80.635L589.552,73.385L574.728,67.834L573.749,57.18L586.335,53.961L602.628,57.752L599.551,40.918L608.746,47.355L631.333,35.629L634.269,23.111L642.765,20L644.164,25.404L648.674,25.664L653.184,31.799L659.967,38.955L664.967,37.78L673.463,44.625L675.631,45.941ZM703.286,141.446L709.545,136.382L711.188,147.7L707.971,157.75L703.566,155.117L701.328,146.324Z" fill="#000000"/>
</svg>