<svg xmlns="http://www.w3.org/2000/svg" viewBox="0 0 800 600">
  <path d="M370.28,25.714L412.463,20L466.47,31.879L518.879,20.451L530.063,25.263L523.352,64.051L548.279,109.892L614.429,102.679L636.479,120.262L598.131,223.036L639.994,275.623L649.901,344.895L638.396,403.966L611.233,445.916L532.939,442.157L485.644,399.607L478.294,438.849L418.535,449.826L388.176,472.086L421.73,530.918L353.983,580L262.906,490.289L204.106,416.896L150.099,325.209L152.976,295.757L172.469,267.359L193.88,202.753L211.776,136.942L241.815,131.683L370.92,132.584Z" fill="#000000"/>
</svg>