<svg xmlns="http://www.w3.org/2000/svg" viewBox="0 0 800 600">
  <path d="M564.987,116.065L575.494,154.995L562.853,175.313L579.434,202.124L590.761,242.06L587.15,267.588L605.865,314.257L585.508,321.87L573.524,313.519L562.032,327.384L529.199,341.315L512.29,359.193L479.128,374.805L487.172,395.99L492.097,425.74L515.245,442.59L541.019,472.528L524.931,504.303L508.514,513.014L515.081,557.392L510.812,568.828L496.53,554.986L474.696,552.922L442.027,565.058L401.806,562.2L395.403,580L372.256,561.285L358.63,565.058L309.708,544.31L300.351,558.996L261.608,558.538L267.354,509.997L290.337,462.774L224.67,449.922L203.164,431.564L205.791,400.667L196.598,384.692L201.851,336.189L194.135,259.726L221.551,259.726L233.043,231.869L244.37,162.983L235.998,137.145L244.863,120.892L282.949,116.718L291.486,133.641L322.349,95.635L312.007,66.337L309.873,21.614L344.348,32.083L373.569,20L374.226,50.522L420.357,68.855L419.864,96.555L466.323,81.943L491.933,60.498L543.317,91.297Z" fill="#000000"/>
</svg>