<svg xmlns="http://www.w3.org/2000/svg" viewBox="0 0 800 600">
  <path d="M584.861,550.451L576.863,573.446L485.461,580L486.147,567.147L408.683,552.031L420.565,518.911L455.298,545.184L504.655,540.703L551.956,546.238L550.357,559.79ZM373.036,61.508L420.108,63.94L470.837,40.722L515.624,70.229L573.207,62.223L573.893,20L604.741,42.588L585.089,95.315L570.008,104.836L531.391,102.422L498.257,94.462L421.48,116.323L465.353,163.163L433.133,176.635L397.943,176.775L364.353,133.863L352.471,152.194L366.638,201.669L398.4,240.194L374.407,258.047L409.826,295.649L441.131,319.079L442.045,364.576L383.319,343.234L402.057,384.22L361.84,392.6L385.833,462.56L343.788,463.628L291.688,429.225L267.924,365.39L256.727,311.827L232.049,274.468L199.372,227.844L195.259,204.459L224.736,164.287L228.392,137.252L249.186,125.242L250.329,103.274L291.917,95.742L316.139,77.368L350.414,79.079L360.926,64.369Z" fill="#000000"/>
</svg>