<svg xmlns="http://www.w3.org/2000/svg" viewBox="0 0 800 600">
  <path d="M135.952,470.629L139.276,430.929L154.473,399.037L135.952,373.36L199.114,261.823L368.656,261.358L371.981,214.614L350.61,206.233L335.888,176.414L286.972,144.694L238.057,98.444L297.42,98.21L297.895,20.235L420.896,20L542.947,21.642L541.997,131.155L531.549,286.441L570.966,286.441L613.708,311.269L625.106,290.851L664.048,308.254L603.735,360.397L541.522,398.806L532.024,424.923L542.472,451.709L514.927,486.311L484.058,494.84L491.182,510.739L466.487,525.939L421.371,560.227L417.097,580L349.66,556.316L267.026,553.786L206.713,526.86Z" fill="#000000"/>
</svg>