<svg xmlns="http://www.w3.org/2000/svg" viewBox="0 0 800 600">
  <path d="M168.851,20.884L219.092,21.968L294.08,47.963L316.951,45.618L324.825,33.705L381.441,42.189L396.438,36.232L402.437,75.197L418.934,75.017L446.305,60.952L463.552,64.379L492.422,91.416L537.04,100.063L565.535,76.999L599.28,62.756L624.401,47.783L645.022,50.489L668.268,73.935L680.641,103.305L723.384,147.934L702.013,175.254L697.889,209.73L720.01,199.319L733.133,211.704L727.509,243.272L759.378,273.735L738.757,281.973L730.133,317.768L754.129,361.567L780,445.981L741.381,458.636L731.258,473.247L739.507,493.551L733.133,539.467L716.635,539.467L687.39,536.799L666.019,579.116L636.774,578.583L616.152,556.184L623.276,514.024L579.783,449.546L552.412,461.487L530.291,463.804L501.421,469.862L502.546,431.182L486.048,403.53L489.423,373L466.926,328.499L437.681,290.746L354.445,290.567L330.074,310.612L301.579,312.938L283.582,335.83L271.584,364.962L216.093,411.381L170.35,349.059L129.857,307.57L103.236,293.968L77.366,272.839L65.368,226.057L49.995,202.73L20,185.314L66.117,133.545L97.612,135.523L124.983,117.709L147.854,117.529L164.351,103.485L155.353,68.166L166.976,56.984Z" fill="#000000"/>
</svg>