<svg xmlns="http://www.w3.org/2000/svg" viewBox="0 0 800 600">
  <path d="M591.325,530.384L572.376,533.178L528.823,526.526L503.369,547.412L467.734,561.246L442.847,564.572L434.362,580L395.616,576.143L347.255,539.298L341.599,502.842L321.519,463.047L333.962,396.195L355.739,368.344L337.922,331.814L310.772,319.81L320.953,285.251L302.853,267.095L261.844,270.566L208.675,210.713L229.886,188.917L228.472,152.384L276.834,139.664L296.348,124.929L269.48,95.442L276.268,66.601L338.488,20L390.243,49.15L438.604,100.805L440.867,141.539L470.563,143.413L512.702,182.094L543.529,209.51L531.085,280.579L483.289,301.132L487.532,319.676L473.108,360.347L507.894,417.509L533.065,417.642L543.529,461.982Z" fill="#000000"/>
</svg>