<svg xmlns="http://www.w3.org/2000/svg" viewBox="0 0 800 600">
  <path d="M780,237.106L738.121,234.531L721.369,251.907L678.608,268.415L647.749,268.415L620.858,284.698L596.172,278.914L575.452,259.626L562.668,263.271L546.798,293.479L534.896,292.408L533.132,318.307L490.371,353.157L467.889,368.111L455.104,383.911L418.956,358.285L392.506,392.021L366.937,391.167L338.283,394.155L340.928,455.97L322.854,457.035L307.425,485.767L269.513,491.085L248.353,451.711L211.323,440.848L219.698,390.314L202.947,376.652L177.819,367.684L124.037,382.63L119.629,365.762L82.599,345.464L56.148,320.232L20,309.534L45.568,277.415L35.87,252.55L44.687,228.307L102.436,192.654L158.422,144.252L171.206,149.204L198.097,126.805L232.923,125.081L244.385,135.422L263.341,129.175L320.209,140.591L376.636,137.361L416.311,123.142L430.418,108.915L469.652,115.598L498.747,124.219L530.928,121.202L555.174,110.209L611.16,127.882L630.557,130.683L668.028,154.37L703.295,182.766L747.819,202.324Z" fill="#000000"/>
</svg>