<svg xmlns="http://www.w3.org/2000/svg" viewBox="0 0 800 600">
  <path d="M706.858,89.24L772.013,137.058L780,184.034L708.54,220.207L653.473,337.144L582.854,452.604L489.115,484.311L416.394,476.894L326.858,521.024L283.142,546.269L186.881,513.92L99.447,441.725L62.456,420.789L39.757,363.184L20,361.45L58.673,250.972L36.394,213.454L101.969,212.866L110.796,141.797L170.066,186.391L213.363,205.52L311.305,184.034L320.553,149.195L367.212,143.869L423.96,116.596L436.571,127.871L491.217,105.902L518.96,64.488L557.212,53.731L682.058,107.388Z" fill="#000000"/>
</svg>