<svg xmlns="http://www.w3.org/2000/svg" viewBox="0 0 800 600">
  <path d="M671.265,179.075L672.608,187.091L666.093,190.946L667.638,203.891L654.273,200.093L630.162,214.542L630.699,226.445L620.424,243.81L619.483,253.837L611.155,270.704L596.581,266.04L595.843,287.122L591.611,294.01L593.626,302.588L584.425,307.362L574.552,275.258L569.448,275.327L566.359,288.288L556.15,277.773L561.926,266.178L570.254,265.002L578.851,247.644L568.105,244.124L550.844,244.403L533.047,241.576L531.435,227.218L522.502,226.164L507.727,217.188L501.145,231.289L514.577,242.239L502.958,249.907L498.794,257.379L510.279,262.89L507.122,275.189L513.57,290.448L516.458,307.055L513.839,314.404L501.145,314.167L478.109,318.31L479.183,333.373L469.243,345.134L442.379,358.492L421.492,381.687L407.455,394.071L388.918,406.873L388.851,415.81L379.583,420.617L362.725,427.585L354.062,428.603L348.42,443.35L352.315,468.43L353.323,484.337L345.398,502.483L345.331,534.803L335.659,535.734L327.197,550.159L332.839,556.4L315.847,561.772L309.601,574.578L302.079,580L284.415,562.379L275.819,535.894L268.632,516.735L262.118,507.744L252.178,489.39L247.544,465.405L244.32,453.38L227.328,426.83L219.605,389.03L214.03,363.847L214.097,339.815L210.471,321.125L183.337,333.069L170.174,330.704L145.861,306.408L154.794,299.106L149.287,291.168L127.392,273.948L139.817,260.292L180.92,260.361L177.159,242.728L166.681,232.235L164.599,216.236L152.376,206.868L172.927,184.839L194.621,186.448L214.097,164.184L225.783,142.459L243.917,120.732L243.648,105.168L259.498,92.436L244.454,81.502L238.007,66.424L231.358,46.76L240.559,36.986L268.834,42.512L289.654,39.137L307.653,20L327.667,46.646L325.787,64.986L333.242,76.426L332.637,87.726L319.205,84.766L324.443,109.024L342.779,122.83L368.703,137.97L356.882,147.738L349.629,167.754L367.695,175.81L385.292,186.162L409.604,197.996L435.193,200.697L445.938,211.362L460.378,213.341L482.81,218.211L498.324,217.858L500.473,209.594L498.056,196.289L499.466,187.198L510.883,182.764L512.428,199.347L512.831,203.572L529.756,211.503L541.509,208.249L557.225,209.629L572.47,209.028L573.814,196.147L566.224,189.412L581.269,186.769L598.193,171.03L619.752,157.461L635.401,162.704L648.699,153.693L657.43,166.961L651.116,175.882Z" fill="#000000"/>
</svg>