<svg xmlns="http://www.w3.org/2000/svg" viewBox="0 0 800 600">
  <path d="M779.462,302.283L779.761,356.577L780,411.189L765.225,397.39L748.356,394.037L744.228,398.811L723.172,399.323L730.231,385.662L740.699,381.01L736.392,362.827L728.376,348.806L696.194,334.69L682.495,333.28L657.551,317.887L652.645,325.976L646.245,327.442L642.476,321.353L642.416,314.111L629.735,305.944L647.621,299.947L659.465,300.256L658.089,295.865L633.743,295.837L627.163,285.932L612.327,282.865L605.329,274.623L627.701,270.601L636.195,265.201L662.874,272.008L665.506,278.196L670.172,305.071L687.34,315.041L701.218,297.385L720.301,287.367L735.076,287.339L749.313,293.136L761.636,299.102ZM513.088,407.402L514.763,410.733L515.062,415.834L504.235,428.419L489.998,432.134L488.024,430.105L489.519,424.363L496.638,414.095ZM666.643,373.896L665.028,361.3L667.959,355.305L671.429,349.653L675.197,354.542L675.197,362.516ZM395.304,190.247L385.853,205.269L398.056,221.037L395.185,228.691L413.848,244.051L394.168,246.02L388.604,257.355L389.322,272.401L373.351,283.766L372.932,300.341L366.531,325.778L364.079,319.859L345.176,327.357L338.596,317.182L326.752,316.224L318.437,310.9L298.697,316.872L292.655,308.844L281.768,309.745L268.069,307.83L265.497,285.51L257.242,280.896L249.226,266.692L246.953,252.152L248.867,236.738L258.738,225.708L261.549,236.822L272.915,246.217L283.622,242.814L294.21,244.023L303.901,235.612L311.857,234.15L327.589,238.819L341.108,235.275L349.662,212.14L356.063,206.367L361.806,187.427L380.888,187.427ZM586.246,305.634L604.491,310.478L610.533,323.213L596.535,316.337L582.657,314.956L573.266,316.055L561.78,315.463L565.669,306.31ZM544.732,322.086L533.247,319.042L530.017,311.886L546.826,311.069L550.953,316.562ZM562.319,222.922L563.515,231.983L573.325,233.446L574.881,240.226L573.983,254.767L565.429,253.136L562.917,263.233L569.736,272.008L565.07,274.005L558.371,263.486L553.466,242.251L556.815,228.973ZM479.17,244.501L498.253,243.798L514.703,231.73L517.574,235.444L504.235,251.955L491.732,255.133L475.761,251.898L448.065,252.714L433.529,255.105L431.196,267.676L446.031,282.472L455.004,274.933L485.99,269.279L484.674,276.93L477.436,274.511L470.198,284.272L455.542,290.715L471.274,312.027L468.283,317.746L483.178,336.976L483.059,347.93L474.205,352.818L467.685,346.97L475.701,333.308L459.37,339.77L455.243,335.142L457.396,328.711L445.433,318.957L446.689,302.734L435.562,307.774L436.998,327.188L437.656,351.066L427.128,353.468L420.009,348.58L424.735,333.223L422.163,317.154L415.164,317.041L410.02,305.634L416.899,294.74L419.292,281.543L427.606,256.483L431.076,249.648L445.253,237.3L458.234,242.195ZM435.383,430.419L413.37,418.599L428.863,415.292L437.596,420.425L443.399,425.563L442.382,430.105ZM452.79,401.427L463.857,400.147L478.752,394.008L476.299,403.333L451.355,408.114L429.222,406.036L429.222,399.891L442.382,396.395ZM401.585,398.498L411.874,397.134L416.002,404.271L396.8,407.658L385.255,409.907L376.342,409.765L382.024,400.09L391.177,399.948L395.603,394.008ZM239.177,365.997L241.45,371.942L273.333,373.613L276.982,366.704L307.789,374.746L313.831,385.605L338.775,388.67L359.174,398.64L340.211,405.04L321.906,398.271L306.892,398.726L289.664,397.475L274.111,394.463L254.849,388.074L242.646,386.4L235.707,388.5L205.439,381.606L202.567,374.406L187.314,373.16L198.739,357.199L218.898,358.189L232.298,364.723ZM170.804,277.071L173.615,288.661L179.418,297.948L191.621,299.412L199.696,309.942L195.509,330.657L194.851,356.464L176.427,356.803L162.429,342.847L141.133,329.247L134.015,319.155L121.453,305.606L113.198,293.136L100.516,269.87L85.921,256.005L81.075,241.717L74.914,228.747L59.959,218.278L51.285,204.029L38.783,194.73L21.436,176.338L20,167.866L30.648,168.544L56.37,171.764L71.085,188.048L83.946,199.352L93.099,206.283L108.831,224.161L125.76,224.414L139.698,235.809L149.329,249.733L161.95,257.326L155.311,270.883L164.822,276.649Z" fill="#000000"/>
</svg>