<svg xmlns="http://www.w3.org/2000/svg" viewBox="0 0 800 600">
  <path d="M234.553,404.161L216.846,384.583L216.498,364.708L206.198,364.708L211.522,337.438L194.971,308.6L155.62,287.639L133.283,250.969L140.806,220.582L156.894,207.044L154.463,184.017L133.399,172.138L112.566,124.368L94.974,91.895L101.34,79.236L91.271,31.859L113.261,20L118.353,35.731L134.672,54.875L156.662,60.321L168.352,59.135L206.198,28.546L218.234,25.442L227.725,37.7L216.73,58.158L236.752,79.652L244.738,77.641L254.923,107.729L285.362,116.162L307.699,136.363L353.416,143.293L403.646,132.688L406.771,123.207L435.011,115.409L457.811,92.171L479.338,93.344L493.458,85.745L516.258,89.547L551.905,110.131L577.483,114.587L614.288,150.208L638.245,151.63L641.023,185.155L627.945,234.064L619.149,262.3L633.153,267.984L619.38,289.002L629.912,319.483L632.459,343.509L656.763,349.889L659.425,374.026L630.26,407.801L646.116,427.195L659.078,449.406L689.864,465.501L690.674,497.495L706.068,503.373L708.729,519.982L662.435,538.527L650.282,580L589.751,569.233L554.683,561.034L518.457,556.446L504.8,512.419L489.407,506.003L464.639,512.48L432.233,529.903L392.998,517.971L360.476,490.196L329.574,479.869L308.047,445.185L284.32,395.927L267.076,401.963L246.59,389.629Z" fill="#000000"/>
</svg>