<svg xmlns="http://www.w3.org/2000/svg" viewBox="0 0 800 600">
  <path d="M313.976,32.874L338.065,41.1L342.627,30.028L381.683,20L390.521,40.122L447.253,55.056L442.834,83.264L452.384,107.394L420.882,99.147L388.668,119.247L390.806,147.081L385.96,162.933L398.931,191.141L436.134,218.829L456.09,263.674L500.136,306.845L531.068,306.574L540.76,318.27L529.642,328.852L565.135,347.959L594.214,363.772L628.139,390.965L632.273,400.713L624.86,419.169L602.909,395.008L568.414,386.477L551.879,419.954L580.387,439.005L575.683,465.713L559.148,468.726L538.052,512.006L521.517,515.915L521.66,500.509L529.785,473.37L538.337,462.526L522.943,432.927L510.827,406.934L494.434,400.45L482.746,378.013L457.231,368.555L440.126,347.425L410.762,344.039L379.83,320.156L343.625,285.51L316.684,254.534L304.425,200.551L284.755,194.218L252.54,175.989L234.295,183.48L211.345,209.007L194.953,212.995L199.514,189.18L177.991,182.171L167.727,139.126L181.554,122.013L169.866,100.779L171.434,84.711L188.539,96.842L207.639,94.15L229.876,74.857L236.718,83.94L255.533,82.106L264.086,58.948L293.45,66.234L310.84,56.516ZM485.026,504.09L515.103,499.741L500.849,539.2L506.693,554.615L498.425,580L468.064,561.418L447.965,556.044L392.802,530.75L398.218,504.942L444.544,509.539ZM245.413,362.62L265.226,346.356L288.888,383.481L283.329,451.736L265.369,448.449L249.262,465.455L234.295,451.995L232.727,389.821L223.604,359.959Z" fill="#000000"/>
</svg>