<svg xmlns="http://www.w3.org/2000/svg" viewBox="0 0 800 600">
  <path d="M532.576,279.713L504.848,318.527L505.281,357.766L494.016,387.762L499.216,406.415L483.51,432.434L445.059,449.696L392.201,451.924L349.309,493.405L329.163,479.517L327.863,452.295L275.547,460.327L239.912,477.493L204.71,478.168L235.255,504.738L215.108,565.229L195.72,580L181.098,566.363L188.571,534.402L169.508,524.021L157.268,499.442L185.755,488.334L201.461,465.567L231.788,446.66L253.776,421.579L313.674,410.496L345.843,418.077L377.362,351.627L397.4,369.624L441.593,331.775L458.706,316.972L477.553,269.709L472.462,225.566L485.135,200.377L517.087,193.057L533.551,248.061ZM614.678,87.344L636.016,69.594L642.732,116.393L598.106,127.696L571.678,168.236L524.453,140.404L507.989,184.765L474.628,185.377L470.404,145.11L485.351,113.454L517.412,111.143L526.186,53.222L535.176,20L570.486,64.316L593.557,78.414ZM246.411,493.405L263.091,471.843L280.205,476.02L292.553,460.759L314.649,468.583L318.44,481.05L301.543,502.852L289.195,491.328L273.706,499.686L265.799,520.694L246.194,510.511Z" fill="#000000"/>
</svg>