<svg xmlns="http://www.w3.org/2000/svg" viewBox="0 0 800 600">
  <path d="M780,281.357L765.816,300.157L750.427,302.815L749.557,330.622L739.187,342.99L702.321,334.014L688.939,382.311L679.371,388.183L642.572,398.703L659.299,443.612L646.587,450.241L648.059,464.651L636.618,460.944L627.251,451.873L599.685,449.21L568.841,448.522L562.15,451.315L535.655,440.633L525.083,445.897L522.206,460.858L491.63,452.13L479.386,455.73L475.237,466.778L464.599,471.404L440.044,488.771L431.948,506.368L424.99,506.533L419.905,494.881L396.287,494.087L392.473,473.734L383.44,473.564L384.845,448.264L362.565,429.615L330.717,431.616L308.906,435.351L291.175,412.059L275.987,402.208L247.15,383.343L243.671,381.053L195.832,396.658L196.568,490.615L187.068,491.829L174.021,472.336L161.442,465.289L140.366,470.514L132.137,478.846L131.133,472.76L135.683,462.308L132.137,453.502L110.592,444.819L102.229,421.803L91.925,415.226L91.323,406.766L109.388,409.239L110.124,390.06L125.914,385.765L142.173,389.703L145.518,363.737L142.173,347.044L123.572,348.331L107.782,341.698L86.305,353.652L68.976,359.319L59.475,354.934L61.416,340.959L49.573,322.599L35.723,323.394L20,304.522L30.705,283.138L25.286,277.355L40.139,245.655L59.208,262.449L61.549,241.251L99.887,209.005L128.925,208.244L169.872,228.854L191.885,240.755L211.623,228.353L241.062,227.753L264.881,242.984L270.233,234.294L296.394,235.539L301.011,221.532L270.902,200.963L288.767,186.18L285.287,177.845L303.085,169.876L289.703,148.546L298.201,137.778L367.717,126.76L376.817,118.855L423.317,106.963L440.044,93.467L473.431,100.48L479.319,133.758L498.722,126.004L522.541,136.868L521.002,154.003L538.866,152.258L585.434,122.38L578.609,132.361L602.361,156.697L643.844,233.597L653.746,218.109L679.371,235.141L706.067,227.603L716.371,232.899L725.27,249.799L738.25,255.452L746.212,267.711L770.165,263.864Z" fill="#000000"/>
</svg>