<svg xmlns="http://www.w3.org/2000/svg" viewBox="0 0 800 600">
  <path d="M472.96,580L394.068,525.007L390.312,493.066L191.203,381.155L181.91,375.112L181.317,316.823L197.135,294.606L224.223,258.254L244.193,218.173L219.873,155.086L213.546,127.524L187.447,89.229L221.257,56.403L258.43,20L287.1,29.244L287.1,60.228L305.883,78.321L344.044,78.321L413.643,125.103L430.845,125.661L443.697,124.171L455.956,130.505L492.535,134.882L508.748,111.874L558.97,88.856L581.115,107.495L618.683,107.495L570.636,169.886L571.229,369.998L603.854,415.374L565.297,437.325L551.852,460.211L531.289,464.306L523.38,503.028L505.782,525.193L495.105,561.816Z" fill="#000000"/>
</svg>