<svg xmlns="http://www.w3.org/2000/svg" viewBox="0 0 800 600">
  <path d="M125.422,210.713L141.134,168.868L187.509,155.233L303.321,188.292L314.218,131.624L354.258,111.685L454.612,152.145L479.953,141.567L596.779,144.173L701.187,154.258L736.666,188.615L780,202.657L770.117,224.221L659.12,275.407L634.031,312.566L543.815,323.638L517.206,383.085L442.701,370.551L394.045,388.717L326.636,432.194L336.519,453.588L316.499,474.601L183.201,488.315L96.279,458.693L20,465.802L26.589,413.064L103.374,428.31L128.97,399.966L182.694,409.013L272.658,342.414L189.283,293.221L139.106,316.522L87.156,281.139L146.455,220.043Z" fill="#000000"/>
</svg>