<svg xmlns="http://www.w3.org/2000/svg" viewBox="0 0 800 600">
  <path d="M619.461,559.474L564.624,535.995L536.536,580L485.488,554.933L505.551,526.137L508.226,471.849L458.293,415.697L454.28,351.825L407.245,298.979L360.432,294.564L347.949,317.172L311.614,319.045L293.112,307.583L227.797,346.441L226.46,288.049L241.618,219.019L199.71,216.017L196.143,176.472L169.393,156.139L182.545,131.73L235.376,88.59L240.949,104.227L273.941,106.026L264.578,29.748L296.678,20L332.791,72.701L360.655,133.075L436.893,133.636L460.968,191.193L421.289,208.454L403.455,232.016L477.686,271.136L529.18,348.2L568.19,405.202L615.003,450.071L630.607,495.545Z" fill="#000000"/>
</svg>