<svg xmlns="http://www.w3.org/2000/svg" viewBox="0 0 800 600">
  <path d="M686.135,484.505L686.135,563.414L643.647,563.547L643.248,580L496.131,504.601L349.013,428.134L311.836,450.062L285.679,464.946L264.965,443.011L206.676,425.685L190.477,400.444L161.399,381.603L144.138,389.079L130.993,366.412L129.532,348.964L107.757,319.097L122.362,301.897L119.176,275.944L123.956,253.229L121.167,234.155L127.673,199.899L125.682,180.306L113.732,142.729L131.79,132.811L134.976,114.651L130.993,96.85L156.353,80.145L167.772,66.244L185.697,53.699L187.822,20L231.107,35.178L246.642,31.389L277.446,38.667L326.309,58.205L343.57,96.85L376.764,105.177L428.68,123.233L467.982,144.464L486.04,133.391L503.699,113.632L495.069,80.585L506.62,59.386L533.176,38.89L558.669,32.95L608.461,41.93L621.074,61.452L634.883,61.6L646.568,69.043L683.214,74.193L692.243,88.506L678.833,109.188L684.542,127.589L675.115,153.994L686.135,188.183L686.135,336.028Z" fill="#000000"/>
</svg>