<svg xmlns="http://www.w3.org/2000/svg" viewBox="0 0 800 600">
  <path d="M504.321,37.147L514.704,54.118L524.386,80.547L530.7,128.92L540.802,147.768L536.874,167.207L529.998,179.139L516.809,155.36L509.373,167.344L516.809,197.415L513.442,214.629L502.638,224.079L500.112,258.67L484.818,306.609L465.596,363.685L441.462,443.068L426.589,501.944L409.05,551.55L377.34,561.745L343.244,580L320.794,568.966L289.926,553.587L279.122,530.928L276.596,493.084L262.846,459.286L259.198,428.958L266.213,398.713L284.173,391.494L284.313,377.574L302.975,346.102L306.483,319.677L297.362,300.119L290.066,274.219L286.839,236.513L300.449,213.664L305.781,187.859L325.144,186.348L346.892,178.041L361.344,170.703L378.462,170.223L400.631,147.153L432.763,122.305L444.409,102.082L439.077,84.891L455.633,89.712L477.101,61.904L477.943,37.822L490.852,20Z" fill="#000000"/>
</svg>