<svg xmlns="http://www.w3.org/2000/svg" viewBox="0 0 800 600">
  <path d="M20,195.742L26.878,188.622L59.404,206.112L62.557,226.703L88.778,221.896L101.817,205.435L110.988,209.229L134.487,233.336L151.109,260.124L153.401,287.02L149.246,305.185L153.115,318.886L155.98,342.432L170.023,353.424L185.641,388.681L184.925,402.091L156.697,404.786L119.012,375.268L71.87,343.646L67.285,323.34L44.216,296.677L38.771,263.639L24.442,241.863L28.741,212.684ZM728.273,288.776L693.741,282.021L648.032,282.021L634.276,327.389L618.944,341.218L598.454,396.633L566.071,405.123L528.386,393.937L509.329,397.442L486.116,417.588L460.754,414.691L435.106,422.844L407.881,400.339L401.146,373.718L430.377,387.333L461.041,379.919L469.065,346.209L486.116,338.655L533.831,330.02L562.345,298.5L581.976,273.237L600.03,293.976L608.341,280.332L627.398,281.615L629.691,256.135L631.554,236.45L662.217,208.619L682.278,177.292L698.326,177.156L718.816,197.437L720.679,214.852L746.9,226.026L780,238.006L777.134,253.7L750.483,255.661L757.647,275.197Z" fill="#000000"/>
</svg>