<svg xmlns="http://www.w3.org/2000/svg" viewBox="0 0 800 600">
  <path d="M129.382,494.431L131.056,483.016L127.965,468.79L114.573,458.464L107.619,437.4L105.945,414.407L117.921,407.71L123.973,385.888L135.306,385.009L160.288,395.364L180.505,388.023L194.284,390.47L199.692,382.245L343.146,381.679L351.13,355.624L344.949,351.02L327.694,188.191L310.438,20.668L365.167,20L485.828,105.355L606.489,189.355L614.988,207.245L637.266,218.134L653.877,224.31L654.264,248.441L693.926,244.725L694.055,331.373L674.481,356.254L671.391,379.166L639.584,385.071L590.778,388.274L577.643,401.445L554.722,402.886L531.8,403.074L522.786,395.928L503.083,401.195L469.731,416.597L462.906,428.098L435.091,444.635L430.197,454.106L415.26,461.576L398.004,456.659L388.217,465.619L382.937,490.772L354.478,521.116L355.38,533.475L345.593,548.902L347.911,570.033L333.231,575.448L324.861,580L319.323,564.431L309.021,568.556L302.84,567.879L296.273,578.463L268.586,578.155L258.671,572.68L254.035,576.002L243.089,565.54L245.021,554.697L240.514,550.444L232.916,554.019L234.333,542.179L241.673,532.795L226.992,517.467L222.743,507.38L214.759,499.328L207.676,498.398L199.049,503.541L187.459,508.433L177.672,516.354L162.348,513.384L152.432,504.098L146.509,502.921L137.108,507.752L131.442,507.814Z" fill="#000000"/>
</svg>