<svg xmlns="http://www.w3.org/2000/svg" viewBox="0 0 800 600">
  <path d="M152.358,306.312L161.171,291.723L320.978,292.02L313.193,228.465L323.181,205.654L361.517,201.668L360.195,86.768L494.004,89.148L494.151,20L647.642,130.133L585.217,130.895L604.899,321.974L624.581,507.699L631.632,512.951L622.525,542.67L458.899,543.315L452.73,552.697L437.014,549.905L413.954,558.279L385.459,546.468L372.533,547.47L365.63,572.361L351.97,580L324.944,551.051L300.268,519.851L273.241,508.563L253.706,496.106L230.94,496.538L211.111,505.828L190.841,502.157L176.741,515.755L173.215,492.863L184.672,471.858L189.666,431.496L185.26,389.016L180.266,367.498L184.378,345.841L173.803,325.147Z" fill="#000000"/>
</svg>