<svg xmlns="http://www.w3.org/2000/svg" viewBox="0 0 800 600">
  <path d="M20,55.327L48.519,53.011L80.378,49.785L78.031,55.629L115.846,70.033L173.065,90.777L222.883,90.578L242.829,90.578L242.829,78.429L286.239,78.429L295.445,88.889L308.26,98.12L323.152,110.972L331.455,126.17L337.682,142.07L350.678,150.741L371.436,159.338L387.23,136.6L407.716,136.063L425.406,147.577L437.95,167.184L446.614,183.875L461.416,200.044L466.921,219.793L473.96,232.938L493.545,241.641L511.324,247.775L521.071,246.927L511.414,271.265L506.992,291.15L505.187,327.779L502.75,341.07L507.082,355.824L514.844,368.972L519.898,389.792L536.504,409.693L542.37,424.873L552.208,437.938L578.831,444.971L589.12,456.013L611.141,448.64L630.274,445.955L649.046,441.209L664.84,436.682L680.724,425.862L686.771,410.325L688.757,387.887L693.089,380.032L710.056,372.981L736.589,366.738L758.791,367.696L774.043,365.415L780,371.114L779.188,384.075L765.74,399.981L759.784,416.231L764.387,420.869L760.596,432.331L754.369,452.976L747.961,446.179L742.727,446.627L737.943,446.984L729.008,462.929L724.406,459.807L721.427,461.011L721.608,464.89L698.413,464.578L675.039,464.623L674.948,479.441L663.667,479.486L672.963,488.275L682.259,494.303L685.056,499.97L689.118,501.562L688.486,510.446L656.266,510.534L644.263,531.73L647.783,536.61L644.895,542.671L644.263,550.215L615.924,522.266L602.928,513.845L582.532,507L568.453,508.9L548.327,518.74L535.692,521.297L518.003,514.418L499.23,509.474L475.765,497.491L456.993,493.816L428.655,481.618L407.626,469.078L401.309,462.037L387.32,460.476L361.689,452.127L351.22,440.044L324.235,425.008L311.69,408.204L305.733,395.184L314.127,392.602L311.509,384.937L317.285,377.986L317.376,368.699L308.982,356.555L306.726,345.796L298.242,332.107L276.221,304.994L250.951,283.508L238.767,266.299L217.288,254.981L212.685,248.153L216.475,230.901L203.66,224.355L188.859,210.697L182.632,190.986L169.184,188.682L154.564,173.707L142.831,159.774L141.748,150.838L128.301,129.063L119.366,106.826L119.817,95.592L101.677,83.963L93.283,85.208L78.934,77.082L74.963,89.038L79.114,103.119L81.551,124.993L90.125,136.894L108.716,156.717L112.868,163.457L116.658,165.491L119.998,175.3L124.42,174.914L129.474,193.241L137.145,200.427L142.47,210.459L158.174,224.735L166.477,250.744L173.967,262.921L180.917,275.896L182.271,290.405L194.364,291.336L204.472,303.788L213.497,316.011L212.956,320.907L202.396,330.91L197.974,330.772L191.296,314.208L174.96,298.59L156.82,285.281L144.004,278.28L144.817,258.037L141.026,242.963L129.113,234.311L111.875,221.79L108.536,225.399L102.218,218.081L86.785,211.269L71.984,194.871L73.789,192.762L84.168,194.344L93.464,183.731L94.366,170.907L75.053,150.449L60.342,142.509L51.136,124.453L41.841,105.344L30.198,81.92Z" fill="#000000"/>
</svg>