<svg xmlns="http://www.w3.org/2000/svg" viewBox="0 0 800 600">
  <path d="M20,220.915L44.952,214.62L90.241,182.871L126.386,165.287L147.065,176.819L171.761,177.324L187.655,194.664L211.324,196.039L245.676,205.26L268.747,179.532L259.092,157.451L283.701,117.927L310.277,133.793L331.81,138.253L359.753,148.039L364.282,176.25L397.949,191.848L420.423,185.01L450.416,180.1L474.257,185.01L497.499,202.773L511.855,221.469L533.902,221.1L563.809,227.004L585.599,218.017L616.874,211.96L651.653,186.015L665.838,189.969L678.313,202.337L706.598,199.284L695.062,226.881L678.228,262.75L684.38,277.2L697.796,272.775L721.21,278.275L739.496,265.156L758.552,276.483L780,300.996L777.436,313.337L758.723,309.467L724.201,314.039L707.538,323.85L690.106,346.487L653.96,359.621L630.29,377.427L605.851,370.62L592.521,367.606L580.045,389.17L587.65,401.905L591.495,412.779L574.918,423.814L557.828,441.212L530.142,452.582L494.509,453.781L456.227,464.917L428.541,482.073L418.03,472.164L389.319,472.218L354.198,452.745L330.785,447.943L299.253,452.418L250.205,445.155L224.057,445.921L210.128,426.632L199.276,396.361L184.664,392.657L155.952,371.87L123.994,367.15L95.795,361.392L87.25,346.717L96.393,306.589L79.987,278.394L46.148,265.096L26.238,246.18Z" fill="#000000"/>
</svg>