<svg xmlns="http://www.w3.org/2000/svg" viewBox="0 0 800 600">
  <path d="M635.729,44.766L648.514,71.459L650.604,96.554L662.406,139.751L671.38,148.342L665.111,164.097L620.485,170.857L604.995,185.769L585.202,189.233L583.727,218.85L543.896,234.579L530.742,254.318L502.836,264.915L468.782,270.901L413.584,299.773L413.83,345.703L408.667,345.703L409.528,366.339L388.383,367.572L377.318,376.263L361.828,376.263L349.535,371.336L320.768,375.42L309.581,405.128L299.008,407.959L282.904,455.628L235.451,496.003L224.141,547.241L210.126,563.771L206.069,577.019L129.234,580L128.62,579.938L130.218,562.899L143.249,552.861L154.436,533.604L152.223,521.06L164.025,494.803L183.08,471.007L194.513,464.975L203.61,443.071L204.348,422.921L216.642,399.46L239.385,385.518L261.144,346.356L261.759,345.834L278.847,330.995L310.687,326.737L337.487,300.169L354.698,289.731L383.219,256.986L374.614,207.653L387.645,173.176L392.194,151.842L414.199,124.374L448.375,105.666L473.7,88.674L496.566,45.685L507.261,20L532.463,20.142L552.993,37.972L585.448,35.066L620.854,44.342Z" fill="#000000"/>
</svg>