<svg xmlns="http://www.w3.org/2000/svg" viewBox="0 0 800 600">
  <path d="M370.39,59.455L394.611,56.786L433.319,66.019L441.779,61.902L464.146,61.012L475.619,51.173L494.973,51.729L530.088,38.958L555.7,20L560.915,34.687L559.641,67.354L563.581,96.287L564.856,147.991L570.534,164.308L560.915,188.119L548.399,211.33L527.886,232.119L498.45,244.933L462.176,261.315L425.902,297.663L413.501,303.878L391.018,328.11L377.691,335.979L375.025,360.412L390.323,386.537L396.581,406.806L397.045,417.207L402.723,415.501L401.796,449.669L396.581,465.984L404.114,471.99L399.363,486.593L385.919,499.207L359.38,511.137L320.672,530.389L306.533,543.614L309.315,558.64L317.543,561.069L314.762,580L290.309,579.695L287.527,563.803L282.776,547.729L280.11,534.913L285.789,495.317L277.445,470.324L262.031,421.091L295.871,381.746L304.447,356.923L309.315,353.843L312.908,333.664L307.692,323.544L309.083,298.066L315.341,274.59L315.341,231.892L298.537,221.092L283.239,218.65L276.286,210.366L261.452,203.282L234.565,203.962L232.479,191.51L229.466,167.745L327.162,140.351L345.589,156.314L354.513,153.276L367.261,161.661L369.115,175.019L362.277,190.493L364.711,214.109L385.687,234.85L395.538,211.557L409.445,204.528L406.664,161.605L393.22,137.601L381.631,126.888L370.39,127.392L361.466,84.457Z" fill="#000000"/>
</svg>