<svg xmlns="http://www.w3.org/2000/svg" viewBox="0 0 800 600">
  <path d="M496.456,268.844L480.088,275.914L463.412,289.096L443.235,290.433L430.162,323.175L418.118,328.637L431.912,355.049L450.132,376.886L461.765,396.573L451.368,422.419L441.485,427.886L448.279,442.709L467.324,466.175L470.618,482.604L470.206,496.216L481.324,522.92L465.676,550.127L451.779,580L449,558.405L457.853,536.115L448.176,518.814L450.544,486.879L438.912,471.656L429.647,436.353L424.5,398.89L412.044,374.155L393.206,389.16L360.779,410.365L344.721,407.699L327.015,400.754L336.897,363.774L330.926,335.622L308.485,300.807L311.985,289.868L295.206,285.958L274.926,261.143L273.074,236.454L283.059,241.133L283.676,219.049L297.779,211.733L294.691,198.585L301.176,188.027L302.309,155.713L324.647,162.863L337.412,137.01L338.853,121.64L354.603,95.026L353.779,76.78L390.735,54.634L411.221,60.455L408.853,40.614L418.838,34.705L416.779,22.419L433.456,20L443.029,39.083L455.485,46.785L456.309,71.365L455.176,97.663L428.103,124.099L424.706,161.381L454.868,156.19L461.662,184.923L479.779,190.971L471.441,216.647L492.647,228.229L505.103,233.905L526,224.945L526.926,237.65L502.529,257.572Z" fill="#000000"/>
</svg>