<svg xmlns="http://www.w3.org/2000/svg" viewBox="0 0 800 600">
  <path d="M463.165,376.162L463.165,551.703L425.236,576.464L402.447,580L375.682,570.796L356.564,567.267L349.376,546.635L332.705,533.414L312.364,557.268L280.705,520.878L264.187,485.872L254.704,439.629L244.304,405.458L230.081,333.476L229.01,278.141L223.657,253.101L207.139,234.268L185.115,196.531L162.786,142.258L153.609,113.982L119.044,70.216L116.444,36.026L136.938,27.52L162.327,20L189.857,21.278L215.245,41.375L221.669,38.286L393.882,36.328L423.247,57.746L526.178,64.016L604.179,45.823L639.05,35.725L666.579,38.286L683.25,48.312L683.556,52.009L659.697,62.052L646.697,62.203L619.626,79.676L603.414,61.296L537.954,76.951L506.295,78.389L505.072,239.533L463.165,241.082Z" fill="#000000"/>
</svg>