<svg xmlns="http://www.w3.org/2000/svg" viewBox="0 0 800 600">
  <path d="M551.918,265.304L538.784,289.916L521.522,321.372L494.753,339.9L488.749,327.719L474.239,321.059L494.253,283.261L482.87,258.166L445.469,240.125L446.47,223.855L471.612,208.272L477.491,174.121L475.865,145.726L461.73,116.547L462.731,108.927L446.095,91.115L418.826,53.249L404.19,23.282L417.199,20L436.088,43.471L463.106,54.474L472.863,92.572L498.131,138.186L498.756,108.561L514.517,120.364L519.646,153.358L547.665,167.632L571.182,171.211L590.945,154.397L608.583,159.521L600.202,198.703L589.569,224.765L563.051,223.855L553.794,237.458L557.047,256.863ZM301.119,428.065L330.889,403.017L351.779,378.502L367.165,343.525L380.424,331.8L385.552,305.992L409.944,284.807L417.575,304.28L425.455,323.329L450.222,304.669L460.229,324.113L460.229,343.683L447.345,365.367L424.58,400.123L406.817,419.314L419.701,442.383L392.933,442.954L363.162,461.202L353.78,493.151L334.142,543.158L306.748,565.562L289.486,580L257.463,578.887L234.948,562.326L197.171,558.754L191.417,540.37L210.055,503.631L253.711,455.462L276.101,446.382Z" fill="#000000"/>
</svg>