<svg xmlns="http://www.w3.org/2000/svg" viewBox="0 0 800 600">
  <path d="M623.017,552.38L592.793,580L555.242,571.234L534.176,544.704L493.42,533.736L464.57,550.626L380.767,516.4L361.533,533.078L317.571,492.248L258.039,439.937L230.104,395.919L176.525,355.152L112.414,296.229L126.61,276.122L147.675,295.566L157.292,286.508L196.675,280.984L212.703,251.137L231.478,250.031L228.73,185.817L258.497,182.714L285.057,183.6L312.533,148.556L350.085,175.176L363.365,158.763L386.72,143.229L431.14,107.026L432.972,80.123L445.336,81.235L461.822,49.855L475.102,46.069L496.625,66.106L522.27,72.114L550.204,55.198L582.26,55.198L626.68,38.05L644.082,20L687.586,22.675L676.596,35.377L670.185,64.77L683.465,112.804L654.157,157.654L640.418,210.19L636.297,267.943L643.166,301.53L646.372,360.223L626.68,373.007L614.774,428.718L623.475,463.025L597.83,496.201L603.325,531.103Z" fill="#000000"/>
</svg>