<svg xmlns="http://www.w3.org/2000/svg" viewBox="0 0 800 600">
  <path d="M58.938,463.638L62.243,370.466L60.797,333.571L71.539,297.008L89.305,279.195L117.193,243.127L111.202,227.436L122.358,203.925L109.55,169.291L111.822,149.767L115.747,97.418L132.273,73.718L140.33,39.793L155.204,27.001L216.764,20L274.4,42.091L295.884,64.347L325.218,65.344L352.28,50.878L421.897,81.29L451.025,79.895L484.904,54.77L518.576,56.566L535.103,48.282L566.09,51.676L610.504,68.933L655.332,35.897L668.759,38.295L707.596,102.79L718.338,101.497L741.062,124.856L734.658,135.48L731.766,154.923L683.427,200.168L668.14,237.405L660.083,267.672L647.895,280.672L636.327,321.39L605.753,345.254L596.87,374.583L583.855,397.903L578.484,421.985L539.028,441.45L506.801,417.679L485.111,418.658L451.025,452.399L434.292,452.986L407.024,508.648L392.357,549.409L332.655,570.163L310.964,567.143L288.86,580L243,578.734L212.22,542.683L193.421,501.037L152.725,463.051L109.55,463.735Z" fill="#000000"/>
</svg>