<svg xmlns="http://www.w3.org/2000/svg" viewBox="0 0 800 600">
  <path d="M704.56,49.813L715.603,125.535L732.491,138.063L733.141,153.426L751.978,169.979L742.235,190.638L724.859,287.426L722.423,348.913L664.938,393.187L645.451,454.69L664.126,471.935L664.126,501.794L693.031,502.814L688.484,524.684L675.818,527.346L674.356,542.056L665.912,543.072L635.383,492.374L624.827,490.489L589.589,516.458L554.675,502.892L530.317,500.224L517.326,506.736L490.857,505.324L464.225,525.075L441.328,526.171L386.603,502.265L365.33,513.636L342.271,512.853L325.382,495.358L280.076,477.992L231.684,483.496L219.992,493.552L213.659,520.219L200.668,538.849L197.582,580L163.156,553.467L146.917,553.623L131.815,567.131L132.789,535.486L80.825,524.997L79.363,502.579L54.03,472.25L48.022,451.064L51.595,428.491L80.5,426.673L97.063,410.063L158.609,406.025L198.719,398.578L202.616,369.685L227.299,338.31L227.137,229.043L290.793,207.757L421.354,113.068L575.948,20L647.237,41.19L672.57,68.017Z" fill="#000000"/>
</svg>