<svg xmlns="http://www.w3.org/2000/svg" viewBox="0 0 800 600">
  <path d="M661.406,103.393L661.406,103.393L661.406,103.393ZM650.141,84.296L661.406,103.393L630.788,96.789L596.127,133.401L572.152,170.182L575.041,246.759L533.736,270.07L519.294,288.843L489.254,319.843L435.817,337.066L400.867,365.208L398.267,410.289L389.024,421.691L421.086,438.498L466.435,483.65L454.881,508.461L420.797,515.213L363.894,520.23L332.699,566.091L296.882,562.48L291.971,571.761L252.977,552.5L243.156,571.589L219.76,580L216.871,560.76L196.074,551.467L174.411,535.261L196.363,490.251L215.427,478.26L208.206,459.452L228.714,403.615L223.515,386.727L176.433,375.27L138.594,347.345L204.162,279.91L292.549,222.828L347.719,146.898L385.558,180.526L455.17,184.514L442.46,127.739L566.375,81.169L598.437,20Z" fill="#000000"/>
</svg>