<svg xmlns="http://www.w3.org/2000/svg" viewBox="0 0 800 600">
  <path d="M376.605,64.955L379.554,49.825L391.013,48.299L400.843,63.775L426.54,95.164L406.909,110.949L402.556,139.032L395.731,145.93L392.024,175.197L382.615,176.526L365.82,155.21L372.898,142.339L361.215,131.647L346.02,98.734L339.954,65.912L361.215,50.054L365.483,65.544ZM501.106,373.794L487.822,382.672L481.531,384.671L484.817,369.121L474.819,360.064L462.714,367.783L458.866,384.08L451.424,393.677L443.054,388.463L432.888,389.525L424.209,377.973L419.519,383.784L414.688,384.671L413.537,398.836L398.849,395.415L396.77,407.159L389.272,407.088L384.132,421.713L376.324,443.625L364.22,470.082L367.056,476.304L364.332,483.415L356.609,483.113L351.553,499.565L352.031,521.962L357.002,530.276L354.418,549.007L347.93,559.631L344.504,568.411L339.252,559.06L323.861,576.542L313.442,580L302.657,572.429L299.877,556.088L297.405,519.16L304.595,508.339L325.181,493.895L340.6,475.568L354.867,449.64L373.628,411.302L386.688,395.523L408.117,367.975L425.248,357.958L438.083,359.168L449.963,339.71L464.174,340.765L478.189,335.958L502.595,353.363L492.54,359.558ZM472.291,47.994L460.72,71.682L438.083,76.735L415.082,69.646L413.677,57.603L402.5,56.779L393.962,35.983L418.059,22.838L429.377,34.173L437.269,20L456.985,31.881ZM451.34,138.029L433.927,152.908L420.165,144.509L425.529,135.007L420.839,122.909L436.988,115.124L440.077,129.542Z" fill="#000000"/>
</svg>