<svg xmlns="http://www.w3.org/2000/svg" viewBox="0 0 800 600">
  <path d="M362.822,236.45L364.167,213.11L379.73,189.011L379.922,165.23L404.131,153.658L394.524,145.538L398.943,107.389L426.226,107.09L450.243,147.222L480.023,168.392L519.026,176.094L550.728,186.646L574.744,219.982L589.154,239.191L608.368,246.53L608.175,259.428L588.77,293.725L580.316,309.85L557.837,328.171L537.855,367.202L513.646,364.213L502.503,377.799L494.049,406.636L500.581,444.465L495.586,451.344L470.993,451.153L437.562,472.236L432.374,499.642L420.27,511.514L387.031,511.039L366.089,525.172L366.281,547.705L340.535,563.299L311.139,558.009L275.402,576.794L250.809,580L233.325,540.988L191.632,448.287L351.679,391.652L387.223,277.277ZM418.925,60.522L408.934,40.24L424.305,20L431.029,25.141L426.034,49.685Z" fill="#000000"/>
</svg>