<svg xmlns="http://www.w3.org/2000/svg" viewBox="0 0 800 600">
  <path d="M703.54,92.847L669.012,129.558L629.072,136.032L574.832,125.432L557.181,144.182L569.936,181.903L582.304,210.827L611.164,231.803L580.758,256.226L581.274,286.083L546.488,327.762L524.07,369.438L486.707,412.147L445.093,409.061L405.669,451.319L429.117,469.29L433.111,499.982L453.21,520.11L460.425,553.937L381.576,553.804L357.741,580L331.588,570.068L320.894,541.888L293.194,511.801L227.23,519.24L169.124,519.976L118.749,525.53L132.277,479.363L183.812,458.72L180.848,440.231L163.713,433.687L162.811,398.072L128.54,380.155L114.111,355.43L96.46,333.841L156.369,354.805L192.186,348.687L213.573,353.902L220.788,344.928L245.782,348.548L292.292,331.397L293.581,296.103L313.422,272.494L340.091,272.565L344.085,260.78L371.398,255.301L384.668,259.215L398.583,247.389L396.65,221.976L411.853,196.321L434.657,185.458L420.485,157.067L454.627,158.382L464.418,142.788L462.872,126.095L480.781,107.769L476.658,85.921L468.155,67.236L489.155,47.846L527.549,38.489L568.648,33.346L586.814,25.087L607.685,20L634.097,40.906L644.661,75.021Z" fill="#000000"/>
</svg>