<svg xmlns="http://www.w3.org/2000/svg" viewBox="0 0 800 600">
  <path d="M765.651,266.139L749.39,285.697L780,364.766L755.129,404.711L712.561,394.954L695.343,460.043L650.862,421.498L622.643,349.098L655.167,313.203L621.687,304.112L596.816,259.542L530.812,222.219L472.461,230.869L445.677,277.511L392.108,311.385L362.933,315.93L350.019,343.874L413.153,416.734L377.281,433.971L358.15,453.696L295.972,460.497L273.014,380.43L255.796,403.35L211.794,395.408L185.009,341.376L130.485,332.516L96.048,316.839L39.132,317.066L35.305,346.145L20,325.928L26.696,299.338L37.697,272.053L32.914,247.711L52.524,231.78L24.783,211.745L24.305,157.517L75.481,145.433L123.31,193.752L120.441,222.446L173.531,228.365L185.966,217.437L222.794,250.441L287.841,240.884L344.758,206.735L425.11,179.626L470.548,139.503L543.726,147.257L538.943,160.481L613.077,165.268L672.385,188.512L715.431,228.821Z" fill="#000000"/>
</svg>