<svg xmlns="http://www.w3.org/2000/svg" viewBox="0 0 800 600">
  <path d="M20,97.32L107.804,132.224L201.256,161.229L236.232,187.161L264.286,212.681L272.119,242.693L356.28,274.114L368.667,301.087L322.033,306.605L333.327,340.521L378.504,374.055L411.294,428.363L440.259,426.628L438.255,449.366L477.421,458.052L462.119,467.699L515.858,489.36L510.393,504.251L476.874,507.824L464.305,494.496L420.949,488.75L369.76,481.005L330.412,448.237L301.63,420.038L275.398,375.266L209.453,352.874L166.644,367.483L135.676,384.351L142.052,422.119L102.339,439.729L74.104,431.139L21.64,428.97L20.911,262.661ZM608.945,151.015L628.255,167.238L634.267,193.604L618.418,207.094L608.945,177.198L597.105,157.538L574.151,140.975L545.369,119.357L508.936,104.436L522.963,92.176L550.288,106.408L567.411,117.556L588.725,129.736ZM541.179,261.714L513.49,274.114L487.622,286.003L460.662,285.916L419.128,271.186L390.345,256.979L394.535,241.231L439.895,248.631L467.584,244.672L475.235,220.332L482.522,219.042L487.44,246.049L516.222,242.177L530.431,224.803L558.667,206.664L553.202,176.769L583.442,175.824L593.643,184.155L592.733,212.251L575.791,243.296L549.195,247.426ZM716.242,236.241L731.544,247.77L756.136,280.058L780,297.293L772.895,311.608L758.686,316.697L736.826,297.121L714.602,264.813L703.854,226.093L710.777,221.192Z" fill="#000000"/>
</svg>