<svg xmlns="http://www.w3.org/2000/svg" viewBox="0 0 800 600">
  <path d="M420.146,75.438L438.604,112.599L434.552,203.768L500.505,216.683L526.165,203.425L568.258,221.716L579.963,241.992L585.815,304.243L593.243,330.607L616.428,333.619L639.838,322.505L662.347,334.893L662.347,372.629L653.794,413.454L641.639,453.421L631.509,514.861L574.786,568.669L525.265,580L455.036,569.146L392.009,550.098L453.46,444.027L444.456,413.454L380.079,386.488L303.772,335.704L252.676,325.398L137.653,214.51L162.413,133.894L163.989,97.899L193.926,39.309L302.872,20L360.946,21.009L419.246,54.938Z" fill="#000000"/>
</svg>