<svg xmlns="http://www.w3.org/2000/svg" viewBox="0 0 800 600">
  <path d="M554.775,147.732L527.589,146.302L523.582,150.847L498.996,156.671L464.553,177.218L462.387,191.286L454.697,201.832L457.729,218.177L439.533,226.946L439.533,239.776L431.627,245.322L444.082,272.677L460.87,291.173L454.48,304.277L474.409,306.033L485.782,322.31L512.318,323.086L537.012,305.103L535.063,351.574L548.71,355.103L565.715,349.811L591.709,399.277L585.21,409.718L583.802,431.429L583.153,457.83L571.455,473.361L576.762,484.914L569.939,495.43L582.828,521.716L563.873,555.696L555.858,571.905L540.37,580L510.151,561.789L507.552,548.863L447.873,517.309L393.935,483.119L370.756,463.881L358.301,438.243L363.283,429.334L337.722,388.85L308.045,332.244L279.667,271.493L267.32,257.655L257.897,235.31L234.502,215.511L213.057,203.266L222.804,189.751L208.291,160.962L217.606,139.818L241.542,120.784L245.116,133.336L236.56,140.533L237.426,151.563L249.774,149.162L262.013,152.431L274.577,167.657L291.581,155.24L297.322,134.918L315.735,108.697L351.91,96.818L384.728,65.276L394.043,45.717L389.927,22.852L397.942,20L417.871,34.258L427.511,48.467L441.483,56.209L459.137,87.796L481.558,91.568L498.129,83.566L509.068,88.815L527.048,86.216L550.118,100.284L530.73,130.989L539.72,131.703Z" fill="#000000"/>
</svg>