<svg xmlns="http://www.w3.org/2000/svg" viewBox="0 0 800 600">
  <path d="M356.775,274.736L335.163,241.676L371.387,243.295L386.15,258.953L374.887,296.354ZM430.896,392.176L441.55,380.182L446.116,353.468L469.403,350.917L462.706,379.892L493.907,338.375L489.95,379.382L474.73,393.556L461.489,420.629L448.247,433.313L422.221,403.651ZM591.162,459.303L595.424,487.634L597.859,511.595L583.552,550.504L568.028,507.122L548.242,528.753L561.788,560.076L549.764,580L499.995,555.327L488.123,524.501L500.908,504.309L474.121,484.095L460.88,501.783L440.942,500.124L409.741,523.924L402.74,511.45L419.329,475.498L445.964,463.498L468.946,447.363L483.862,466.751L516.128,455.034L522.977,435.921L552.808,434.835L550.373,401.691L584.618,422.007L588.118,443.526ZM258.302,420.701L202.141,461.328L222.84,431.357L253.28,404.958L278.697,375.237L300.918,332.464L308.376,367.596L280.523,391.231ZM420.395,32.516L413.394,50.951L427.852,82.68L416.742,119.358L391.781,133.955L385.237,169.307L394.673,204.155L417.046,208.955L435.767,203.786L488.58,227.981L484.471,251.605L498.321,262.038L493.907,281.995L461.032,260.716L445.355,237.923L434.549,253.883L407.61,227.834L369.104,234.242L348.1,224.665L350.231,206.666L363.472,195.511L350.84,185.452L345.36,201.201L324.509,176.05L318.269,156.994L316.595,114.885L333.641,129.415L338.055,60.265L351.753,20L377.474,20.075L403.501,32.742L416.438,21.207ZM407.762,330.494L401.218,309.89L426.483,323.264L453.422,323.191L452.661,341.22L433.027,359.514L406.24,372.472L404.718,352.447ZM554.178,298.184L566.05,346.398L533.479,334.946L534.24,349.459L544.589,375.964L524.499,385.635L522.825,355.362L510.04,353.103L503.496,327.062L528.304,330.494L527.695,314.13L501.974,281.115L542.459,282.068Z" fill="#000000"/>
</svg>