<svg xmlns="http://www.w3.org/2000/svg" viewBox="0 0 800 600">
  <path d="M662.321,115.443L664.877,159.585L681.278,197.272L680.852,236.279L645.493,256.225L663.599,301.051L664.877,343.643L694.485,425.852L688.308,452.024L658.912,462.857L605.234,539.188L620.358,580L607.577,574.651L551.343,539.804L508.741,552.731L480.837,543.348L445.69,562.861L415.869,530.548L391.586,543.04L388.178,537.492L361.126,492.395L317.033,486.784L311.495,457.837L270.81,447.463L262.077,471.473L229.912,452.339L233.533,426.643L189.441,418.572L161.323,388.213L137.04,327.66L141.727,294.536L127.029,242.718L105.515,207.931L121.917,181.568L108.284,131.055L148.543,101.478L240.989,54.646L315.542,20L374.545,37.359L379.019,62.23L436.105,63.435L508.954,74.953L617.802,73.408L648.049,84.384Z" fill="#000000"/>
</svg>