<svg xmlns="http://www.w3.org/2000/svg" viewBox="0 0 800 600">
  <path d="M314.673,62.662L343.496,35.578L375.743,20L395.719,72.207L442.521,72.207L455.933,58.697L502.164,62.482L524.423,115.617L487.61,144.169L486.754,225.78L473.912,240.9L470.773,289.904L436.528,298.271L468.204,359.848L446.231,426.553L473.627,456.441L462.782,483.831L433.389,521.433L439.952,554.307L407.99,580L366.326,566.073L325.517,576.982L337.503,499.098L330.083,437.327L294.697,427.922L275.577,389.494L281.855,322.791L313.532,285.368L319.239,243.534L335.791,180.933L334.079,136.507L318.098,98.609Z" fill="#000000"/>
</svg>