<svg xmlns="http://www.w3.org/2000/svg" viewBox="0 0 800 600">
  <path d="M634.803,34.287L631.127,72.909L612.058,107.078L599.422,146.854L591.61,203.47L594.827,239.657L584.488,261.801L582.88,285.132L575.528,305.549L533.484,336.338L504.306,369.186L476.506,431.235L478.804,483.81L462.492,504.267L425.502,535.564L387.823,575.663L363.929,564.28L360.024,546.181L325.102,545.531L303.276,570.025L286.504,563.521L262.61,541.523L243.311,552.358L217.58,580L165.197,512.171L213.904,476.884L189.78,434.587L211.606,418.584L254.569,410.692L259.853,382.479L293.856,413.07L350.145,415.773L369.673,385.613L377.944,343.145L370.822,293.342L340.725,255.536L368.295,181.647L352.442,169.006L304.884,174.192L286.964,141.234L291.788,113.348L372.2,115.835L423.894,132.697L474.439,147.827L479.033,113.348L512.577,53.871L550.715,20L593.908,30.715Z" fill="#000000"/>
</svg>