<svg xmlns="http://www.w3.org/2000/svg" viewBox="0 0 800 600">
  <path d="M667.44,359.454L703.506,380.68L741.607,362.184L778.255,381.847L780,411.326L740.735,436.049L716.303,425.244L693.617,561.507L646.207,549.768L587.455,508.901L492.346,535.161L452.208,563.588L333.54,557.723L271.588,540.287L240.176,548.442L216.908,502.224L202.074,482.537L220.98,463.559L200.911,449.337L175.607,474.875L128.488,441.83L122.09,394.663L72.935,367.641L63.919,330.913L20,285.299L84.86,263.361L133.724,183.471L171.825,102.559L221.271,77.53L256.173,51.582L306.2,64.876L357.972,65.489L395.492,94.837L423.123,76.307L482.748,64.876L502.817,36.412L537.137,36.412L561.569,48.305L586.582,84.052L612.468,134.564L659.005,205.286L661.623,256.824L652.897,306.574Z" fill="#000000"/>
</svg>