<svg xmlns="http://www.w3.org/2000/svg" viewBox="0 0 800 600">
  <path d="M597.978,195.371L602.538,192.286L606.642,199.071L611.506,211.166L610.982,221.42L606.376,222.765L600.501,219.609L596.99,215.285L595.371,206.758L592.491,204.292ZM617.1,216.948L622.45,223.24L621.827,227.546L609.925,231.502L613.779,217.485L615.519,216.216ZM693.086,248.307L698.664,248.694L706.294,253.262L704.63,259.401L696.855,259.182L693.352,261.068L689.171,255.788L690.304,249.951ZM712.914,255.084L718.211,257.254L715.772,260.461L712.397,259.742L708.476,256.53L708.977,253.82ZM695.267,270.583L697.266,267.627L699.91,266.935L702.905,269.806L703.163,271.739L699.964,271.788L695.639,270.969ZM494.678,201.12L498.797,198.759L502.004,198.581L502.438,202.1L503.646,198.982L505.637,196.806L508.768,199.692L507.955,201.666L505.12,203.351L503.22,204.313L502.924,206.361L500.462,208.396L498.174,205.479L499.375,201.513ZM447.991,366.033L444.107,366.088L441.508,365.677L441.987,364.072L444.897,362.881L447.109,363.524L448.044,364.109L447.816,365.111ZM512.964,267.742L518.018,260.947L517.448,257.282L522.167,252.875L529.137,247.288L536.167,245.623L539.777,242.225L543.888,241.029L545.355,244.66L543.934,247.454L536.456,251.777L530.011,255.802L523.452,263.456L520.305,270.857L516.999,277.742L517.425,283.407L521.461,288.755L520.214,289.317L513.321,288.485L512.759,285.611L508.936,283.847L508.632,280.196L510.79,278.73L510.714,274.891L514.902,268.671ZM701.712,368.277L702.441,371.673L702.388,375.064L703.254,378.473L705.382,384.272L702.259,383.207L700.959,387.82L703.019,391.011L702.958,393.154L701.354,391.308L699.971,393.674L699.584,391.105L699.819,388.075L699.576,384.647L700.062,382.206L700.161,377.788L698.922,374.457L699.105,369.701L701.058,368.072L700.222,366.407L701.157,365.898ZM20,299.525L20,299.525L25.176,303.939L30.709,309.477L30.526,312.819L31.947,314.134L31.461,310.259L37.191,311.063L41.326,316.008L39.228,318.245L35.77,318.77L35.717,323.648L34.873,324.656L32.897,324.516L31.286,322.809L28.482,321.367L28.01,319.182L25.86,318.357L23.466,319.011L22.318,317.223L22.774,315.304L20.243,316.534L21.201,318.942L20,321.08L20,321.08L20,299.525ZM780,321.08L779.985,321.105L777.272,323.283L774.536,322.917L776.436,325.517L777.697,329.439L778.67,330.696L778.913,332.602L778.374,333.814L774.437,332.819L768.531,336.222L766.654,336.742L763.424,339.83L760.361,342.469L759.586,344.398L756.569,341.455L751.067,344.789L750.109,343.225L748.072,345.03L745.252,344.455L744.568,347.19L742.038,351.127L742.114,352.741L744.515,353.624L744.234,359.25L742.273,359.391L741.369,362.524L742.25,364.115L738.557,365.978L737.827,370.053L734.673,370.91L734.042,374.428L731.002,377.589L730.22,375.261L729.315,370.209L728.137,362.172L729.155,356.928L730.934,354.608L731.04,352.767L734.324,351.879L738.093,346.763L741.734,342.44L745.526,338.996L747.221,332.687L744.66,333.074L743.39,336.787L738.032,341.585L736.307,336.199L730.858,337.71L725.568,344.917L727.316,347.462L722.604,348.531L719.336,348.952L719.488,345.977L716.213,345.342L713.598,347.385L707.138,346.672L700.192,347.893L693.359,355.684L685.265,364.574L688.594,365.031L689.627,367.296L691.68,368.096L693.032,366.303L695.35,366.535L698.398,370.453L698.466,373.416L696.817,376.821L696.642,380.793L695.685,385.967L692.508,390.508L691.794,392.638L688.928,396.159L686.086,399.58L684.725,401.305L681.913,402.998L680.583,403.037L679.253,401.634L676.419,403.742L676.092,404.695L676.092,404.695L675.795,404.192L675.78,402.735L676.859,402.657L677.163,399.217L676.609,396.68L678.417,395.626L680.986,396.154L682.4,393.216L683.129,389.847L683.943,388.707L685.052,385.864L681.564,386.805L679.74,388.049L676.525,388.043L675.674,385.064L673.173,382.773L669.502,381.731L668.72,378.495L667.982,376.432L667.192,374.972L665.885,371.49L664.03,370.203L660.876,369.15L658.072,369.246L655.45,369.88L653.71,371.626L654.865,372.456L654.895,374.359L653.717,375.451L651.81,379.02L651.832,380.476L648.853,382.542L646.322,381.31L643.807,381.582L642.697,380.482L641.435,380.13L638.342,382.437L635.561,382.976L633.623,383.775L630.963,383.25L629.002,383.283L627.725,381.62L625.658,380.04L623.537,379.604L620.87,380.04L618.871,380.649L615.876,379.261L615.474,376.752L612.988,375.882L611.073,375.485L608.709,374.074L606.521,377.589L607.379,379.553L605.327,381.842L602.272,381.021L600.167,380.899L598.753,379.357L596.557,379.312L594.718,378.286L591.503,379.85L587.475,382.674L585.256,383.234L584.427,383.502L583.31,381.515L580.589,381.952L579.685,380.56L578.21,379.917L577.2,377.998L576.029,377.396L572.997,378.252L570.086,376.318L568.961,378.077L564.249,369.342L561.551,366.578L562.326,365.444L557.037,368.838L555.007,369.036L555.182,367.09L552.477,365.855L550.273,366.736L549.604,362.956L545.811,362.159L543.911,363.693L538.629,365.043L537.596,365.941L529.699,367.193L528.734,368.416L530.254,370.839L528.232,371.744L528.627,372.691L526.598,374.37L530.018,376.707L529.494,378.298L526.522,378.156L525.914,379.143L523.209,377.413L519.865,377.481L517.623,378.89L515.122,377.538L510.471,375.197L507.172,375.284L502.818,378.946L502.552,381.354L500.386,379.447L498.698,383.048L499.314,383.704L498.098,386.133L499.884,388.277L501.457,388.187L502.802,390.272L502.582,391.86L503.661,392.358L502.696,394.162L500.652,394.658L498.554,397.748L500.469,400.541L500.264,402.496L502.567,405.863L501.305,407.001L500.94,407.714L500.013,407.524L498.562,405.811L497.969,405.715L496.639,405.056L495.993,403.887L494.024,403.285L492.74,403.737L492.375,403.202L489.502,401.82L486.394,401.349L484.608,400.852L484.349,401.196L481.659,398.724L479.25,397.607L477.426,395.855L478.961,395.372L480.717,392.839L479.531,391.626L482.647,390.367L482.586,389.689L480.694,390.189L480.762,388.807L481.849,387.932L483.893,387.703L484.228,386.649L483.757,384.891L484.615,383.201L484.593,382.25L481.477,381.188L480.245,381.221L478.938,379.677L477.319,380.203L474.644,379.037L474.69,378.382L473.937,376.929L472.25,376.764L472.075,375.715L472.607,375.024L471.255,373.083L469.066,373.416L468.427,373.241L467.895,374.022L467.105,373.888L466.588,371.667L466.086,370.506L466.497,370.179L468.199,370.298L469.02,369.528L468.412,368.585L466.991,367.957L467.112,367.308L466.254,366.651L464.931,364.27L465.387,363.281L465.182,361.542L463.115,360.648L462.005,361.093L461.709,360.165L459.482,359.211L458.806,356.961L458.623,355.078L457.605,354.177L458.517,352.928L457.886,349.186L459.391,346.819L459.072,346.096L461.473,343.777L459.262,341.76L463.776,336.169L465.737,333.568L466.535,331.23L463.411,328.019L464.27,324.894L462.37,321.232L463.791,316.892L461.336,310.89L463.282,306.765L460.052,303.002L460.364,298.926L462.066,298.385L465.661,295.983L467.834,293.858L471.3,297.529L477.084,298.936L485.064,305.45L486.683,308.096L486.819,311.708L484.479,314.499L481.028,315.885L471.604,311.881L470.054,312.558L473.497,316.403L473.633,318.779L473.77,323.872L476.491,325.353L478.14,326.599L478.414,324.26L477.137,322.148L478.482,320.258L483.589,323.35L485.36,322.148L483.947,318.469L488.864,313.393L490.81,313.697L492.786,315.525L494.009,311.899L492.254,308.672L493.287,305.355L491.737,301.814L497.642,303.659L498.843,306.813L496.175,307.498L496.183,310.534L497.847,312.378L501.108,311.218L501.624,307.741L506.032,305.079L513.405,300.151L514.993,300.438L512.918,303.939L515.533,304.524L517.045,302.575L521.005,302.419L524.136,300.012L526.545,303.495L528.939,299.664L526.727,296.208L527.829,294.201L534.062,296.044L536.988,297.923L544.633,304.553L546.047,301.56L543.904,298.456L543.843,297.195L541.297,296.606L541.996,293.723L540.864,288.831L540.803,286.771L544.694,280.751L546.085,274.407L547.65,272.994L553.244,274.891L553.677,278.788L551.679,284.273L552.993,286.374L553.67,290.849L553.191,299.186L555.524,302.75L554.612,306.53L550.478,314.214L552.895,314.986L553.731,313.089L556.056,311.727L556.619,309.043L558.443,306.417L557.211,303.205L558.199,299.376L555.889,298.886L555.38,295.563L557.067,289.328L554.323,284.026L558.101,279.477L557.614,274.48L558.671,274.322L559.773,278.237L558.944,284.765L561.201,285.966L560.236,281.165L563.77,278.46L568.155,278.096L572.054,282L570.177,276.259L569.964,268.506L573.635,266.986L578.72,267.32L583.295,266.329L581.577,262.274L584.017,256.99L586.441,256.767L590.545,252.616L596.124,251.472L596.831,249.095L602.371,248.277L604.096,250.245L608.839,245.547L612.715,245.7L613.3,241.754L615.314,237.729L620.3,233.735L623.917,236.898L621.044,239.262L625.825,240.697L626.395,245.242L628.325,243.037L634.497,243.146L639.254,247.559L640.949,250.831L640.425,255.239L638.091,257.684L632.543,262.141L630.955,264.456L633.577,265.539L636.693,267.461L638.601,266.019L639.672,270.832L640.599,268.911L643.974,267.729L650.753,268.962L651.262,272.405L660.094,273.483L660.208,267.857L664.692,269.177L668.058,269.126L671.471,273.006L672.444,277.554L671.19,280.439L673.842,285.7L677.163,288.333L679.2,281.417L682.59,284.43L686.185,282.638L690.274,284.687L691.824,282.819L695.282,283.757L693.754,277.423L696.544,274.359L715.612,278.928L717.406,282.966L722.931,287.974L731.458,286.749L735.661,287.821L737.417,290.454L737.166,294.987L739.765,296.707L742.592,295.471L746.332,295.316L750.322,296.504L754.319,295.83L757.998,301.108L760.612,299.236L758.91,295.409L759.845,292.688L766.578,294.408L770.971,294.035L777.044,296.931L780,299.525L780,321.08ZM780,288.039L777.682,288.365L777.31,286.319L780,283.566L780,288.039ZM20,283.566L20,283.565L20,283.565L20.274,283.294L22.06,283.306L25.115,285.2L24.932,286.098L22.759,287.647L20,288.039L20,288.039L20,283.566ZM470.586,393.659L471.141,392.906L472.645,393.561L473.322,393.679L473.595,394.28L473.915,394.372L473.93,394.633L474.963,395.357L477.122,395.179L476.704,396.245L474.393,396.766L471.528,398.484L470.358,397.878L470.821,396.483L468.511,395.606L468.891,395.031L470.905,394.023Z" fill="#000000"/>
</svg>