<svg xmlns="http://www.w3.org/2000/svg" viewBox="0 0 800 600">
  <path d="M72.358,124.92L108.229,130.782L122.115,119.423L129.752,106.084L154.283,100.937L159.606,88.54L170.251,82.168L138.199,44.654L202.535,25.715L208.668,20L247.432,30.267L295.222,56.694L385.941,131.468L445.649,134.395L474.346,137.942L482.33,155.444L505.01,154.453L517.623,185.912L533.475,194.198L538.914,206.869L560.899,222.059L562.751,236.828L559.626,248.764L563.676,260.786L572.933,270.729L577.215,282.39L581.959,291.085L591.679,298.088L600.589,295.576L606.722,309.08L607.995,317.187L620.26,352.725L716.881,370.304L723.361,362.938L738.056,387.526L716.649,456.41L620.26,490.519L527.574,503.507L497.604,518.757L474.577,554.152L459.534,559.785L451.435,548.571L439.169,550.28L408.042,546.862L402.256,543.498L365.112,544.296L356.434,547.318L343.243,538.592L334.68,555.12L337.92,569.276L323.919,580L319.637,565.697L310.033,555.575L307.487,542.13L290.94,530.026L273.815,501.67L264.673,473.923L242.456,450.443L228.108,444.818L206.817,412.051L203.114,387.996L204.502,367.418L186.104,328.668L171.061,314.924L153.704,307.648L143.059,287.369L144.794,279.387L135.884,260.967L126.512,252.997L114.015,226.319L94.343,197.262L78.028,172.311L61.944,172.496L67.035,152.408L68.424,139.622Z" fill="#000000"/>
</svg>