<svg xmlns="http://www.w3.org/2000/svg" viewBox="0 0 800 600">
  <path d="M132.444,412.013L81.333,312.957L20,267.622L74.222,243.413L133.778,153.522L163.111,87.479L205.778,46.334L267.111,57.443L327.111,29.333L396,28.025L455.111,65.718L536.889,99.875L611.556,194.281L693.333,281.878L699.111,361.235L723.111,433.933L769.333,469.573L780,518.673L774.222,558.069L756.444,565.13L689.333,555.073L680,569.194L652.889,571.975L564,541.16L504.444,539.876L276.444,534.523L243.111,548.867L202.222,544.799L136.889,565.344L116.444,468.286L228.889,471.075L258.667,453.261L280.889,452.188L326.667,422.975L379.556,449.611L433.333,451.973L486.667,423.405L461.778,386.85L420.889,408.143L382.667,407.498L333.778,376.305L294.667,378.242L266.667,408.358Z" fill="#000000"/>
</svg>