<svg xmlns="http://www.w3.org/2000/svg" viewBox="0 0 800 600">
  <path d="M187.776,58.613L266.118,20L329.749,26.49L385.288,84.172L396.69,130.617L458.849,164.789L466.941,224.434L526.525,266.223L558.525,233.928L583.903,251.912L559.996,275.912L578.754,300.808L553.743,333.087L562.57,384.861L612.224,445.579L573.605,489.36L556.318,533.625L567.352,550.048L550.433,569.716L503.354,571.82L468.412,580L465.102,569.716L477.239,553.095L488.641,519.287L474.297,520.228L454.435,494.316L437.516,487.708L424.275,465.486L405.149,456.96L390.437,437.033L372.047,444.867L358.07,491.249L333.795,501.391L341.887,489.36L302.899,460.276L269.429,445.341L254.716,425.863L227.499,401.81L251.406,395.369L266.486,328.759L217.2,273.975L242.579,210.783L205.798,211.271L245.153,156.934L212.419,115.329Z" fill="#000000"/>
</svg>