<svg xmlns="http://www.w3.org/2000/svg" viewBox="0 0 800 600">
  <path d="M780,215.926L742.915,269.032L716.426,350.564L688.01,371.357L544.968,309.879L501.141,322.204L469.354,369.654L406.743,394.825L392.294,381.907L327.275,413.155L273.815,419.258L263.219,459.175L151.001,483.792L101.394,461.875L33.485,410.781L20,341.006L31.077,315.359L49.861,270.752L109.1,274.19L154.854,253.198L158.226,234.234L184.233,224.566L192.902,178.17L223.726,169.143L244.436,132.257L283.929,131.909L291.635,144.451L346.54,116.208L413.967,189.269L493.435,145.148L556.527,166.364L652.852,137.137Z" fill="#000000"/>
</svg>