<svg xmlns="http://www.w3.org/2000/svg" viewBox="0 0 800 600">
  <path d="M743.876,530.223L780,575.2L690.152,574.313L641.06,493.923L717.94,525.351ZM687.374,414.792L667.922,438.87L572.517,325.883L546.118,248.142L589.653,248.142L635.966,352.34ZM580.853,450.361L530.835,453.455L452.102,440.195L425.241,420.093L433.114,368.22L517.867,388.741L560.012,416.117ZM425.241,209.207L455.344,250.343L460.902,276.538L359.939,221.302L289.543,174.695L241.377,131.421L260.366,118.247L319.647,149.429ZM103.364,79.622L154.771,121.979L128.836,129.225L72.797,99.81L20,46.504L26.484,24.8Z" fill="#000000"/>
</svg>