<svg xmlns="http://www.w3.org/2000/svg" viewBox="0 0 800 600">
  <path d="M218.526,580L194.417,546.468L193.978,398.589L229.484,352.483L240.589,339.673L266.597,338.915L302.688,310.176L355.581,308.383L470.281,185.782L498.627,151.546L516.892,126.288L516.892,104.822L516.892,63.185L517.038,46.098L517.33,45.467L530.334,44.626L549.037,38.457L570.516,34.319L589.803,20.14L605.145,20L606.022,31.443L602.369,55.555L602.515,77.242L593.894,92.192L582.497,136.731L562.918,182.522L537.786,234.829L503.011,294.657L468.382,340.224L420.602,395.7L379.982,428.636L319.345,468.907L281.501,499.822L237.082,548.941L227.731,570.379Z" fill="#000000"/>
</svg>