<svg xmlns="http://www.w3.org/2000/svg" viewBox="0 0 800 600">
  <path d="M82.214,296.889L100.674,275.241L115.804,287.239L122.327,305.964L139.678,309.166L163.968,317.519L184.649,314.31L219.072,291.838L219.072,132.528L229.482,138.857L252.385,179.454L248.776,205.631L257.381,220.746L285.003,216.36L304.296,197.109L322.618,184.243L332.057,163.741L350.795,153.845L367.035,158.971L385.495,170.976L416.864,173.076L441.571,163.09L445.458,149.805L452.12,129.439L473.218,126.064L484.738,110.153L497.647,82.099L532.208,50.717L586.757,20L602.442,20.493L621.041,27.541L634.089,22.536L654.631,26.694L673.092,85.66L683.086,115.594L676.284,163.018L679.477,178.367L660.045,170.542L648.941,173.583L645.332,186.058L634.783,202.206L635.06,217.091L658.101,240.531L680.726,235.907L688.499,216.652L717.786,217.018L708.07,248.541L703.628,284.792L693.635,304.624L667.262,326.859L659.767,333.297L643.389,355.825L632.701,378.696L610.77,410.902L567.186,457.592L539.981,485.052L510.833,505.983L470.581,523.888L451.01,526.318L446.013,539.198L422.555,532.282L403.401,541.165L361.621,532.203L338.303,537.861L322.341,535.424L282.643,553.778L249.609,561.207L225.873,578.887L208.246,580L192.006,563.343L178.959,562.473L162.302,541.637L160.498,548.097L155.362,535.581L155.64,508.48L143.148,477.686L155.501,469.327L154.529,434.451L129.268,392.263L109.974,354.395L109.835,354.32ZM569.268,313.564L552.474,300.011L534.429,308.943L513.47,326.261L492.928,354.32L521.937,388.621L535.679,384.148L542.757,369.926L564.272,362.907L570.795,348.453L582.593,326.859Z" fill="#000000"/>
</svg>