<svg xmlns="http://www.w3.org/2000/svg" viewBox="0 0 800 600">
  <path d="M478.647,580L422.943,537.723L407.876,510.596L372.491,524.054L343.269,519.855L326.147,530.512L297.839,522.87L259.257,470.305L249.212,450.145L201.728,424.902L185.747,386.572L159.265,359.01L116.574,325.686L116.118,304.893L81.417,278.986L38.27,254.031L57.675,246.973L79.362,234.917L95.8,177.479L113.15,147.613L158.808,138.775L169.766,156.555L202.412,194.03L219.991,199.58L242.82,188.587L288.479,190.764L297.154,204.041L360.391,204.041L362.446,190.764L395.092,178.569L401.712,159.826L425.683,146.522L478.875,184.123L511.749,177.479L543.254,131.026L577.954,95.622L572.704,56.755L557.408,37.784L595.533,34.492L599.871,20L629.32,24.503L621.558,72.312L629.32,118.904L661.966,144.34L669.5,166.475L668.358,198.492L677.262,199.798L677.947,249.796L668.358,269.441L634.799,270.96L613.112,307.493L652.15,312.042L684.339,343.218L695.297,368.74L724.29,383.546L761.73,452.949L718.811,494.98L679.773,532.88L640.735,562.147L596.218,562.039L545.08,576.881L504.901,562.684Z" fill="#000000"/>
</svg>