<svg xmlns="http://www.w3.org/2000/svg" viewBox="0 0 800 600">
  <path d="M164.725,501.21L160.17,478.397L180.568,452.301L188.094,433.293L169.082,412.552L184.331,366.26L162.348,323.527L186.113,317.721L188.292,283.713L197.204,273.22L197.798,216.584L223.345,196.77L207.898,159.895L175.815,157.268L166.507,166.644L134.028,166.644L120.165,130.414L97.786,141.224L77.784,160.02L80.556,107.2L57.979,74.582L135.81,20L203.145,33.642L277.015,33.257L335.636,46.219L381.186,42.244L470.107,44.681L492.09,74.072L593.29,108.085L613.293,91.998L675.28,125.755L739.05,116.045L742.021,159.27L689.935,208.173L619.432,223.623L614.481,248.117L580.615,288.099L559.425,346.324L580.813,386.834L549.127,418.131L537.244,463.485L495.655,477.341L456.64,530.314L386.929,531.358L334.448,530.082L299.988,554.29L278.996,580L252.062,574.361L231.663,551.4L216.018,511.939Z" fill="#000000"/>
</svg>