<svg xmlns="http://www.w3.org/2000/svg" viewBox="0 0 800 600">
  <path d="M180.55,580L150.669,562.716L137.139,551.316L134.602,538.968L140.944,522.441L140.803,506.231L118.252,481.37L113.883,464.295L114.306,454.633L99.929,442.866L99.507,419.631L91.332,404.159L77.519,406.468L81.466,391.723L91.614,374.982L87.104,358.28L100.07,345.923L91.896,336.489L102.185,311.491L120.085,281.605L153.911,284.426L151.938,121.369L152.361,103.903L197.463,103.762L197.463,20L354.898,20L506.695,20L662.016,20L674.701,61.311L666.103,68.903L671.741,111.867L686.117,161.41L701.057,171.542L722.481,186.816L702.608,210.259L673.855,216.993L661.452,229.542L657.646,256.721L640.733,316.428L644.961,332.59L638.619,367.283L622.833,406.875L599.154,426.749L582.382,457.269L578.436,473.544L559.831,484.742L548.273,526.34L548.837,561.979L548.414,531.11L542.918,530.304L543.622,510.538L538.971,496.872L518.816,481.168L514.024,452.402L518.816,422.886L500.634,420.106L497.956,429.053L474.419,431.085L483.862,442.798L487.104,466.794L465.68,488.652L446.23,517.331L425.934,521.433L393.094,498.219L378.295,506.433L374.207,518.004L354.052,525.533L352.784,533.73L313.742,533.73L308.386,525.533L280.197,524.189L266.103,530.976L255.25,527.549L235.095,504.413L228.33,493.436L200.141,498.892L189.429,517.331L179.281,552.792L165.891,560.236L153.911,564.593Z" fill="#000000"/>
</svg>