<svg xmlns="http://www.w3.org/2000/svg" viewBox="0 0 800 600">
  <path d="M280.264,460.227L288.434,439.293L303.903,413.961L310.064,369.299L298.211,349.473L297.073,296.07L309.127,256.842L327.542,257.562L334.038,240.606L327.275,225.77L356.137,162.687L374.754,110.44L387.009,75.569L404.889,75.737L409.844,47.734L444.867,55.89L447.613,22.117L459.131,20L483.976,45.232L512.972,79.431L513.508,153.289L519.736,171.235L487.726,184.094L469.712,215.303L472.591,241.919L443.059,276.051L407.098,311.572L393.571,367.462L406.831,394.469L424.577,415.35L407.5,456.691L388.147,465.087L381.049,523.843L370.535,555.507L347.967,552.285L337.387,578.504L315.89,580L309.93,548.715L294.394,510.052Z" fill="#000000"/>
</svg>