<svg xmlns="http://www.w3.org/2000/svg" viewBox="0 0 800 600">
  <path d="M59.198,522.019L115.817,393.134L94.04,297.156L20,266.407L46.132,208.805L130.334,215.002L178.243,142.586L210.544,57.43L345.196,26.528L324.145,88.225L338.663,124.95L380.038,121.597L343.381,162.192L233.41,140.356L223.973,215.887L333.219,205.705L457.708,248.129L648.615,228.488L674.021,348.322L707.049,335.448L768.386,364.662L764.756,414.593L780,487.277L676.199,487.062L606.514,477.603L543.725,534.428L499.083,546.82L463.878,573.472L423.954,532.076L433.391,425.412L402.904,419.355L413.792,380.104L359.351,350.939L315.798,395.521L305.272,447.23L289.666,465.767L229.417,463.183L196.753,521.377L162.999,496.94L90.048,537.42Z" fill="#000000"/>
</svg>