<svg xmlns="http://www.w3.org/2000/svg" viewBox="0 0 800 600">
  <path d="M352.35,20L361.081,25.678L548.151,130.822L551.68,160.832L625.802,212.5L602.023,276.356L604.996,305.787L638.063,324.78L639.549,338.242L625.43,369.685L628.403,385.555L625.059,410.442L643.078,443.142L664.442,494.786L683.204,506.234L642.15,536.623L585.862,557.094L554.838,556.203L536.447,571.974L500.594,573.401L487.033,580L424.986,565.2L386.16,569.478L371.856,497.98L354.208,473.596L343.991,459.071L293.276,449.335L264.11,433.68L231.229,424.841L210.609,416.094L189.06,402.849L161.194,337.186L131.286,308.16L121.068,278.025L126.084,251.079L116.796,203.387L138.159,200.934L156.922,182.192L176.985,155.231L189.803,144.381L189.245,127.586L178.099,115.867L175.127,95.496L189.988,89.027L192.961,58.615L172.526,29.522L190.732,23.319L247.205,23.931Z" fill="#000000"/>
</svg>