<svg xmlns="http://www.w3.org/2000/svg" viewBox="0 0 800 600">
  <path d="M538.067,257.842L503.367,252.422L455.639,259.648L431.974,291.316L440.749,337.017L407.645,319.673L376.003,320.377L381.454,290.609L348.881,290.802L345.957,332.476L326.014,387.54L314.049,420.714L316.575,447.847L340.639,448.986L355.662,483.074L362.309,515.381L382.916,536.673L405.251,541.017L424.396,560.267L412.298,575.54L387.968,580L385.043,560.895L354.864,544.667L348.483,551.273L333.858,536.988L327.61,518.596L307.933,497.532L289.986,479.852L284.003,501.76L276.957,481.053L280.945,457.722L291.847,421.856L309.795,383.275L330.003,348.138L315.644,313.649L316.176,296.07L311.922,274.852L287.327,244.545L278.552,225.402L291.315,218.341L304.743,184.961L289.72,159.536L266.188,131.334L248.373,97.222L263.928,90.168L280.812,47.882L306.87,46.156L328.407,29.13L349.546,20L365.5,32.127L367.627,55.712L392.621,57.502L383.581,98.672L384.379,133.497L423.332,110.322L434.367,117.158L456.038,116.041L463.483,102.557L491.402,105.19L519.454,136.708L521.847,174.801L551.627,208.29L550.032,240.668Z" fill="#000000"/>
</svg>