<svg xmlns="http://www.w3.org/2000/svg" viewBox="0 0 800 600">
  <path d="M398.219,580L370.193,441.472L329.579,410.029L328.866,391.069L274.952,344.177L269.251,284.434L309.865,239.786L325.303,173.343L314.853,95.676L328.391,53.482L400.119,20L446.433,29.965L444.295,71.759L500.347,41.455L505.098,57.254L472.084,97.619L471.609,135.386L494.41,155.63L485.859,225.517L442.395,265.799L454.983,309.2L488.947,310.544L505.573,348.186L530.749,360.465L526.948,420.746L494.885,443.186L474.459,468.051L429.095,497.932L436.22,529.775L430.52,562.259Z" fill="#000000"/>
</svg>