<svg xmlns="http://www.w3.org/2000/svg" viewBox="0 0 800 600">
  <path d="M779.124,396.952L759.716,405.552L745.561,392.644L698.28,386.001L680.914,393.937L634.8,401.857L613.057,400.997L566.359,420.044L532.942,420.215L511.49,410.618L466.836,424.748L453.556,414.905L451.367,442.999L440.422,454.045L429.624,464.976L414.739,442.234L430.061,423.295L405.399,427.654L371.398,416.019L343.525,445.041L282.089,450.65L249.255,423.637L205.476,421.926L196.137,442.829L168.118,448.781L129.009,422.012L84.793,422.953L60.714,372.334L31.091,343.803L50.791,303.509L25.108,278.445L70.054,227.884L132.512,225.81L149.585,185.091L226.782,192.198L275.522,157.161L322.803,141.773L389.785,140.572L460.561,178.883L518.786,199.655L565.922,191.379L600.799,196.201L648.664,167.993L691.859,165.426L730.968,191.925L737.826,210.81L733.886,236.794L764.094,249.985L780,265.358L752.273,280.311L764.969,340.047L756.943,356.007ZM22.919,152.192L64.217,135.024L99.094,142.327L103.909,163.315L139.37,180.71L131.928,193.927L83.771,196.929L66.551,213.435L32.696,242.184L20,217.324L20.438,206.37L30.069,200.291L42.619,166.618Z" fill="#000000"/>
</svg>