<svg xmlns="http://www.w3.org/2000/svg" viewBox="0 0 800 600">
  <path d="M20,109.859L43.963,85.597L105.332,70.384L141.958,90.904L179.949,147.662L207.613,144.127L268.593,143.151L259.826,106.787L305.998,81.644L351.587,39.058L424.45,77.811L430.295,135.706L450.946,150.464L509.587,147.175L527.706,160.317L554.396,233.753L616.155,282.331L651.418,315.155L708.111,349.05L780,378.534L778.636,420.423L762.271,418.233L736.75,399.984L728.177,424.34L682.589,437.45L671.874,491.381L641.287,511.802L598.621,521.87L587.321,552.072L546.603,560.942L491.274,535.753L486.598,479.318L446.27,476.925L384.317,416.965L341.261,409.463L281.256,374.814L242.876,368.414L219.108,381.205L182.871,379.231L144.491,418.348L96.955,431.474L86.824,383.295L94.617,311.035L52.535,287.422L66.368,239.254L30.52,235.188L42.405,175.241L93.448,192.773L140.984,169.907L101.63,126.657L86.045,85.103L42.405,103.713L36.95,156.67Z" fill="#000000"/>
</svg>