<svg xmlns="http://www.w3.org/2000/svg" viewBox="0 0 800 600">
  <path d="M429.722,89.812L445.533,92.487L456.175,76.869L468.946,80.372L512.731,73.712L539.792,112.535L529.15,126.364L532.647,147.335L566.397,150.646L581.448,179.716L580.536,192.8L634.051,216.125L666.433,205.605L692.583,236.504L717.211,235.838L779.544,257.084L780,276.107L762.821,309.913L772.246,345.084L765.557,366.154L724.661,370.736L702.921,388.255L701.552,415.882L667.802,420.919L639.676,440.884L600.148,444.113L563.813,466.941L565.941,499.562L559.556,497.718L554.083,485.709L540.552,483.343L510.45,470.248L499.352,485.297L493.575,478.709L427.898,463.32L425.009,440.363L385.937,447.964L370.278,481.593L337.592,526.288L318.436,516.01L298.52,525.678L279.668,514.583L290.31,508.052L297.76,487.251L309.314,467.872L306.273,456.895L315.091,452.017L319.196,460.42L344.129,462.284L355.379,457.725L347.473,451.498L350.362,442.343L335.615,426.68L329.534,400.726L314.179,390.478L317.219,369.245L298.216,352.265L280.732,349.909L249.718,330.134L221.592,336.381L211.558,345.728L193.619,345.728L183.129,360.606L151.962,366.581L137.52,376.267L117.908,360.926L90.846,360.606L64.697,353.657L46.453,367.22L43.565,350.231L20,332.936L28.362,307.199L40.068,290.436L49.19,294.253L38.396,265.125L76.707,210.646L97.688,202.914L102.096,184.234L80.964,125.559L101.184,122.912L124.293,104.439L156.979,102.817L199.7,108.258L246.829,124.524L279.972,125.904L295.935,135.779L311.746,123.948L322.845,139.788L360.852,136.581L377.728,143.107L380.464,108.836L393.387,93.882Z" fill="#000000"/>
</svg>