<svg xmlns="http://www.w3.org/2000/svg" viewBox="0 0 800 600">
  <path d="M278.03,342.223L249.68,329.059L226.461,330.032L234.155,295.53L226.461,260.57L257.915,257.904L298.144,298.158ZM394.398,371.554L394.533,371.554L399.933,334.786L374.823,295.201L374.283,294.324L328.789,282.901L319.879,265.228L333.514,235.806L321.094,217.473L300.979,248.775L298.684,184.532L279.785,149.891L293.419,78.101L322.579,20.244L352.548,25.968L397.773,20L357.678,96.741L395.883,87.141L436.922,87.497L427.202,143.975L393.453,204.8L432.197,209.107L435.167,216.118L468.646,293.667L494.296,304.061L517.38,376.553L528.045,401.199L573.539,413.071L568.95,452.41L549.78,470.226L564.765,501.356L531.015,532.64L480.931,532.038L417.077,548.35L399.528,536.751L374.823,564.269L340.129,557.614L313.804,580L293.824,568.334L348.768,506.122L382.383,493.225L382.113,493.123L323.524,483.129L312.859,459.014L352.143,440.087L331.624,406.774L338.644,365.799Z" fill="#000000"/>
</svg>