<svg xmlns="http://www.w3.org/2000/svg" viewBox="0 0 800 600">
  <path d="M377.008,333.457L395.885,333.457L415.599,333.457L422.13,333.457L442.394,333.457L461.989,333.457L481.942,333.457L501.871,333.457L524.456,333.457L547.208,333.457L560.965,333.457L560.989,329.55L563.238,329.498L564.41,335.083L566.468,336.789L571.109,337.402L577.904,338.999L584.339,342.093L589.722,340.793L597.905,343.389L600.082,343.288L606.015,340.472L612.259,344.078L618.767,347.909L624.126,351.182L629.294,354.302L629.94,356.848L631.495,357.797L631.088,358.761L632.882,359.055L634.174,358.059L634.509,360.342L635.849,361.853L637.667,361.853L638.648,363.036L637.811,364.734L644.749,369.185L646.16,377.696L647.5,385.735L645.562,391.126L642.428,396.101L640.969,399.247L640.825,400.171L641.567,401.455L643.816,402.857L645.491,402.857L653.218,398.079L660.061,396.665L668.745,392.186L668.865,391.265L668.267,388.476L667.214,386.681L670.205,385.238L676.736,385.191L682.837,385.206L684.966,381.605L685.78,380.885L692.813,374.188L695.804,372.456L705.9,372.393L718.15,372.393L718.82,370.065L720.949,369.585L723.772,368.128L726.14,363.797L728.15,356.307L733.222,348.941L735.423,351.513L739.897,349.855L742.84,352.686L742.84,365.814L747.17,371.166L748.319,374.251L741.237,378.767L734.394,381.965L727.385,384.693L723.868,390.126L722.743,392.171L722.671,396.954L724.872,401.697L727.624,401.923L726.93,398.656L728.916,400.639L728.389,403.189L723.892,404.632L720.71,404.466L715.805,406.011L712.91,406.445L709.034,406.879L703.508,409.431L713.269,407.776L715.231,409.446L705.924,412.075L701.69,412.09L701.881,411.022L699.871,413.452L701.833,413.851L700.398,420.083L695.541,426.699L695.062,424.497L693.603,424.061L691.426,421.908L692.79,426.525L694.44,428.042L694.56,431.252L692.431,434.544L688.675,441.247L688.076,440.908L690.134,435.201L686.737,431.983L685.947,424.903L684.679,428.59L686.091,433.973L681.712,432.642L686.282,435.372L686.569,443.334L688.459,443.911L689.153,446.773L690.086,454.996L685.875,461.038L678.985,463.431L674.631,468.137L671.305,468.652L667.932,471.585L666.999,474.264L659.702,479.391L655.946,483.13L652.812,487.772L651.783,493.275L652.979,498.634L655.18,505.168L658.147,510.535L658.171,513.804L661.329,522.487L661.113,527.492L660.826,530.37L659.175,534.87L657.19,535.801L653.912,534.907L652.859,531.681L650.347,529.983L646.806,523.609L643.72,517.897L642.715,514.963L644.079,509.946L642.237,505.773L637.045,499.387L634.461,498.218L627.739,501.694L626.566,501.306L623.336,497.737L619.173,495.823L611.661,496.8L605.752,495.94L600.68,496.474L597.952,497.672L599.149,499.712L599.029,502.82L600.441,504.33L599.173,505.322L596.708,504.201L594.22,505.644L589.387,505.413L584.435,501.384L578.645,502.328L573.812,500.555L569.673,501.099L564.075,502.884L558.022,508.523L551.419,511.788L547.782,515.382L546.275,518.759L546.203,523.898L546.538,527.466L547.782,529.983L545.199,530.208L540.485,528.582L535.294,526.275L533.428,522.79L531.968,517.555L528.045,513.268L525.748,508.844L522.422,503.646L517.733,500.594L512.302,500.736L508.115,506.764L502.613,504.485L499.168,502.186L497.517,497.971L495.316,493.942L491.368,490.535L487.971,488.088L485.531,485.316L474.023,485.316L474.023,488.536L468.735,488.536L455.529,488.589L440.361,483.09L430.336,479.271L430.958,477.722L422.513,478.577L414.953,479.191L413.852,475.15L409.546,470.573L406.436,469.613L405.718,467.323L401.986,466.916L399.593,464.753L393.421,463.949L391.722,462.652L390.933,458.209L384.473,449.986L378.946,438.444L379.186,436.497L376.243,433.716L371.099,426.598L370.19,419.585L366.649,414.84L368.108,407.582L367.869,399.959L365.74,393.06L368.348,384.46L369.161,376.055L369.951,367.518L368.754,354.648L366.649,346.256L364.735,341.654L365.525,339.711L375.142,343.086L378.683,352.389L380.334,349.805L379.257,341.705ZM160.61,571.802L161.783,572.413L162.859,573.358L164.558,575.831L164.39,576.225L161.806,577.727L159.677,578.822L158.696,580L157.045,579.001L157.237,577.036L156.136,574.458L156.471,573.681L157.62,572.521L157.165,571.131L157.548,570.472L158.05,570.604ZM156.663,566.941L156.112,567.795L153.863,568.312L152.739,566.809L151.973,566.231L151.902,565.786L152.548,565.183L154.916,565.858ZM151.591,564.014L151.375,564.774L147.811,564.569L148.313,563.7ZM143.169,560.147L143.719,560.607L145.633,562.976L145.275,563.386L144.82,563.29L142.499,563.036L141.662,561.429L141.399,561.139ZM134.269,556.581L134.389,558.256L133.599,558.96L131.374,557.662L131.709,557.14L132.738,556.435ZM87.066,201.468L92.329,202.695L92.975,207.795L88.884,209.854L84.53,207.391L80.511,203.761ZM175.037,232.809L179.463,233.657L182.262,237.514L176.52,243.373L169.893,248.011L166.496,244.883L165.467,239.127L171.496,234.714ZM256.404,52.828L256.357,118.42L256.333,202.514L262.864,202.899L269.348,206.604L273.989,212.393L279.898,220.925L286.358,213.679L293.033,209.408L296.55,216.195L301.024,221.491L307.125,227.239L311.264,236.253L318.058,250.22L329.375,257.83L329.542,265.256L325.858,270.851L322.197,266.479L316.336,262.761L314.469,252.419L305.904,242.606L302.316,230.875L295.928,230.065L285.377,229.745L277.578,226.1L263.845,212.704L257.481,210.212L245.854,205.478L236.643,206.627L223.58,200.465L215.685,194.678L208.292,197.558L209.68,206.897L205.995,207.75L198.315,210.501L192.454,214.917L185.085,217.69L184.152,209.988L187.143,196.846L194.2,192.639L192.382,189.188L183.913,196.823L179.367,205.794L169.797,215.159L174.654,221.447L168.386,230.577L161.232,235.832L154.581,239.608L152.93,245.027L142.547,251.28L140.466,256.905L132.69,261.946L128.121,261.05L121.924,264.327L115.177,268.288L109.651,272.137L98.239,275.415L97.21,273.498L104.483,268.111L110.967,264.525L118.048,258.07L126.302,256.744L129.58,251.829L138.791,244.594L140.274,242.128L145.179,237.786L146.327,228.29L149.701,220.75L142.045,224.634L139.891,222.425L136.303,227.068L131.972,220.576L130.178,225.173L127.69,218.785L121.039,223.92L116.972,223.92L116.397,216.239L117.594,211.459L113.311,206.739L104.674,209.273L99.052,203.036L94.506,199.803L94.483,192.104L89.363,186.204L91.947,178.114L97.353,170.114L99.722,162.635L105.105,161.563L109.675,163.903L115.034,156.768L119.843,158.053L124.915,153.422L123.671,146.495L119.962,143.745L124.867,137.767L120.8,137.951L113.742,141.317L111.708,144.733L106.469,141.317L97.09,143.067L87.353,139.348L84.554,133.04L76.156,123.778L85.487,116.98L100.32,108.882L105.775,108.882L104.866,117.174L118.886,116.536L113.503,106.242L105.32,99.784L100.607,91.132L94.219,83.62L85.104,77.956L88.812,68.421L100.607,67.827L108.981,59.297L110.56,50.029L117.354,40.745L123.838,38.465L136.422,29.562L142.547,30.934L152.763,20L162.835,24.34L167.644,33.494L170.587,29.596L181.807,30.797L181.425,35.429L191.593,38.835L198.363,36.849L212.359,43.077L225.135,44.934L230.255,47.473L239.107,44.305L249.179,50.127ZM52.088,153.168L56.179,156.035L60.318,154.49L65.701,158.431L72.304,160.413L71.754,162.012L66.706,165.118L61.658,161.937L59.122,159.26L53.26,160.112L51.681,158.808Z" fill="#000000"/>
</svg>