<svg xmlns="http://www.w3.org/2000/svg" viewBox="0 0 800 600">
  <path d="M21.757,311.48L20,87.126L134.232,49.863L142.539,55.333L211.398,100.379L247.664,123.902L290.002,179.518L342.085,170.601L418.133,165.823L471.335,210.353L467.98,270.766L489.548,271.17L498.655,319.771L555.052,321.666L567.194,349.492L583.809,349.096L603.141,307.078L661.774,265.608L687.177,254.561L700.437,260.443L663.052,298.96L695.804,321.268L727.437,306.577L780,337.591L723.284,379.577L689.413,373.874L671.2,375.35L664.81,359.184L674.076,332.025L614.803,345.628L600.584,383.113L579.495,414.99L542.43,412.262L530.927,437.618L563.519,451.154L573.105,493.403L548.182,550.137L514.631,538.436L490.027,538.058L491.146,503.706L432.193,479.528L385.701,451.733L356.784,424.815L306.138,384.978L284.251,324.757L269.392,313.979L221.303,316.677L204.368,304.574L199.575,257.098L139.823,225.318L102.439,260.241L64.574,280.859L71.764,310.68Z" fill="#000000"/>
</svg>