<svg xmlns="http://www.w3.org/2000/svg" viewBox="0 0 800 600">
  <path d="M681.621,362.282L688.091,376.065L670.255,394.626L616.047,412.848L581.073,420.431L567.084,431.967L528.439,419.771L492.417,413.507L483.324,418.041L505.182,430.649L503.083,463.265L509.903,493.885L550.997,498.082L553.62,508.285L518.996,522.105L513.4,542.668L493.291,550.645L457.269,561.993L447.826,576.876L410.055,580L383.3,554.346L368.437,505.899L355.497,488.865L338.01,478.166L362.491,453.96L360.918,443.006L347.103,428.589L337.311,396.193L341.158,361.291L351.999,344.858L360.743,318.578L343.431,310.144L315.802,315.767L280.829,313.121L261.244,318.33L226.97,276.293L198.817,270.08L136.39,274.802L124.849,257.65L112.783,253.588L111.034,243.388L116.805,225.214L113.133,205.445L102.291,194.638L96.171,172.089L70.99,168.759L84.455,140.005L90.4,104.766L104.564,86.363L123.275,72.21L135.691,47.473L166.817,39.161L165.418,50.83L136.915,56.618L152.827,79.079L152.303,104.933L130.794,133.665L149.155,172.672L170.139,169.508L180.981,133.915L165.942,116.549L163.494,79.163L223.998,58.966L217.353,35.634L234.315,20L251.801,54.857L285.9,55.612L317.376,83.265L319.299,99.582L362.841,100.084L414.776,94.981L442.58,117.05L479.826,123.23L506.93,107.775L507.63,95.316L567.784,92.388L626.014,91.635L584.746,106.271L601.358,129.575L640.178,133.247L676.9,157.513L684.769,196.883L709.949,195.802L729.01,207.356L690.539,236.17L686.343,254.002L702.955,272.234L690.889,281.345L660.987,289.21L661.861,311.798L648.746,325.275Z" fill="#000000"/>
</svg>