<svg xmlns="http://www.w3.org/2000/svg" viewBox="0 0 800 600">
  <path d="M348.403,510.446L379.833,495.534L418.072,492.838L402.095,470.363L463.252,441.728L467.704,397.001L459.323,372.014L465.871,334.459L456.704,307.744L429.203,281.385L406.286,247.898L376.035,202.626L332.427,179.644L342.903,165.802L366.213,155.662L352.07,121.849L307.283,121.52L290.914,86.052L269.699,55.092L289.211,45.423L318.153,45.623L353.642,41.083L384.547,20L402.095,34.867L435.358,42.085L429.596,64.744L446.882,80.683L483.55,90.886L434.965,124.219L404.714,160.832L396.726,187.596L424.489,228.052L458.537,277.851L491.538,301.275L513.67,331.651L530.301,401.117L525.456,466.655L495.074,491.082L453.43,514.954L423.703,545.708L378.392,580L365.166,556.442L375.38,531.403Z" fill="#000000"/>
</svg>