<svg xmlns="http://www.w3.org/2000/svg" viewBox="0 0 800 600">
  <path d="M699.781,58.768L756.299,184.433L780,237.317L727.649,257.497L713.585,291.027L712.022,316.602L639.877,348.226L524.236,383.205L459.383,435.914L427.608,440.078L405.99,435.662L363.537,466.554L317.437,480.91L256.751,484.686L238.52,488.964L222.632,508.582L203.619,513.986L192.419,532.824L156.737,531.192L133.557,541.232L83.55,537.467L64.798,494.122L66.881,453.447L54.901,431.497L40.836,376.241L20,345.434L34.585,341.754L27.032,307.445L35.888,292.937L32.762,260.177L64.277,236.039L56.984,204.175L76.258,166.975L105.949,186.614L125.483,179.814L209.088,178.017L222.111,185.588L292.173,193.282L319.781,189.435L338.012,214.676L371.871,201.997L423.701,122.329L491.158,88.004Z" fill="#000000"/>
</svg>