<svg xmlns="http://www.w3.org/2000/svg" viewBox="0 0 800 600">
  <path d="M571.042,25.75L594.439,40.131L616.828,49.628L652.529,59.225L684.196,76.223L710.619,101.603L724.94,149.861L715.46,165.3L704.164,211.606L714.854,259.115L697.307,279.035L680.162,332.521L709.812,347.464L539.778,395.141L545.023,436.502L502.666,444.476L470.595,467.641L463.939,487.887L443.769,492.435L395.159,540.597L364.097,578.704L345.137,580L326.984,573.223L264.256,566.75L254.171,562.37L253.767,557.495L231.782,544.273L195.476,540.895L149.488,554.213L112.98,517.58L75.06,469.812L77.683,285.649L194.467,286.33L189.626,266.594L197.896,245.041L188.013,218.19L194.467,190.515L188.618,172.735L207.981,174.184L211.007,191.966L237.429,190.515L272.929,195.834L291.687,221.774L336.464,229.817L370.753,211.703L383.259,241.743L426.221,249.698L446.996,274.174L469.99,305.801L512.751,306.289L508.111,244.362L492.782,254.746L453.652,232.434L438.525,222.259L445.383,164.914L455.266,97.563L442.761,72.476L458.695,36.295L473.822,29.488L549.057,20Z" fill="#000000"/>
</svg>