<svg xmlns="http://www.w3.org/2000/svg" viewBox="0 0 800 600">
  <path d="M567.26,578.282L525.55,569.839L499.059,580L461.296,565.691L429.45,564.69L379.568,526.571L318.977,513.749L295.868,460.466L295.868,431.01L262.331,421.96L173.558,330.54L149.04,282.613L133.258,267.932L103.104,201.984L190.749,211.029L216.113,220.497L242.604,218.687L286.004,165.443L353.923,98.15L382.104,91.796L391.405,63.508L436.214,31.142L495.396,20L500.468,50.278L565.85,48.625L601.923,65.852L618.832,85.996L656.033,91.934L696.896,118.197L696.896,222.029L681.678,279.116L678.296,341.072L690.978,365.681L682.242,414.753L670.405,422.242L649.551,482.604Z" fill="#000000"/>
</svg>