<svg xmlns="http://www.w3.org/2000/svg" viewBox="0 0 800 600">
  <path d="M523.913,318.189L525.135,318.984L551.331,333.707L551.825,337.909L562.204,345.144L558.874,354.086L559.291,358.207L563.921,360.867L564.129,362.752L562.152,367.155L562.568,369.377L562.1,372.862L564.623,377.441L567.615,384.672L570.242,386.275L564.493,390.531L556.611,393.397L552.267,393.273L549.692,395.481L544.671,395.681L542.772,396.605L534.084,394.532L528.647,395.132L526.644,385.12L524.173,381.705L522.742,379.671L515.641,378.308L511.557,376.116L506.952,374.878L504.065,373.653L501.047,371.799L497.146,362.604L492.957,358.539L491.527,354.32L492.229,350.546L490.928,343.868L493.92,343.525L496.547,340.9L499.357,337.125L501.152,335.606L501.073,333.254L499.513,331.613L499.096,328.76L501.178,327.854L501.594,323.596L498.732,319.522L501.282,318.653L509.19,318.739ZM216.309,103.231L216.335,103.783L216.179,105.355L216.153,117.601L192.455,117.179L192.689,137.528L185.9,138.234L184.131,142.274L185.51,153.53L157.208,153.477L155.647,156.061L155.959,152.794L156.089,152.808L172.347,152.177L173.206,149.373L176.171,145.876L178.564,135.034L188.605,126.491L192.013,116.404L194.25,115.805L196.617,109.519L202.704,108.655L205.306,109.697L208.583,109.697L210.925,107.858L215.399,107.597L215.217,103.231ZM490.928,343.868L492.229,350.546L491.527,354.32L492.957,358.539L497.146,362.604L501.047,371.799L498.212,371.057L488.509,372.281L486.558,373.159L484.503,377.825L486.116,381.06L484.841,389.746L483.957,397.142L485.908,398.454L490.954,401.332L492.931,399.993L493.53,407.979L488.015,407.916L485.049,403.837L482.37,400.681L476.829,399.655L475.217,395.781L470.794,398.117L465.019,397.08L462.6,393.734L458.022,393.048L454.614,393.235L454.224,390.942L451.727,390.755L448.423,390.319L443.949,391.428L440.801,391.241L439.032,391.914L439.423,383.17L437.003,380.452L436.457,375.955L437.524,371.551L436.067,368.735L435.937,364.145L427.171,364.206L427.795,361.581L424.101,361.606L423.711,362.875L419.237,363.159L417.442,367.401L416.349,369.229L412.343,368.204L409.976,369.229L405.19,369.809L402.432,365.995L400.767,363.639L398.686,359.278L396.917,353.865L375.587,353.766L373.038,354.639L370.956,354.504L367.965,355.476L366.95,353.225L368.797,352.463L369.032,349.294L370.202,347.427L372.829,345.905L374.728,346.641L377.2,343.868L381.154,343.942L381.596,345.991L384.301,347.28L388.567,342.74L392.755,339.196L394.602,336.88L394.342,330.927L397.49,323.902L400.793,320.183L405.554,316.696L406.386,314.385L406.568,311.743L407.739,309.236L407.375,305.139L408.259,298.728L409.69,294.225L411.849,290.356L412.265,285.983L412.915,280.933L415.725,277.253L419.601,274.921L425.558,277.376L430.162,280.05L435.443,280.774L440.827,282.184L442.986,277.805L443.975,277.241L447.279,277.977L455.317,274.356L458.178,275.89L460.519,275.67L461.586,273.914L464.291,273.287L469.728,274.049L474.358,274.221L476.725,273.447L481.122,279.437L484.347,280.307L486.298,279.093L489.628,279.572L493.66,278.038L495.377,281.129L501.724,285.946L501.308,294.408L504.195,295.388L501.88,297.958L499.096,299.879L496.339,303.646L494.804,306.998L494.414,312.807L492.723,315.559L492.671,321.014L490.59,323.033L490.33,327.328L489.342,327.891L488.665,331.845L490.486,335.128ZM579.425,323.486L575.132,317.516L575.054,291.189L581.376,282.98L583.353,280.7L587.983,280.565L594.408,275.449L603.825,275.129L624.245,253.303L629.291,247.207L632.543,242.711L632.543,238.889L632.543,231.476L632.569,228.434L632.621,228.322L634.936,228.172L638.266,227.074L642.09,226.337L645.524,223.813L648.255,223.788L648.411,225.825L647.761,230.118L647.787,233.979L646.252,236.64L644.223,244.57L640.737,252.722L636.263,262.034L630.072,272.686L623.907,280.798L615.401,290.674L608.169,296.538L597.374,303.708L590.636,309.212L582.728,317.956L581.063,321.773ZM562.204,345.144L551.825,337.909L551.331,333.707L525.135,318.984L523.913,318.189L523.835,310.52L525.916,307.597L529.48,302.815L532.107,297.542L528.907,289.242L528.075,285.616L524.641,280.577L529.089,276.259L533.98,271.469L537.752,272.686L537.752,276.762L540.223,279.142L545.244,279.142L554.4,285.297L556.663,285.37L558.354,285.174L559.967,286.008L564.779,286.584L566.912,283.557L573.52,280.528L576.433,282.98L581.376,282.98L575.054,291.189L575.132,317.516L579.425,323.486L574.352,326.374L572.583,329.385L569.878,329.923L568.837,335.018L566.522,337.934L565.117,342.752ZM456.461,251.647L450.946,248.457L448.449,246.353L447.981,244.074L449.152,241.024L449.126,238.032L444.963,233.444L444.157,230.292L444.235,228.509L441.582,226.337L441.504,222.049L439.995,219.194L437.446,219.62L438.174,216.898L440.047,213.809L439.215,210.726L441.608,208.445L440.099,206.704L441.998,202.091L445.302,196.575L451.545,197.095L451.181,167.001L451.259,163.778L459.583,163.752L459.583,148.292L488.639,148.292L516.655,148.292L545.322,148.292L547.663,155.917L546.076,157.318L547.116,165.248L549.77,174.391L552.527,176.261L556.481,179.08L552.813,183.407L547.507,184.65L545.218,186.966L544.515,191.982L541.394,203.002L542.174,205.985L541.003,212.388L538.09,219.695L533.72,223.363L530.624,228.996L529.896,232L526.462,234.066L524.329,241.744L524.433,248.321L524.355,242.624L523.341,242.475L523.471,238.827L522.612,236.305L518.892,233.407L518.008,228.098L518.892,222.65L515.537,222.137L515.042,223.788L510.698,224.163L512.441,226.325L513.039,230.754L509.085,234.788L505.496,240.081L501.75,240.838L495.689,236.553L492.957,238.069L492.203,240.205L488.483,241.595L488.249,243.107L481.043,243.107L480.055,241.595L474.852,241.347L472.251,242.599L470.248,241.967L466.528,237.697L465.28,235.671L460.077,236.678L458.1,240.081L456.227,246.626L453.756,247.999L451.545,248.804ZM451.181,167.001L451.545,197.095L445.302,196.575L441.998,202.091L440.099,206.704L441.608,208.445L439.215,210.726L440.047,213.809L438.174,216.898L437.446,219.62L439.995,219.194L441.504,222.049L441.582,226.337L444.235,228.509L444.157,230.292L439.579,231.551L435.911,234.526L430.682,242.537L423.893,245.92L416.895,245.474L414.866,246.143L415.595,248.717L411.823,251.276L408.753,254.118L399.649,256.907L397.854,255.253L396.657,255.118L395.305,256.993L389.348,257.536L390.466,255.562L388.203,250.535L387.189,247.504L384.041,246.267L379.775,241.992L381.336,238.529L384.639,239.274L386.668,238.753L390.7,238.827L386.772,232.149L387.033,227.249L386.564,222.35L383.677,217.614L384.405,214.11L379.775,213.947L379.775,209.164L376.783,206.401L379.905,196.549L389.114,189.457L389.504,179.608L392.287,164.103L393.848,160.794L390.83,158.142L390.726,155.681L388.021,153.674L386.252,141.544L393.536,137.249L422.358,152.229ZM397.048,526.942L400.507,522.885L403.343,525.133L404.565,528.642L407.817,529.243L412.369,530.808L416.245,530.207L422.696,525.995L422.696,496.139L424.647,497.325L428.939,504.933L428.263,509.839L429.876,512.672L435.053,511.85L438.668,508.242L442.102,505.831L443.871,501.988L447.383,500.134L450.426,501.094L453.886,503.344L459.765,503.738L464.395,501.866L465.124,499.377L466.372,495.56L470.326,494.927L472.485,491.945L474.904,486.688L481.382,480.806L491.605,475.05L494.544,475.142L498.03,476.463L500.475,475.525L504.325,476.304L507.785,487.355L509.658,492.965L508.383,501.853L508.981,504.729L505.34,503.263L503.259,503.833L502.582,506.171L500.605,509.197L500.657,511.987L504.975,516.38L509.216,515.513L510.672,511.904L516.161,511.973L514.34,517.881L513.508,524.675L511.635,528.391L506.692,532.559L505.288,533.765L502.218,537.987L500.215,542.273L496.105,548.309L487.937,557.059L482.838,562.206L477.376,566.128L469.832,569.484L466.164,569.939L465.228,572.353L460.831,571.057L457.242,572.722L449.412,571.042L445.041,572.103L442.05,571.646L434.61,575.086L428.419,576.478L423.971,579.791L420.667,580L417.624,576.878L415.179,576.715L412.057,572.81L411.719,574.021L410.756,571.675L410.808,566.596L408.467,560.825L410.782,559.259L410.6,552.722L405.866,544.816L402.25,537.719L402.224,537.705ZM488.327,530.067L485.18,527.527L481.798,529.201L477.87,532.446L474.02,537.705L479.457,544.133L482.032,543.295L483.359,540.63L487.391,539.314L488.613,536.605L490.824,532.559ZM488.327,530.067L490.824,532.559L488.613,536.605L487.391,539.314L483.359,540.63L482.032,543.295L479.457,544.133L474.02,537.705L477.87,532.446L481.798,529.201L485.18,527.527ZM504.325,476.304L500.475,475.525L498.03,476.463L494.544,475.142L491.605,475.05L487,471.531L481.408,470.348L479.275,465.429L479.275,462.71L476.179,461.875L467.985,453.437L465.722,449.013L464.265,447.658L461.482,441.57L469.572,442.405L471.913,443.279L474.358,443.112L478.364,438.198L484.633,431.986L487.235,431.4L488.093,428.789L492.229,425.801L497.692,424.773L498.16,427.567L504.195,427.415L507.525,429.005L509.085,430.864L512.519,431.412L516.291,433.837L516.291,443.421L514.886,448.69L514.574,454.409L515.745,456.68L514.938,461.21L513.846,461.901L511.921,467.473ZM491.605,475.05L481.382,480.806L474.904,486.688L472.485,491.945L470.326,494.927L466.372,495.56L465.124,499.377L464.395,501.866L459.765,503.738L453.886,503.344L450.426,501.094L447.383,500.134L443.871,501.988L442.102,505.831L438.668,508.242L435.053,511.85L429.876,512.672L428.263,509.839L428.939,504.933L424.647,497.325L422.696,496.139L422.696,473.164L429.824,472.9L430.032,445.492L435.417,445.248L446.55,442.585L449.308,445.711L453.912,442.739L456.123,442.714L460.181,441.006L461.482,441.57L464.265,447.658L465.722,449.013L467.985,453.437L476.179,461.875L479.275,462.71L479.275,465.429L481.408,470.348L487,471.531ZM422.696,496.139L422.696,525.995L416.245,530.207L412.369,530.808L407.817,529.243L404.565,528.642L403.343,525.133L400.507,522.885L397.048,526.942L391.663,520.752L388.853,514.798L387.241,506.933L385.472,501.121L383.053,488.878L382.87,479.467L381.96,475.208L379.151,472.005L375.405,465.586L371.607,456.356L370.046,451.546L364.167,444.102L363.725,438.287L367.211,436.841L371.529,435.562L376.211,435.779L380.529,439.197L381.622,438.672L410.912,438.339L415.907,441.981L433.414,443.048L446.68,439.954L452.611,438.236L457.294,438.672L460.129,440.377L460.181,441.006L456.123,442.714L453.912,442.739L449.308,445.711L446.55,442.585L435.417,445.248L430.032,445.492L429.824,472.9L422.696,473.164ZM158.17,212.149L155.179,206.351L151.589,203.697L154.763,202.281L158.248,197.019L159.965,193.154L162.462,190.746L166.052,191.396L169.564,189.751L173.596,189.674L177.056,191.88L181.842,193.879L186.212,199.405L190.999,204.532L191.337,209.177L192.742,213.432L195.447,215.518L196.071,218.391L195.733,220.697L194.692,221.11L190.765,220.522L190.218,221.348L188.631,221.511L183.429,219.707L179.943,219.632L166.598,219.319L164.647,220.158L162.254,219.92L158.43,221.123L157.234,215.442L163.815,215.605L165.558,214.563L166.859,214.5L169.538,212.79L172.633,214.349L175.781,214.487L178.903,212.815L177.446,210.676L175.053,211.922L172.816,211.884L169.954,210.059L167.665,210.172L166.026,211.935ZM195.733,220.697L196.071,218.391L195.447,215.518L192.742,213.432L191.337,209.177L190.999,204.532L193.418,203.179L194.64,198.771L196.93,198.593L201.976,200.685L206.06,199.202L208.844,199.696L209.936,198.035L238.915,197.921L240.527,192.657L239.279,191.727L235.793,158.835L232.307,124.994L243.363,124.859L267.737,142.102L292.111,159.07L293.828,162.684L298.328,164.884L301.684,166.131L301.762,171.006L309.774,170.255L309.8,187.758L305.846,192.785L305.222,197.413L298.796,198.606L288.938,199.253L286.284,201.913L281.654,202.205L277.024,202.243L275.203,200.799L271.223,201.863L264.485,204.974L263.107,207.297L257.488,210.638L256.499,212.551L253.482,214.06L249.996,213.067L248.019,214.877L246.953,219.958L241.204,226.088L241.386,228.584L239.409,231.701L239.877,235.969L236.912,237.063L235.221,237.982L234.102,234.837L232.021,235.671L230.772,235.534L229.446,237.672L223.853,237.61L221.85,236.504L220.914,237.175L218.702,235.061L219.093,232.871L218.182,232.012L216.647,232.734L216.934,230.342L218.416,228.447L215.451,225.351L214.592,223.313L212.98,221.686L211.549,221.498L209.806,222.537L207.465,223.525L205.488,225.126L202.392,224.526L200.389,222.65L199.193,222.412L197.294,223.388L196.149,223.4ZM155.647,156.061L157.208,153.477L185.51,153.53L184.131,142.274L185.9,138.234L192.689,137.528L192.455,117.179L216.153,117.601L216.179,105.355L243.363,124.859L232.307,124.994L235.793,158.835L239.279,191.727L240.527,192.657L238.915,197.921L209.936,198.035L208.844,199.696L206.06,199.202L201.976,200.685L196.93,198.593L194.64,198.771L193.418,203.179L190.999,204.532L186.212,199.405L181.842,193.879L177.056,191.88L173.596,189.674L169.564,189.751L166.052,191.396L162.462,190.746L159.965,193.154L159.341,189.1L161.37,185.38L162.254,178.231L161.474,170.708L160.589,166.897L161.318,163.062L159.445,159.397ZM298.38,265.998L292.423,266.847L290.628,261.837L290.967,245.078L289.51,243.566L289.224,239.969L286.726,237.399L284.515,235.235L285.426,231.364L287.923,230.529L289.38,227.311L292.918,226.612L294.504,224.413L296.924,222.249L299.525,222.224L305.04,226.475L304.753,228.933L306.366,233.294L304.962,236.255L305.716,238.231L302.204,242.773L299.967,245.016L298.614,249.62L298.796,254.266ZM386.252,141.544L388.021,153.674L390.726,155.681L390.83,158.142L393.848,160.794L392.287,164.103L389.504,179.608L389.114,189.457L379.905,196.549L376.783,206.401L379.775,209.164L379.775,213.947L384.405,214.11L383.677,217.614L381.648,218.04L381.414,220.396L380.061,220.559L375.171,212.438L373.48,212.136L367.835,216.296L362.242,214.123L358.34,213.696L356.259,214.739L352.019,214.513L347.753,217.676L344.085,217.852L335.319,214.022L331.911,215.844L328.217,215.718L325.512,212.916L318.254,210.134L310.502,211.016L308.629,212.627L307.615,216.898L305.534,219.883L305.04,226.475L299.525,222.224L296.924,222.249L294.504,224.413L294.66,219.344L286.336,217.664L286.102,214.073L282.044,209.214L281.082,205.821L281.654,202.205L286.284,201.913L288.938,199.253L298.796,198.606L305.222,197.413L305.846,192.785L309.8,187.758L309.774,170.255L319.971,166.845L340.885,151.677L365.65,136.769L377.07,140.163L381.128,144.46ZM298.38,265.998L298.796,254.266L298.614,249.62L299.967,245.016L302.204,242.773L305.716,238.231L304.962,236.255L306.366,233.294L304.753,228.933L305.04,226.475L305.534,219.883L307.615,216.898L308.629,212.627L310.502,211.016L318.254,210.134L325.512,212.916L328.217,215.718L331.911,215.844L335.319,214.022L344.085,217.852L347.753,217.676L352.019,214.513L356.259,214.739L358.34,213.696L362.242,214.123L367.835,216.296L373.48,212.136L375.171,212.438L380.061,220.559L381.414,220.396L384.275,223.338L383.469,224.676L383.105,227.124L377.018,232.821L375.093,237.51L374.078,241.322L372.543,242.959L371.087,248.086L367.237,251.091L366.118,254.784L364.479,257.721L363.803,260.753L358.834,263.204L354.776,260.211L352.045,260.334L347.753,264.583L345.646,264.657L342.212,271.666L340.365,276.799L332.847,279.412L330.116,279.032L327.333,280.651L321.558,280.491L317.682,275.952L315.315,270.708L310.19,265.924L304.753,266.011ZM383.677,217.614L386.564,222.35L387.033,227.249L386.772,232.149L390.7,238.827L386.668,238.753L384.639,239.274L381.336,238.529L379.775,241.992L384.041,246.267L387.189,247.504L388.203,250.535L390.466,255.562L389.348,257.536L385.706,264.915L383.963,266.232L383.417,271.863L384.145,274.921L383.547,277.081L386.98,280.872L387.579,283.471L390.258,287.208L393.562,289.536L393.874,292.829L394.628,294.935L394.108,298.839L388.385,297.125L382.532,295.216L373.428,294.935L372.517,294.543L368.251,295.473L363.855,294.506L360.421,294.972L348.663,294.812L349.704,289.107L346.894,284.317L343.591,283.091L342.134,279.841L340.261,278.799L340.365,276.799L342.212,271.666L345.646,264.657L347.753,264.583L352.045,260.334L354.776,260.211L358.834,263.204L363.803,260.753L364.479,257.721L366.118,254.784L367.237,251.091L371.087,248.086L372.543,242.959L374.078,241.322L375.093,237.51L377.018,232.821L383.105,227.124L383.469,224.676L384.275,223.338L381.414,220.396L381.648,218.04ZM285.426,231.364L284.515,235.235L286.726,237.399L289.224,239.969L289.51,243.566L290.967,245.078L290.628,261.837L292.423,266.847L286.596,268.397L284.984,265.851L283.059,261.234L282.486,257.61L284.073,251.042L282.278,248.383L281.576,242.612L281.602,237.287L278.584,233.494L279.105,231.202ZM279.105,231.202L278.584,233.494L281.602,237.287L281.576,242.612L282.278,248.383L284.073,251.042L282.486,257.61L283.059,261.234L284.984,265.851L286.596,268.397L275.255,272.649L271.249,275.142L264.745,277.241L258.294,275.178L258.632,272.317L255.485,266.06L257.384,257.844L260.427,251.721L258.502,241.309L257.514,235.795L257.696,231.613L270.234,231.277L273.434,231.813L275.775,230.617ZM220.914,237.175L221.85,236.504L223.853,237.61L229.446,237.672L230.772,235.534L232.021,235.671L234.102,234.837L235.221,237.982L236.912,237.063L239.877,235.969L243.129,237.572L244.403,239.994L247.655,241.545L250.178,239.696L253.56,239.423L258.502,241.309L260.427,251.721L257.384,257.844L255.485,266.06L258.632,272.317L258.294,275.178L255.017,275.264L249.97,273.84L245.34,273.926L236.782,275.191L231.761,277.277L224.607,279.94L223.203,279.756L223.775,273.779L224.451,272.87L224.243,270.007L221.174,266.97L218.885,266.478L216.778,264.485L218.338,261.258L217.61,257.733L217.948,255.611L219.093,255.611L219.535,252.426L218.963,251.017L219.665,250.003L222.344,249.125L220.549,243.269L218.885,240.23L219.483,237.746ZM179.943,219.632L183.429,219.707L188.631,221.511L190.218,221.348L190.765,220.522L194.692,221.11L195.733,220.697L196.149,223.4L197.294,223.388L199.193,222.412L200.389,222.65L202.392,224.526L205.488,225.126L207.465,223.525L209.806,222.537L211.549,221.498L212.98,221.686L214.592,223.313L215.451,225.351L218.416,228.447L216.934,230.342L216.647,232.734L218.182,232.012L219.093,232.871L218.702,235.061L220.914,237.175L219.483,237.746L218.885,240.23L220.549,243.269L222.344,249.125L219.665,250.003L218.963,251.017L219.535,252.426L219.093,255.611L217.948,255.611L215.919,255.426L214.436,258.362L212.407,258.325L210.977,256.771L211.471,253.846L208.453,249.373L206.554,250.201L205.02,250.362L203.017,250.782L203.095,248.098L201.95,246.18L202.184,244.062L200.623,240.974L198.594,238.355L192.82,238.343L191.129,239.733L189.152,239.895L187.903,241.483L187.071,243.504L183.221,246.725L180.047,242.401L177.238,239.522L175.391,238.579L173.596,237.113L172.764,233.867L171.697,232.249L169.616,231.04L172.816,227.449L175.001,227.586L176.9,226.35L178.486,226.337L179.631,225.363L179.007,222.913L179.813,222.137ZM158.43,221.123L162.254,219.92L164.647,220.158L166.598,219.319L179.943,219.632L179.813,222.137L179.007,222.913L179.631,225.363L178.486,226.337L176.9,226.35L175.001,227.586L172.816,227.449L169.616,231.04L165.74,227.96L162.697,227.474L161.058,225.401L161.084,224.276L158.899,222.712ZM217.948,255.611L217.61,257.733L218.338,261.258L216.778,264.485L218.885,266.478L221.174,266.97L224.243,270.007L224.451,272.87L223.775,273.779L223.203,279.756L221.304,279.817L213.864,276.357L207.309,270.843L201.144,266.859L196.279,262.17L197.996,259.841L198.386,257.721L201.664,253.772L205.02,250.362L206.554,250.201L208.453,249.373L211.471,253.846L210.977,256.771L212.407,258.325L214.436,258.362L215.919,255.426ZM183.221,246.725L187.071,243.504L187.903,241.483L189.152,239.895L191.129,239.733L192.82,238.343L198.594,238.355L200.623,240.974L202.184,244.062L201.95,246.18L203.095,248.098L203.017,250.782L205.02,250.362L201.664,253.772L198.386,257.721L197.996,259.841L196.279,262.17L194.328,261.628L189.126,258.695L185.38,254.797L184.105,252.129ZM239.877,235.969L239.409,231.701L241.386,228.584L241.204,226.088L246.953,219.958L248.019,214.877L249.996,213.067L253.482,214.06L256.499,212.551L257.488,210.638L263.107,207.297L264.485,204.974L271.223,201.863L275.203,200.799L277.024,202.243L281.654,202.205L281.082,205.821L282.044,209.214L286.102,214.073L286.336,217.664L294.66,219.344L294.504,224.413L292.918,226.612L289.38,227.311L287.923,230.529L285.426,231.364L279.105,231.202L275.775,230.617L273.434,231.813L270.234,231.277L257.696,231.613L257.514,235.795L258.502,241.309L253.56,239.423L250.178,239.696L247.655,241.545L244.403,239.994L243.129,237.572ZM476.725,273.447L474.358,274.221L469.728,274.049L464.291,273.287L461.586,273.914L460.519,275.67L458.178,275.89L455.317,274.356L447.279,277.977L443.975,277.241L442.986,277.805L440.827,282.184L435.443,280.774L430.162,280.05L425.558,277.376L419.601,274.921L415.725,277.253L412.915,280.933L412.265,285.983L407.635,285.579L402.744,284.366L398.426,288.201L394.628,294.935L393.874,292.829L393.562,289.536L390.258,287.208L387.579,283.471L386.98,280.872L383.547,277.081L384.145,274.921L383.417,271.863L383.963,266.232L385.706,264.915L389.348,257.536L395.305,256.993L396.657,255.118L397.854,255.253L399.649,256.907L408.753,254.118L411.823,251.276L415.595,248.717L414.866,246.143L416.895,245.474L423.893,245.92L430.682,242.537L435.911,234.526L439.579,231.551L444.157,230.292L444.963,233.444L449.126,238.032L449.152,241.024L447.981,244.074L448.449,246.353L450.946,248.457L456.461,251.647L460.415,254.599L460.467,256.968L465.332,260.766L468.349,263.906L470.17,268.274L475.581,271.15ZM412.265,285.983L411.849,290.356L409.69,294.225L408.259,298.728L407.375,305.139L407.739,309.236L406.568,311.743L406.386,314.385L405.554,316.696L400.793,320.183L397.49,323.902L394.342,330.927L394.602,336.88L392.755,339.196L388.567,342.74L384.301,347.28L381.596,345.991L381.154,343.942L377.2,343.868L374.728,346.641L372.829,345.905L370.124,343.414L367.939,344.641L365.026,347.771L359.095,340.091L364.609,336.096L361.878,331.307L364.349,329.495L369.214,328.601L369.812,325.407L373.662,328.87L380.035,329.176L382.246,325.762L383.183,320.953L382.376,315.314L378.968,311.034L382.09,302.668L380.295,301.237L374.91,301.824L372.881,298.092L373.428,294.935L382.532,295.216L388.385,297.125L394.108,298.839L394.628,294.935L398.426,288.201L402.744,284.366L407.635,285.579ZM360.421,294.972L363.855,294.506L368.251,295.473L372.517,294.543L373.428,294.935L372.881,298.092L374.91,301.824L380.295,301.237L382.09,302.668L378.968,311.034L382.376,315.314L383.183,320.953L382.246,325.762L380.035,329.176L373.662,328.87L369.812,325.407L369.214,328.601L364.349,329.495L361.878,331.307L364.609,336.096L359.095,340.091L351.681,332.788L346.894,326.814L342.498,319.351L342.732,316.953L344.319,314.642L346.062,309.383L347.519,304.026L349.964,303.597L360.473,303.671ZM348.663,294.812L360.421,294.972L360.473,303.671L349.964,303.597L347.519,304.026L346.166,302.925ZM501.047,371.799L504.065,373.653L506.952,374.878L511.557,376.116L515.641,378.308L519.048,381.581L520.895,387.805L519.673,389.796L518.216,395.768L519.595,401.895L517.332,404.464L515.12,411.362L518.944,413.29L497.015,419.438L497.692,424.773L492.229,425.801L488.093,428.789L487.235,431.4L484.633,431.986L478.364,438.198L474.358,443.112L471.913,443.279L469.572,442.405L461.482,441.57L460.181,441.006L460.129,440.377L457.294,438.672L452.611,438.236L446.68,439.954L441.972,435.229L437.082,429.069L437.42,405.317L452.481,405.405L451.857,402.86L452.923,400.08L451.649,396.617L452.481,393.048L451.727,390.755L454.224,390.942L454.614,393.235L458.022,393.048L462.6,393.734L465.019,397.08L470.794,398.117L475.217,395.781L476.829,399.655L482.37,400.681L485.049,403.837L488.015,407.916L493.53,407.979L492.931,399.993L490.954,401.332L485.908,398.454L483.957,397.142L484.841,389.746L486.116,381.06L484.503,377.825L486.558,373.159L488.509,372.281L498.212,371.057ZM515.641,378.308L522.742,379.671L524.173,381.705L526.644,385.12L528.647,395.132L526.644,400.743L528.647,410.381L531.17,410.267L533.772,412.672L536.789,418.06L537.414,427.695L534.292,429.272L532.081,434.501L527.373,429.845L526.826,424.544L528.361,421.071L527.945,418.073L525.083,416.191L523.08,416.873L518.944,413.29L515.12,411.362L517.332,404.464L519.595,401.895L518.216,395.768L519.673,389.796L520.895,387.805L519.048,381.581ZM528.647,395.132L534.084,394.532L542.772,396.605L544.671,395.681L549.692,395.481L552.267,393.273L556.611,393.397L564.493,390.531L570.242,386.275L571.413,389.572L571.126,396.905L572.011,403.399L572.297,415.004L573.572,418.667L571.413,424.011L568.603,429.221L563.999,433.888L557.392,436.764L549.25,440.441L541.107,448.6L538.324,449.995L533.278,455.434L530.286,457.2L529.688,462.684L533.121,468.548L534.526,473.098L534.63,475.432L535.905,475.05L535.697,482.719L534.526,486.381L536.217,487.729L535.15,491.007L532.133,493.838L526.176,496.516L517.488,500.837L514.314,503.806L514.938,507.179L516.785,507.724L516.161,511.973L510.672,511.904L510.048,508.337L508.981,504.729L508.383,501.853L509.658,492.965L507.785,487.355L504.325,476.304L511.921,467.473L513.846,461.901L514.938,461.21L515.745,456.68L514.574,454.409L514.886,448.69L516.291,443.421L516.291,433.837L512.519,431.412L509.085,430.864L507.525,429.005L504.195,427.415L498.16,427.567L497.692,424.773L497.015,419.438L518.944,413.29L523.08,416.873L525.083,416.191L527.945,418.073L528.361,421.071L526.826,424.544L527.373,429.845L532.081,434.501L534.292,429.272L537.414,427.695L536.789,418.06L533.772,412.672L531.17,410.267L528.647,410.381L526.644,400.743ZM510.672,511.904L509.216,515.513L504.975,516.38L500.657,511.987L500.605,509.197L502.582,506.171L503.259,503.833L505.34,503.263L508.981,504.729L510.048,508.337ZM372.829,345.905L370.202,347.427L369.032,349.294L368.797,352.463L366.95,353.225L365.026,347.771L367.939,344.641L370.124,343.414ZM367.965,355.476L370.956,354.504L373.038,354.639L375.587,353.766L396.917,353.865L398.686,359.278L400.767,363.639L402.432,365.995L405.19,369.809L409.976,369.229L412.343,368.204L416.349,369.229L417.442,367.401L419.237,363.159L423.711,362.875L424.101,361.606L427.795,361.581L427.171,364.206L435.937,364.145L436.067,368.735L437.524,371.551L436.457,375.955L437.003,380.452L439.423,383.17L439.032,391.914L440.801,391.241L443.949,391.428L448.423,390.319L451.727,390.755L452.481,393.048L451.649,396.617L452.923,400.08L451.857,402.86L452.481,405.405L437.42,405.317L437.082,429.069L441.972,435.229L446.68,439.954L433.414,443.048L415.907,441.981L410.912,438.339L381.622,438.672L380.529,439.197L376.211,435.779L371.529,435.562L367.211,436.841L363.725,438.287L363.049,433.53L364.037,426.919L366.534,420.058L366.924,416.847L369.266,410.142L370.983,407.087L375.119,402.246L377.46,398.954L378.214,393.485L377.824,389.311L375.665,386.686L373.74,382.239L371.971,377.837L372.361,376.326L374.572,373.418L372.387,366.377L370.904,361.495L367.289,356.89ZM499.096,328.76L499.513,331.613L501.073,333.254L501.152,335.606L499.357,337.125L496.547,340.9L493.92,343.525L490.928,343.868L490.486,335.128L488.665,331.845L493.061,332.409L495.273,328.295ZM636.913,402.146L638.838,405.292L640.633,410.192L641.804,419.16L643.677,422.655L642.948,426.258L641.674,428.471L639.228,424.062L637.85,426.284L639.228,431.859L638.604,435.05L636.601,436.802L636.133,443.215L633.297,452.103L629.734,462.684L625.259,477.402L622.502,488.317L619.25,497.514L613.372,499.404L607.05,502.788L602.888,500.742L597.165,497.891L595.162,493.69L594.694,486.674L592.145,480.408L591.469,474.786L592.769,469.178L596.099,467.84L596.125,465.259L599.585,459.425L600.235,454.526L598.544,450.9L597.191,446.098L596.593,439.107L599.116,434.871L600.105,430.087L603.695,429.807L607.727,428.267L610.406,426.906L613.58,426.817L617.69,422.54L623.647,417.934L625.806,414.185L624.817,410.997L627.887,411.891L631.867,406.736L632.023,402.271L634.416,398.967ZM158.17,212.149L166.026,211.935L167.665,210.172L169.954,210.059L172.816,211.884L175.053,211.922L177.446,210.676L178.903,212.815L175.781,214.487L172.633,214.349L169.538,212.79L166.859,214.5L165.558,214.563L163.815,215.605L157.234,215.442ZM347.441,81.334L344.371,66.161L339.923,62.718L339.845,60.641L333.94,55.505L333.316,48.962L337.764,44.072L339.455,36.795L338.31,28.288L339.793,23.667L347.649,20L352.721,21.091L352.487,25.669L358.626,22.35L359.147,24.08L355.531,28.501L355.479,32.638L357.976,34.855L357.04,42.509L352.279,46.921L353.658,51.674L357.378,51.822L359.199,55.944L361.956,57.289L361.54,63.891L358.028,66.349L355.791,69.072L350.822,72.345L351.603,75.833L350.979,79.391ZM216.179,105.355L216.335,103.783L216.309,103.231L216.257,93.512L227.937,87.403L235.143,86.136L241.048,83.894L243.831,79.717L252.259,76.389L252.571,70.122L256.759,69.389L260.037,66.234L269.48,64.803L270.806,61.469L268.908,59.652L266.41,50.511L265.968,45.201L263.263,39.553L270.208,34.704L278.012,33.166L282.564,29.473L289.536,26.736L301.788,25.135L313.728,24.401L317.37,25.73L324.185,22.181L331.911,22.104L334.85,24.203L339.793,23.667L338.31,28.288L339.455,36.795L337.764,44.072L333.316,48.962L333.94,55.505L339.845,60.641L339.923,62.718L344.371,66.161L347.441,81.334L349.782,88.695L350.172,92.534L348.897,99.245L349.444,102.982L348.507,107.432L349.132,112.517L346.27,115.887L350.536,121.738L350.822,125.156L353.398,129.597L356.779,128.132L362.476,131.824L365.65,136.769L340.885,151.677L319.971,166.845L309.774,170.255L301.762,171.006L301.684,166.131L298.328,164.884L293.828,162.684L292.111,159.07L267.737,142.102L243.363,124.859ZM542.174,205.985L541.394,203.002L544.515,191.982L545.218,186.966L547.507,184.65L552.813,183.407L556.481,179.08L560.669,187.848L562.672,194.757L566.626,198.416L576.485,205.479L580.491,209.718L584.419,214.01L586.682,216.56L590.22,218.792L588.061,220.597L584.965,219.958L582.494,217.563L579.529,213.218L576.303,210.827L574.456,208.256L568.161,205.265L563.192,205.176L561.45,203.609L557.209,205.366L552.839,201.977L550.576,207.55ZM263.263,39.553L265.968,45.201L266.41,50.511L268.908,59.652L270.806,61.469L269.48,64.803L260.037,66.234L256.759,69.389L252.571,70.122L252.259,76.389L243.831,79.717L241.048,83.894L235.143,86.136L227.937,87.403L216.257,93.512L216.309,103.231L215.217,103.231L215.399,107.597L210.925,107.858L208.583,109.697L205.306,109.697L202.704,108.655L196.617,109.519L194.25,115.805L192.013,116.404L188.605,126.491L178.564,135.034L176.171,145.876L173.206,149.373L172.347,152.177L156.089,152.808L155.959,152.794L156.297,149.189L159.055,147.065L161.422,142.99L160.954,140.336L163.451,134.78L167.483,129.745L169.902,128.469L171.827,123.834L171.983,119.57L174.584,114.606L179.397,111.655L184.001,103.369L184.131,103.258L187.747,100.119L194.484,99.217L200.155,93.596L203.797,91.387L209.832,84.458L208.011,74.019L210.769,66.724L211.731,62.21L216.387,56.398L223.619,52.439L228.978,48.844L233.816,39.747L236.079,34.312L241.412,34.343L245.756,38.115L252.623,37.5L260.115,39.463ZM545.322,148.292L516.655,148.292L488.639,148.292L459.583,148.292L459.583,119.204L459.583,90.239L457.424,83.541L459.271,78.368L458.152,74.762L460.779,70.711L470.378,70.567L477.35,72.803L484.503,75.305L487.859,76.617L493.426,73.934L496.391,71.514L502.764,70.811L507.915,71.887L509.866,76.075L511.557,73.319L517.332,75.319L522.976,75.79L526.54,73.662L530.572,85.897L531.275,88.049L529.246,91.387L527.685,97.607L525.734,101.877L524.043,103.3L521.624,100.659L518.372,97.009L513.222,85.15L512.467,85.897L515.459,94.642L519.907,102.886L525.37,115.505L528.023,119.868L530.364,124.387L536.841,133.176L535.411,134.553L535.645,139.671L544.047,146.695ZM459.583,148.292L459.583,163.752L451.259,163.778L451.181,167.001L422.358,152.229L393.536,137.249L386.252,141.544L381.128,144.46L377.07,140.163L365.65,136.769L362.476,131.824L356.779,128.132L353.398,129.597L350.822,125.156L350.536,121.738L346.27,115.887L349.132,112.517L348.507,107.432L349.444,102.982L348.897,99.245L350.172,92.534L349.782,88.695L347.441,81.334L350.979,79.391L351.603,75.833L350.822,72.345L355.791,69.072L358.028,66.349L361.54,63.891L361.956,57.289L370.436,60.263L373.48,59.521L379.515,60.946L389.088,64.774L392.469,72.345L398.972,73.977L409.144,77.514L416.843,81.674L420.381,79.504L423.841,75.633L422.15,69.159L424.413,65.006L429.616,60.99L434.61,59.826L444.365,61.586L446.836,65.41L449.542,65.439L451.831,66.897L459.01,67.906L460.779,70.711L458.152,74.762L459.271,78.368L457.424,83.541L459.583,90.239L459.583,119.204ZM624.245,253.303L603.825,275.129L594.408,275.449L587.983,280.565L583.353,280.7L581.376,282.98L576.433,282.98L573.52,280.528L566.912,283.557L564.779,286.584L559.967,286.008L558.354,285.174L556.663,285.37L554.4,285.297L545.244,279.142L540.223,279.142L537.752,276.762L537.752,272.686L533.98,271.469L529.714,263.561L526.41,261.874L525.161,258.966L521.494,255.414L517.045,254.895L519.517,250.733L523.341,250.56L524.433,248.321L524.329,241.744L526.462,234.066L529.896,232L530.624,228.996L533.72,223.363L538.09,219.695L541.003,212.388L542.174,205.985L550.576,207.55L552.839,201.977L557.209,205.366L561.45,203.609L563.192,205.176L568.161,205.265L574.456,208.256L576.303,210.827L579.529,213.218L582.494,217.563L584.965,219.958L582.416,223.225L579.971,226.687L580.543,228.721L580.647,230.965L584.679,231.09L586.422,230.567L588.035,231.887L586.448,234.489L589.127,238.529L591.781,242.066L594.538,244.669L618.184,253.352ZM584.965,219.958L588.061,220.597L590.22,218.792L591.937,221.085L591.703,224.151L587.593,225.925L590.688,227.935L588.035,231.887L586.422,230.567L584.679,231.09L580.647,230.965L580.543,228.721L579.971,226.687L582.416,223.225ZM523.913,318.189L509.19,318.739L501.282,318.653L498.732,319.522L494.414,321.748L492.671,321.014L492.723,315.559L494.414,312.807L494.804,306.998L496.339,303.646L499.096,299.879L501.88,297.958L504.195,295.388L501.308,294.408L501.724,285.946L504.715,283.973L509.294,285.591L515.12,283.9L520.193,283.912L524.641,280.577L528.075,285.616L528.907,289.242L532.107,297.542L529.48,302.815L525.916,307.597L523.835,310.52ZM498.732,319.522L501.594,323.596L501.178,327.854L499.096,328.76L495.273,328.295L493.061,332.409L488.665,331.845L489.342,327.891L490.33,327.328L490.59,323.033L492.671,321.014L494.414,321.748ZM501.724,285.946L495.377,281.129L493.66,278.038L489.628,279.572L486.298,279.093L484.347,280.307L481.122,279.437L476.725,273.447L475.581,271.15L470.17,268.274L468.349,263.906L465.332,260.766L460.467,256.968L460.415,254.599L456.461,251.647L451.545,248.804L453.756,247.999L456.227,246.626L458.1,240.081L460.077,236.678L465.28,235.671L466.528,237.697L470.248,241.967L472.251,242.599L474.852,241.347L480.055,241.595L481.043,243.107L488.249,243.107L488.483,241.595L492.203,240.205L492.957,238.069L495.689,236.553L501.75,240.838L505.496,240.081L509.085,234.788L513.039,230.754L512.441,226.325L510.698,224.163L515.042,223.788L515.537,222.137L518.892,222.65L518.008,228.098L518.892,233.407L522.612,236.305L523.471,238.827L523.341,242.475L524.355,242.624L524.433,248.321L523.341,250.56L519.517,250.733L517.045,254.895L521.494,255.414L525.161,258.966L526.41,261.874L529.714,263.561L533.98,271.469L529.089,276.259L524.641,280.577L520.193,283.912L515.12,283.9L509.294,285.591L504.715,283.973Z" fill="#000000"/>
</svg>