<svg xmlns="http://www.w3.org/2000/svg" viewBox="0 0 800 600">
  <path d="M263.304,191.34L264.311,190.205L265.094,184.821L270.462,183.689L277.358,185.546L284.23,190.982L288.684,195.224L293.756,200.449L294.159,206.327L294.046,211.64L293.572,217.132L292.612,222.571L288.638,226.231L283.005,225.826L278.49,222.033L278.555,215.446L276.201,210.755L272.501,205.578L269.218,201.211L266.485,196.629ZM263.98,248.273L266.784,243.54L270.402,239.538L266.106,235.125L262.367,231.497L268.777,232.144L274.707,236.436L279.948,240.237L275.94,243.459L274.414,248.392L268.869,249.013L268.361,248.785ZM134.745,230.293L134.043,226.745L136.186,221.731L129.767,218.161L124.876,216.253L114.055,212.795L108.692,207.898L108.191,202.606L114.072,201.811L119.418,202.52L126.158,202.75L132.414,203.422L138.846,204.532L144.977,206.361L149.83,209.15L154.298,212.217L154.285,217.768L155.27,223.33L153.226,228.682L148.59,224.915L148.867,230.496L149.343,235.772L144.418,237.925L138.721,236.666ZM139.083,359.685L136.052,357.424L136.85,351.386L136.833,344.742L138.032,339.582L135.763,334.923L143.457,331.43L142.752,334.948L144,340.137L144.282,345.561L146.148,351.24L144.294,356.171ZM195.01,430.435L190.539,432.23L190.055,426.707L189.286,421.01L184.706,417.96L190.205,417.564L195.225,419.027L197.099,424.355ZM203.684,447.707L199.429,447.125L199.692,441.812L200.696,433.524L201.581,435.801L203.462,440.877ZM346.035,461.273L342.828,465.864L338.333,462.059L337.109,456.895L336.854,451.421L338.436,445.143L343.811,444.999L345.52,450.857L345.547,456.157L345.405,456.999ZM391.858,380.269L391.782,380.148L390.479,388.482L388.049,383.914L387.864,384.415L386.076,388.878L385.886,388.695L385.724,388.586L384.185,382.465L381.746,388.201L381.312,388.978L376.553,390.811L375.756,387.258L375.423,385.436L374.364,380.342L371.623,375.857L370.227,370.74L367.073,366.004L362.361,368.25L359.079,363.427L358.972,358.168L354.162,360.091L349.144,361.339L344.861,366.557L348.933,370.105L351.022,375.344L349.344,380.832L351.584,385.518L348.448,391.162L345.216,396.13L342.17,400.561L339.816,405.972L341.097,410.983L340.404,416.249L341.681,421.717L337.12,418.72L331.502,418.41L330.981,412.691L325.478,414.331L319.467,416.859L315.261,419.806L312.751,425.194L313.421,430.274L314.539,435.87L318.9,439.304L322.295,443.28L326.451,446.83L325.9,452.418L327.527,457.992L327.749,463.516L322.637,478.945L321.676,477.051L320.719,471.818L315.359,470.978L309.909,470.548L310.34,463.877L305.282,462.786L300.092,463.385L294.61,464.683L288.912,466.741L283.895,465.136L281.051,469.616L279.132,474.711L275.479,478.3L270.147,477.68L271.133,472.589L265.011,471.513L259.41,471.772L255.092,468.639L250.358,466.405L244.311,465.484L239.188,464.916L233.671,463.817L232.105,461.046L231.046,458.362L225.654,455.438L224.08,449.894L220.442,446.005L215.719,443.255L213.594,438.243L211.312,432.752L207.794,428.646L204.952,423.79L202.144,418.764L198.981,414.464L193.383,413.027L189.164,409.821L189.643,404.002L185.349,400.833L178.997,398.954L182.034,394.794L186.09,391.55L189.504,387.418L184.133,385.262L187.466,379.094L187.36,373.717L189.724,368.402L187.4,363.639L183.714,359.72L182.873,354.107L183.665,348.75L185.126,343.291L178.754,342.454L174.539,345.747L169.967,348.584L169.939,353.818L165.288,357.219L160.342,359.292L150.415,363.217L151.546,359.546L151.171,353.867L149.291,348.576L150.64,343.228L154.127,338.343L158.834,335.896L158.992,330.29L156.529,325.202L153.317,319.741L151.363,314.684L154.558,310.323L153.38,304.807L142.569,301.08L149.026,297.748L151.706,292.971L150.624,287.626L156.445,284.639L157.511,279.305L159.741,274.561L163.458,270.182L158.729,266.201L154.043,263.773L160.268,260.661L160.019,254.838L163.911,251.416L169.161,249.826L169.144,244.301L167.335,239.431L165.059,234.378L164.746,228.978L165.113,222.847L165.168,217.124L163.865,212.118L160.701,208.07L155.48,204.758L149.883,202.97L144.214,202.181L138.438,201.618L132.744,200.954L127.632,200.277L122.385,198.521L117.408,196.027L113.431,191.818L108.846,187.702L104.081,184.805L98.048,183.486L92.691,181.983L87.908,176.983L85.359,172.458L82.091,166.877L79.738,161.347L78.064,155.224L73.646,150.443L71.689,145.704L70.255,140.589L72.337,134.839L70.341,129.248L70.149,123.97L71.334,118.549L70.672,112.676L68.826,107.226L70.177,101.951L75.269,100.599L77.87,105.137L77.891,112.896L79.035,116.815L74.75,119.783L73.323,125.039L74.092,130.436L75.048,136.15L77.282,140.768L81.76,144.037L86.568,146.111L92.009,145.811L93.076,150.912L91.579,156.316L94.391,161.243L96.927,166.166L100.96,171.916L105.372,174.881L111.441,175.54L116.637,174.836L121.512,172.347L127.24,170.75L133.135,171.393L138.307,172.842L143.902,174.12L149.11,174.316L154.415,175.58L166.172,181.262L171.423,182.667L176.463,185.063L181.957,186.603L188.245,190.772L192.299,195.521L195.377,199.799L194.739,205.27L198.457,209.037L201.732,213.149L204.232,220.354L204.394,225.607L205.563,230.849L206.773,236.336L211.365,240.882L210.183,246.134L207.945,251.589L207.626,256.982L206.31,262.419L211.996,262.672L215.601,258.528L220.297,256.152L225.655,255.693L229.049,260.114L226.427,264.706L229.055,269.607L234.762,271.004L240.226,272.276L245.534,270.246L250.842,270.925L256.771,269.151L260.321,264.835L265.348,261.97L270.658,260.351L276.303,258.194L280.446,254.146L286.204,251.193L291.539,250.085L297.479,249.265L304.194,251.159L309.186,253.221L306.039,248.723L304.224,243.899L302.476,238.588L302.075,233.131L301.34,227.839L304.536,223.785L309.444,221.52L314.701,221.143L311.501,215.696L310.94,210.6L314.976,206.895L316.573,201.817L318.228,196.846L321.128,192.59L324.232,187.767L325.673,182.794L321.709,179.206L318.282,175.362L315.647,170.739L311.456,173.87L308.071,178.71L303.824,181.647L300.11,177.765L294.203,168.912L293.482,165.626L295.116,160.449L297.602,154.827L298.627,149.263L299.847,143.679L299.702,137.367L302.558,132.99L305.771,129.175L307.382,127.136L311.978,124.412L315.873,120.619L318.839,116.417L321.69,111.765L324.309,107.288L327.768,101.458L329.542,95.95L331.842,90.948L331.46,85.26L326.474,83.207L326.217,77.195L327.678,72.163L331.198,68.34L334.965,63.973L338.304,58.659L340.549,52.497L341.434,45.547L344.025,41.084L349.645,40.974L352.605,45.293L358.09,45.077L357.592,39.823L359.293,34.033L364.519,34.851L366.23,39.979L371.797,40.316L377.643,37.441L383.433,35.541L388.765,36.242L390.811,42.051L395.91,37.381L400.741,34.981L406.174,33.271L411.593,31.667L416.739,28.746L422.345,27.093L426.904,24.545L430.527,20L433.69,24.099L439.076,22.991L441.465,30.136L443.229,35.554L449.133,33.909L452.448,28.944L458.237,26.295L464.385,28.7L464.881,34.28L470.207,30.297L475.826,30.239L481.596,31.494L486.536,33.447L491.213,36.912L495.94,39.589L496.34,44.821L497.671,49.866L503.513,49.653L508.966,51.479L513.949,53.846L518.926,56.037L524.159,56.584L529.53,57.608L535.253,56.401L540.581,56.653L545.698,58.161L551.06,56.975L557.665,52.039L562.783,49.793L566.093,54.748L564.929,60L566.621,65.307L571.599,67.645L571.447,73.798L572.163,78.961L578.265,79.644L583.564,76.13L588.753,77.293L595.989,77.408L601.156,79.515L607.645,81.862L612.812,82.693L618.338,83.567L623.537,84.607L625.9,89.548L632.949,89.957L638.27,90.166L641.55,94.404L647.108,95.926L651.657,93.676L657.754,95.136L662.915,97.293L668.27,100.748L672.401,104.586L674.747,109.383L676.773,114.829L676.167,120.927L671.398,124.677L670.151,131.475L668.664,136.424L670.665,143.069L669.16,148.215L667.988,154.068L669.723,159.091L674.2,161.751L681.526,163.491L681.056,169.539L681.796,175.18L682.364,180.597L683.422,185.993L685.439,191.085L673.298,200.4L669.866,201.45L663.673,203.103L658.602,199.884L652.271,198.227L647.377,200.935L649.613,205.828L644.191,207.211L638.418,206.918L632.206,207.08L629.346,211.901L629.857,217.189L633.929,221.195L639.997,221.767L645.484,221.564L650.496,222.67L655.361,224.29L660.481,224.022L667.854,224.585L670.047,227.236L672.081,232.632L674.893,237.138L678.216,241.706L684.143,243.02L689.602,243.473L695.464,246.04L699.965,250.618L703.431,254.721L708.537,257.024L711.443,259.807L714.18,263.588L713.47,269.354L715.356,274.282L717.462,279.69L717.068,285.98L721.128,289.919L730.584,292.529L726.805,294.832L720.261,297.724L717.586,302.569L716.453,308L718.014,313.491L716.707,319.239L716.135,324.547L717.273,328.191L716.059,332.9L712.642,336.912L714.008,342.171L713.24,348.236L714.403,353.671L711.555,359.193L715.51,363.751L719.551,367.497L722.567,372.203L731.174,381.734L728.413,385.097L723.58,388.627L717.802,391.205L707.591,396.053L705.706,401.351L704.107,406.387L703.71,412.782L703.428,419.287L705.338,425.143L707.717,430.409L705.707,436.749L706.724,442.028L702.3,445.19L697.053,446.083L691.318,447.93L689.002,453.888L684.028,455.783L677.651,460.125L672.98,465.649L670.978,471.284L672.415,477.402L674.104,483.005L672.18,488.015L667.655,491.333L663.1,495.498L661.718,501.224L658.594,505.438L654.379,508.673L649.985,512.005L648.596,517.614L646.221,523.844L642.687,528.697L638.185,533.632L635.476,538.505L632.53,543.087L636.257,549.108L640.161,553.361L634.739,553.309L629.574,549.521L624.139,546.705L619.181,544.988L613.93,546.464L609.648,551.436L604.11,556.584L600.65,560.532L594.739,565.24L590.575,568.754L584.16,572.784L578.276,575.577L572.46,574.173L570.444,569.214L565.188,567.762L558.441,568.17L551.409,568.282L544.165,569.671L536.825,571.257L531.033,571.823L525.586,574.268L524.567,580L518.685,578.501L513.221,576.132L507.717,574.915L501.446,576.022L495.36,576.636L491.103,572.308L484.672,571.085L479.538,567.575L473.734,567.107L468.499,568.98L463.298,569.564L457.821,571.276L451.994,571.495L446.392,570.715L440.955,568.385L435.696,566.491L431.848,562.909L431.505,557.331L433.021,552.03L433.867,545.407L434.458,540.202L435.311,534.105L440.086,530.864L441.31,525.476L445.562,521.335L445.88,515.497L447.021,509.721L448.398,504.719L448.212,498.681L447.566,493.344L446.072,487.095L444.495,482.026L441.191,477.155L439.1,472.226L436.406,467.759L430.624,467.216L428.122,461.473L432.472,458.08L435.687,453.997L440.45,451.933L439.957,443.523L438.167,437.024L437.364,431.66L436.697,426.236L432.318,422.755L429.405,417.5L426.107,412.991L422.454,409.111L418.747,405.466L415.04,401.776L410.268,398.223L408.142,391.495L403.331,389.127L402.906,388.082L401.311,384.004L397.723,388.021L394.243,383.679Z" fill="#000000"/>
</svg>