<svg xmlns="http://www.w3.org/2000/svg" viewBox="0 0 800 600">
  <path d="M409.96,118.733L405.106,125.167L399.84,126.076L399.542,135.592L395.993,139.824L383.378,136.753L378.799,153.28L375.524,155.289L362.932,158.889L368.656,174.257L364.306,176.526L364.809,181.457L360.894,180.188L357.689,177.084L348.256,176.173L337.701,175.937L335.411,176.893L326.345,173.237L322.727,175.039L321.742,180.159L311.279,177.172L307.089,178.404L305.67,182.184L302.029,183.767L293.627,189.71L290.856,195.732L288.475,195.789L286.735,191.801L278.653,191.53L277.348,184.565L274.257,184.507L274.738,175.849L267.113,169.467L256.215,170.152L248.751,171.43L242.684,163.46L237.486,160.089L227.618,153.633L226.428,152.849L210.057,158.189L210.309,190.341L207.058,190.757L202.593,184.086L198.289,181.675L191.077,183.463L188.261,186.314L187.917,184.231L189.474,180.655L188.261,177.642L180.888,174.67L178.026,166.794L174.5,164.543L174.294,161.648L180.476,162.494L180.728,155.932L186.131,154.462L191.695,155.809L192.84,146.924L191.695,141.211L185.33,141.652L179.926,139.382L172.577,143.473L166.647,145.412L163.396,143.911L164.06,139.129L160.007,132.846L155.268,133.118L149.887,126.66L153.551,119.343L151.696,117.364L156.779,106.516L163.304,112.263L164.106,105.009L177.225,93.974L187.162,93.714L201.174,100.767L208.706,104.839L215.461,100.595L225.535,100.39L233.686,105.602L235.517,102.628L244.469,103.054L246.049,98.261L235.746,91.222L241.859,86.164L240.669,83.311L246.759,80.584L242.18,73.285L245.088,69.601L268.876,65.83L271.99,63.125L287.903,59.056L293.627,54.437L305.052,56.837L307.066,68.225L313.706,65.571L321.857,69.289L321.33,75.153L327.444,74.555L343.379,64.331L341.044,67.747L349.172,76.075L363.367,102.39L366.755,97.09L375.524,102.918L384.66,100.339L388.186,102.151L391.231,107.934L395.673,109.869L398.397,114.064L406.594,112.747ZM210.309,190.341L210.057,158.189L226.428,152.849L227.618,153.633L237.486,160.089L242.684,163.46L248.751,171.43L256.215,170.152L267.113,169.467L274.738,175.849L274.257,184.507L277.348,184.565L278.653,191.53L286.735,191.801L288.475,195.789L290.856,195.732L293.627,189.71L302.029,183.767L305.67,182.184L307.57,183.027L302.212,188.547L306.906,191.744L311.439,189.639L318.972,194.083L310.844,200.1L305.99,199.283L303.38,199.494L302.464,197.178L303.792,193.286L295.298,195.235L293.26,200.607L290.238,205.175L284.926,204.784L283.278,208.418L287.948,210.358L289.322,216.412L285.75,224.543L280.942,222.866L277.416,222.812L277.577,217.889L269.128,214.424L262.466,210.441L258.321,206.583L251.063,200.874L247.927,192.244L245.797,190.699L238.906,191.086L236.479,189.352L235.792,182.548L227.229,177.993L221.871,182.998L216.445,185.953L217.475,190.227ZM751.106,495.863L751.22,516.643L751.312,537.546L745.656,532.264L739.2,530.981L737.62,532.808L729.561,533.004L732.262,527.776L736.269,525.995L734.621,519.036L731.553,513.669L719.235,508.266L713.992,507.726L704.444,501.835L702.567,504.931L700.117,505.492L698.674,503.161L698.652,500.39L693.798,497.263L700.643,494.968L705.177,495.087L704.65,493.406L695.332,493.395L692.813,489.604L687.135,488.43L684.456,485.276L693.019,483.736L696.27,481.669L706.482,484.274L707.489,486.643L709.275,496.929L715.846,500.745L721.158,493.988L728.462,490.153L734.117,490.143L739.566,492.361L744.283,494.645ZM649.151,536.097L649.792,537.372L649.907,539.324L645.762,544.141L640.313,545.563L639.558,544.786L640.13,542.589L642.855,538.658ZM707.924,523.272L707.306,518.451L708.428,516.157L709.756,513.993L711.198,515.864L711.198,518.917ZM604.069,452.981L600.452,458.73L605.123,464.765L604.024,467.695L611.167,473.574L603.634,474.328L601.505,478.666L601.78,484.425L595.667,488.775L595.506,495.119L593.057,504.855L592.118,502.59L584.883,505.46L582.364,501.565L577.831,501.198L574.648,499.161L567.093,501.446L564.78,498.374L560.613,498.719L555.37,497.986L554.386,489.443L551.226,487.677L548.158,482.24L547.288,476.675L548.021,470.775L551.799,466.553L552.875,470.807L557.225,474.403L561.323,473.101L565.376,473.563L569.085,470.344L572.13,469.784L578.151,471.572L583.326,470.215L586.6,461.36L589.05,459.151L591.248,451.901L598.552,451.901ZM677.152,497.145L684.136,498.999L686.448,503.873L681.091,501.242L675.779,500.713L672.184,501.134L667.788,500.907L669.276,497.404ZM661.263,503.442L656.867,502.277L655.631,499.538L662.064,499.225L663.644,501.328ZM667.994,465.487L668.452,468.955L672.207,469.515L672.802,472.11L672.459,477.676L669.185,477.051L668.223,480.916L670.833,484.274L669.047,485.039L666.483,481.013L664.606,472.885L665.888,467.803ZM636.169,473.746L643.473,473.477L649.769,468.858L650.868,470.28L645.762,476.599L640.977,477.816L634.864,476.578L624.263,476.89L618.7,477.805L617.807,482.617L623.485,488.28L626.919,485.394L638.779,483.23L638.276,486.158L635.505,485.233L632.735,488.969L627.125,491.435L633.147,499.592L632.002,501.781L637.703,509.141L637.657,513.334L634.269,515.205L631.773,512.966L634.841,507.737L628.591,510.21L627.011,508.439L627.835,505.978L623.256,502.244L623.737,496.035L619.478,497.964L620.028,505.395L620.28,514.534L616.25,515.453L613.525,513.582L615.334,507.705L614.35,501.554L611.671,501.511L609.702,497.145L612.335,492.975L613.251,487.924L616.433,478.332L617.761,475.717L623.187,470.99L628.156,472.864ZM619.41,544.906L610.984,540.382L616.914,539.117L620.257,541.081L622.478,543.048L622.088,544.786ZM626.072,533.81L630.308,533.32L636.009,530.97L635.07,534.539L625.523,536.369L617.051,535.574L617.051,533.222L622.088,531.884ZM606.473,532.689L610.412,532.167L611.991,534.898L604.642,536.195L600.223,537.056L596.811,537.001L598.987,533.298L602.49,533.244L604.184,530.97ZM544.312,520.249L545.182,522.524L557.385,523.164L558.782,520.52L570.573,523.598L572.885,527.754L582.433,528.927L590.24,532.743L582.982,535.192L575.976,532.602L570.23,532.776L563.636,532.297L557.683,531.144L550.31,528.699L545.64,528.058L542.984,528.862L531.398,526.223L530.299,523.468L524.461,522.991L528.834,516.882L536.55,517.26L541.679,519.761ZM518.142,486.212L519.218,490.649L521.439,494.203L526.11,494.763L529.2,498.794L527.598,506.722L527.346,516.6L520.294,516.73L514.936,511.388L506.786,506.183L504.061,502.32L499.253,497.134L496.093,492.361L491.239,483.456L485.653,478.149L483.798,472.681L481.44,467.717L475.716,463.709L472.396,458.256L467.611,454.696L460.971,447.657L460.422,444.414L464.497,444.674L474.342,445.906L479.975,452.139L484.897,456.466L488.4,459.118L494.422,465.961L500.901,466.058L506.236,470.42L509.922,475.749L514.753,478.655L512.212,483.844L515.852,486.051ZM649.151,536.097L649.884,534.583L655.356,533.135L659.798,532.917L661.789,532.112L664.194,532.917L661.858,534.659L655.241,537.47L649.907,539.324L649.792,537.372ZM81.544,258.972L80.422,261.347L78.132,260.301L76.804,265.313L78.384,266.149L76.758,267.174L76.484,269.143L79.483,268.134L79.643,271.031L76.461,282.801L75.843,280.907L72.294,270.138L74.125,267.692L73.69,267.262L75.385,263.765L76.667,258.076L77.583,256.164L77.766,256.087L79.895,256.1L80.468,254.763L82.185,254.66L82.276,257.768L81.406,258.921ZM82.185,254.66L80.468,254.763L79.895,256.1L77.766,256.087L80.033,249.865L83.192,244.447L83.307,244.173L86.169,244.578L87.199,247.592L83.742,250.488ZM79.483,268.134L76.484,269.143L76.758,267.174L78.384,266.149L76.804,265.313L78.132,260.301L80.422,261.347L80.422,265.947ZM80.422,261.347L81.544,258.972L88.618,261.959L101.074,253.887L103.638,263.104L102.425,264.235L89.695,267.982L96.037,275.405L93.93,276.666L92.877,279.119L88.023,280.137L86.512,282.777L83.765,285.024L76.667,283.864L76.461,282.801L79.643,271.031L79.483,268.134L80.422,265.947ZM182.399,320.303L183.521,319.961L183.773,321.872L188.741,320.775L194.007,320.952L197.854,321.165L202.204,316.434L206.943,311.929L210.973,307.578L212.164,309.995L213.034,315.545L209.782,315.58L209.256,320.126L210.401,321.094L207.516,322.473L207.493,325.307L205.638,328.179L205.478,330.96L204.196,332.417L185.078,328.939L182.651,321.907ZM177.5,316.743L177.087,311.63L178.805,307.926L180.545,307.159L182.468,309.374L182.582,313.501L181.186,317.631L179.423,318.128ZM159.481,279.33L160.809,282.566L160.236,284.235L162.274,289.708L157.786,289.904L156.207,286.441L150.528,285.739L155.199,278.721ZM103.638,263.104L101.074,253.887L115.155,245.924L117.559,236.525L116.963,230.79L120.443,228.836L123.695,223.867L126.419,222.622L133.837,223.665L136.058,225.69L139.103,224.34L143.225,233.79L147.392,236.14L147.873,240.696L144.69,243.374L143.202,249.385L147.621,256.64L155.405,260.786L158.679,266.491L157.626,271.886L159.664,271.886L159.732,275.817L163.236,279.69L159.481,279.33L155.199,278.721L150.528,285.739L138.714,285.16L120.764,270.365L111.308,265.136ZM205.478,330.96L205.638,328.179L207.493,325.307L207.516,322.473L210.401,321.094L209.256,320.126L209.782,315.58L213.034,315.545L215.896,320.327L219.444,322.85L224.092,323.768L227.87,325.025L230.732,328.998L232.449,331.287L234.739,332.161L234.716,333.698L232.403,337.785L231.396,339.707L228.717,341.89L226.336,346.541L223.451,346.185L222.123,347.804L221.116,351.24L221.894,355.748L221.299,356.568L218.368,356.545L214.385,359.058L213.766,362.324L212.324,363.738L208.363,363.682L205.867,365.366L205.89,368.051L202.822,369.909L199.319,369.279L195.061,371.517L192.13,371.9L190.046,367.251L185.078,356.204L204.15,349.455L208.386,335.825ZM212.164,309.995L210.973,307.578L212.805,305.166L213.606,305.779L213.011,308.704ZM506.786,401.217L505.274,393.346L509.35,387.893L517.569,386.648L523.545,387.582L528.788,390.156L531.673,385.637L537.306,388.048L538.771,392.417L537.992,400.237L527.3,405.243L530.093,409.172L523.408,409.644L517.913,412.251L512.578,411.298L510.014,407.933ZM523.545,387.582L517.569,386.648L509.35,387.893L505.274,393.346L506.786,401.217L501.085,398.23L495.635,398.351L496.574,393.225L490.965,393.258L490.461,400.435L487.027,409.918L484.966,415.631L485.401,420.303L489.545,420.5L492.132,426.37L493.277,431.934L496.826,435.601L500.672,436.349L503.969,439.664L501.886,442.294L497.696,443.062L497.192,439.772L491.995,436.977L490.896,438.115L488.377,435.655L487.301,432.487L483.913,428.86L480.822,425.815L479.792,429.588L478.578,426.022L479.265,422.004L481.142,415.827L484.233,409.183L487.713,403.132L485.241,397.193L485.332,394.165L484.6,390.511L480.364,385.292L478.853,381.995L481.051,380.779L483.363,375.03L480.776,370.652L476.724,365.795L473.655,359.92L476.334,358.706L479.242,351.423L483.73,351.126L487.439,348.194L491.079,346.622L493.827,348.71L494.193,352.772L498.497,353.08L496.94,360.17L497.078,366.168L503.786,362.176L505.687,363.354L509.419,363.161L510.701,360.839L515.509,361.293L520.34,366.721L520.752,373.281L525.881,379.048L525.606,384.624ZM537.306,388.048L531.673,385.637L528.788,390.156L523.545,387.582L525.606,384.624L525.881,379.048L520.752,373.281L520.34,366.721L515.509,361.293L510.701,360.839L509.419,363.161L505.687,363.354L503.786,362.176L497.078,366.168L496.94,360.17L498.497,353.08L494.193,352.772L493.827,348.71L491.079,346.622L492.43,344.115L497.856,339.684L498.429,341.29L501.817,341.475L500.856,333.64L504.153,332.639L507.862,338.052L510.724,344.253L518.554,344.31L521.027,350.222L516.951,351.995L515.12,354.415L522.744,358.433L528.033,366.348L532.04,372.203L536.848,376.811L538.45,381.482ZM491.079,346.622L487.439,348.194L483.73,351.126L479.242,351.423L476.334,358.706L473.655,359.92L476.724,365.795L480.776,370.652L483.363,375.03L481.051,380.779L478.853,381.995L480.364,385.292L484.6,390.511L485.332,394.165L485.241,397.193L487.713,403.132L484.233,409.183L481.142,415.827L480.524,411.024L482.493,406.067L480.341,402.219L480.868,395.116L478.28,391.73L476.22,383.878L475.075,375.546L472.305,370.044L468.115,373.382L460.903,378.098L457.331,377.505L453.393,375.96L455.591,367.736L454.263,361.474L449.272,353.731L450.05,351.298L446.318,350.428L441.808,344.909L441.395,339.418L443.616,340.458L443.754,335.546L446.89,333.919L446.204,330.995L447.646,328.647L447.898,321.46L452.866,323.05L455.705,317.3L456.026,313.881L459.529,307.962L459.346,303.904L467.565,298.978L472.121,300.273L471.595,295.86L473.816,294.546L473.358,291.813L477.067,291.275L479.196,295.519L481.967,297.232L482.15,302.699L481.898,308.548L475.876,314.428L475.121,322.72L481.829,321.566L483.34,327.956L487.37,329.302L485.515,335.012L490.232,337.588L493.002,338.851L497.65,336.858L497.856,339.684L492.43,344.115ZM517.913,412.251L523.408,409.644L530.093,409.172L527.3,405.243L537.992,400.237L538.771,392.417L537.306,388.048L538.45,381.482L536.848,376.811L532.04,372.203L528.033,366.348L522.744,358.433L515.12,354.415L516.951,351.995L521.027,350.222L518.554,344.31L510.724,344.253L507.862,338.052L504.153,332.639L507.564,330.948L512.624,330.983L518.829,330.19L524.232,326.504L527.3,329.103L533.116,330.365L532.108,334.326L535.13,337.113L541.541,338.897L533.047,344.725L527.758,351.126L526.361,355.805L531.215,362.878L537.168,371.585L542.938,375.68L546.807,380.991L549.715,393.136L548.868,404.595L543.556,408.865L536.275,413.039L531.078,418.416L523.156,424.411L520.844,420.292L522.629,415.915ZM686.105,182.577L686.105,182.577L686.105,182.577ZM685.212,181.063L686.105,182.577L683.678,182.053L680.93,184.955L679.03,187.871L679.259,193.941L675.985,195.789L674.84,197.277L672.459,199.734L668.223,201.099L665.453,203.33L665.247,206.903L664.514,207.807L667.055,209.139L670.65,212.718L669.734,214.685L667.033,215.22L662.522,215.618L660.049,219.253L657.21,218.967L656.821,219.703L653.73,218.176L652.952,219.689L651.097,220.356L650.868,218.831L649.22,218.094L647.503,216.809L649.243,213.242L650.754,212.291L650.181,210.8L651.807,206.374L651.395,205.036L647.663,204.128L644.663,201.914L649.861,196.569L656.867,192.044L661.24,186.025L664.239,188.691L669.757,189.007L668.75,184.507L678.572,180.815L681.113,175.967ZM656.821,219.703L657.21,218.967L660.049,219.253L662.522,215.618L667.033,215.22L669.734,214.685L670.65,212.718L676.145,222.243L677.702,227.413L677.771,236.498L675.367,240.788L669.597,242.272L664.514,245.48L658.79,246.145L658.08,241.931L659.248,236.087L656.455,227.883L661.171,226.552ZM412.455,117.925L419.141,116.239L431.276,107.732L440.96,103.02L446.501,106.11L453.118,106.245L457.377,110.891L463.719,111.26L472.923,113.731L479.105,106.837L476.517,100.921L483.111,90.331L490.232,94.582L496.002,95.777L503.489,98.399L504.702,105.958L513.723,110.137L519.745,108.305L527.781,106.989L534.169,108.305L540.396,113.064L544.243,118.074L550.15,117.975L558.164,119.557L564.002,117.149L572.382,115.526L581.7,108.574L585.501,109.633L588.844,112.947L596.422,112.129L593.331,119.524L588.821,129.134L590.469,133.006L594.064,131.821L600.337,133.294L605.237,129.779L610.343,132.814L616.09,139.382L615.403,142.689L610.389,141.652L601.139,142.877L596.674,145.506L592.003,151.571L582.318,155.09L575.976,159.861L569.428,158.037L565.856,157.229L562.514,163.007L564.551,166.42L565.582,169.333L561.14,172.29L556.561,176.952L549.143,179.998L539.595,180.319L529.338,183.303L521.92,187.9L519.103,185.245L511.41,185.259L502,180.042L495.727,178.755L487.278,179.954L474.136,178.008L467.13,178.213L463.398,173.045L460.49,164.934L456.575,163.942L448.882,158.372L440.319,157.107L432.764,155.564L430.474,151.633L432.924,140.881L428.528,133.326L419.461,129.763L414.127,124.695ZM473.358,291.813L473.816,294.546L471.595,295.86L472.121,300.273L467.565,298.978L459.346,303.904L459.529,307.962L456.026,313.881L455.705,317.3L452.866,323.05L447.898,321.46L447.646,328.647L446.204,330.995L446.89,333.919L443.754,335.546L440.388,324.602L438.648,324.626L437.595,329.044L434.115,325.459L436.084,321.507L438.923,321.106L441.853,315.188L438.19,313.988L432.306,314.083L426.238,313.12L425.689,308.225L422.644,307.866L417.607,304.806L415.363,309.613L419.942,313.346L415.981,315.96L414.562,318.507L418.477,320.386L417.401,324.579L419.599,329.781L420.583,335.442L419.69,337.947L415.363,337.866L407.51,339.279L407.876,344.414L404.488,348.423L395.329,352.977L388.209,360.885L383.424,365.106L377.104,369.47L377.081,372.517L373.922,374.156L368.175,376.531L365.221,376.879L363.298,381.906L364.626,390.456L364.97,395.878L362.268,402.065L362.245,413.083L358.948,413.4L356.063,418.318L357.986,420.445L352.194,422.277L350.064,426.642L347.5,428.491L341.479,422.484L338.548,413.455L336.098,406.923L333.877,403.858L330.489,397.601L328.909,389.424L327.81,385.325L322.017,376.274L319.384,363.388L317.484,354.803L317.507,346.61L316.27,340.239L307.021,344.31L302.533,343.504L294.245,335.221L297.29,332.732L295.412,330.026L287.948,324.156L292.184,319.5L306.196,319.524L304.914,313.512L301.342,309.936L300.633,304.481L296.466,301.288L303.472,293.778L310.867,294.326L317.507,286.736L321.491,279.33L327.672,271.923L327.581,266.617L332.984,262.277L327.856,258.55L325.658,253.409L323.391,246.706L326.528,243.374L336.167,245.258L343.264,244.107L349.4,237.583L356.223,246.667L355.582,252.919L358.124,256.819L357.918,260.671L353.339,259.662L355.124,267.932L361.375,272.639L370.213,277.8L366.183,281.13L363.71,287.953L369.869,290.7L375.868,294.229L384.156,298.263L392.879,299.184L396.543,302.82L401.465,303.494L409.112,305.154L414.401,305.034L415.134,302.217L414.31,297.681L414.791,294.582L418.683,293.071L419.209,298.724L419.347,300.164L425.117,302.868L429.123,301.758L434.481,302.229L439.678,302.024L440.136,297.633L437.549,295.337L442.678,294.436L448.447,289.07L455.797,284.445L461.132,286.232L465.665,283.16L468.641,287.683L466.489,290.724ZM443.754,335.546L443.616,340.458L441.395,339.418L441.808,344.909L439.999,341.359L439.632,337.878L438.419,334.57L435.763,330.563L429.902,330.295L430.474,333.128L428.482,336.951L425.781,335.558L424.842,336.811L423.056,336.057L420.583,335.442L419.599,329.781L417.401,324.579L418.477,320.386L414.562,318.507L415.981,315.96L419.942,313.346L415.363,309.613L417.607,304.806L422.644,307.866L425.689,308.225L426.238,313.12L432.306,314.083L438.19,313.988L441.853,315.188L438.923,321.106L436.084,321.507L434.115,325.459L437.595,329.044L438.648,324.626L440.388,324.602ZM437.549,295.337L440.136,297.633L439.678,302.024L434.481,302.229L429.123,301.758L425.117,302.868L419.347,300.164L419.209,298.724L423.422,293.388L426.857,291.556L431.39,293.229L434.756,293.4ZM414.791,294.582L414.31,297.681L415.134,302.217L414.401,305.034L409.112,305.154L401.465,303.494L396.543,302.82L392.879,299.184L384.156,298.263L375.868,294.229L369.869,290.7L363.71,287.953L366.183,281.13L370.213,277.8L372.846,276.042L377.951,278.31L384.362,283.086L387.957,284.124L390.086,287.622L395.032,289.058L400.183,292.228L407.372,293.888ZM349.4,237.583L343.264,244.107L336.167,245.258L326.528,243.374L323.391,246.706L325.658,253.409L327.856,258.55L332.984,262.277L327.581,266.617L327.672,271.923L321.491,279.33L317.507,286.736L310.867,294.326L303.472,293.778L296.466,301.288L300.633,304.481L301.342,309.936L304.914,313.512L306.196,319.524L292.184,319.5L287.948,324.156L283.301,322.391L281.4,317.383L276.478,312.036L264.755,313.358L254.429,313.489L245.477,314.476L247.881,306.271L257.039,302.603L256.513,299.317L253.467,298.154L253.307,291.825L247.217,288.641L244.653,284.247L241.516,280.41L252.162,284.136L258.527,283.049L262.328,283.975L263.61,282.381L268.052,283.024L276.317,279.976L276.546,273.704L280.072,269.509L284.812,269.521L285.521,267.427L290.375,266.453L292.734,267.149L295.206,265.047L294.863,260.531L297.565,255.972L301.617,254.041L299.099,248.996L305.166,249.229L306.906,246.458L306.631,243.492L309.814,240.235L309.081,236.352L307.57,233.032L311.302,229.586L318.125,227.923L325.429,227.009L328.657,225.542L332.366,224.638L337.06,228.353L338.937,234.415ZM277.416,222.812L280.942,222.866L285.75,224.543L287.697,225.515L292.299,222.961L294.428,224.503L296.489,220.831L300.289,220.994L301.274,219.825L301.938,216.563L304.685,213.751L308.12,215.59L307.433,218.067L309.356,218.449L308.761,225.177L311.279,227.789L313.5,226.108L316.316,225.326L320.277,221.741L324.673,222.338L331.221,222.351L332.366,224.638L328.657,225.542L325.429,227.009L318.125,227.923L311.302,229.586L307.57,233.032L309.081,236.352L309.814,240.235L306.631,243.492L306.906,246.458L305.166,249.229L299.099,248.996L301.617,254.041L297.565,255.972L294.863,260.531L295.206,265.047L292.734,267.149L290.375,266.453L285.521,267.427L284.812,269.521L280.072,269.509L276.546,273.704L276.317,279.976L268.052,283.024L263.61,282.381L262.328,283.975L258.527,283.049L252.162,284.136L241.516,280.41L247.286,273.729L246.759,268.954L241.951,267.692L241.447,262.939L239.364,256.909L242.088,252.751L239.318,251.627L241.058,246.041L243.645,236.366L250.148,239.326L254.933,238.284L256.261,234.734L261.275,233.551L264.87,231.151L266.129,224.813L271.486,223.272L272.494,220.41L275.493,222.555ZM285.75,224.543L289.322,216.412L287.948,210.358L283.278,208.418L284.926,204.784L290.238,205.175L293.26,200.607L295.298,195.235L303.792,193.286L302.464,197.178L303.38,199.494L305.99,199.283L303.678,201.844L296.74,200.466L296.145,205.231L303.037,204.589L310.89,207.265L322.933,206.026L324.536,213.586L326.619,212.773L330.489,214.616L330.26,217.766L331.221,222.351L324.673,222.338L320.277,221.741L316.316,225.326L313.5,226.108L311.279,227.789L308.761,225.177L309.356,218.449L307.433,218.067L308.12,215.59L304.685,213.751L301.938,216.563L301.274,219.825L300.289,220.994L296.489,220.831L294.428,224.503L292.299,222.961L287.697,225.515ZM305.67,182.184L307.089,178.404L311.279,177.172L321.742,180.159L322.727,175.039L326.345,173.237L335.411,176.893L337.701,175.937L348.256,176.173L357.689,177.084L360.894,180.188L364.809,181.457L363.916,183.405L353.888,188.029L351.621,191.386L343.471,192.387L341.066,197.758L334.335,196.625L329.939,198.267L323.849,202.195L324.742,204.128L322.933,206.026L310.89,207.265L303.037,204.589L296.145,205.231L296.74,200.466L303.678,201.844L305.99,199.283L310.844,200.1L318.972,194.083L311.439,189.639L306.906,191.744L302.212,188.547L307.57,183.027ZM188.261,186.314L191.077,183.463L198.289,181.675L202.593,184.086L207.058,190.757L210.309,190.341L217.475,190.227L216.445,185.953L221.871,182.998L227.229,177.993L235.792,182.548L236.479,189.352L238.906,191.086L245.797,190.699L247.927,192.244L251.063,200.874L258.321,206.583L262.466,210.441L269.128,214.424L277.577,217.889L277.416,222.812L275.493,222.555L272.494,220.41L271.486,223.272L266.129,224.813L264.87,231.151L261.275,233.551L256.261,234.734L254.933,238.284L250.148,239.326L243.645,236.366L243.096,229.733L238.356,229.452L231.075,222.406L226.016,221.524L218.964,217.452L214.453,216.7L211.66,218.203L207.401,217.971L202.891,222.568L197.304,224.111L196.114,218.449L197.03,209.957L192.084,207.182L193.71,201.521L189.497,201.043L190.894,193.998L196.892,196.058L202.479,193.371L197.854,188.288L196.022,183.405L190.894,185.592L190.252,191.815ZM163.236,279.69L159.732,275.817L159.664,271.886L157.626,271.886L158.679,266.491L155.405,260.786L147.621,256.64L143.202,249.385L144.69,243.374L147.873,240.696L147.392,236.14L143.225,233.79L139.103,224.34L135.623,217.916L136.883,215.412L134.891,206.04L139.241,203.694L140.248,206.806L143.477,210.593L147.827,211.67L150.139,211.436L157.626,205.385L160.007,204.77L161.885,207.195L159.71,211.242L163.671,215.495L165.25,215.097L167.265,221.049L173.287,222.717L177.706,226.713L186.749,228.084L196.686,225.986L197.304,224.111L202.891,222.568L207.401,217.971L211.66,218.203L214.453,216.7L218.964,217.452L226.016,221.524L231.075,222.406L238.356,229.452L243.096,229.733L243.645,236.366L241.058,246.041L239.318,251.627L242.088,252.751L239.364,256.909L241.447,262.939L241.951,267.692L246.759,268.954L247.286,273.729L241.516,280.41L244.653,284.247L247.217,288.641L253.307,291.825L253.467,298.154L256.513,299.317L257.039,302.603L247.881,306.271L245.477,314.476L233.502,312.346L226.565,310.724L219.399,309.816L216.697,301.106L213.652,299.837L208.752,301.119L202.341,304.565L194.58,302.205L188.146,296.71L182.033,294.667L177.774,287.806L173.081,278.062L169.669,279.256L165.617,276.816ZM81.544,258.972L81.406,258.921L82.276,257.768L82.185,254.66L83.742,250.488L87.199,247.592L86.169,244.578L83.307,244.173L82.711,238.231L84.268,235.013L85.963,233.298L87.68,231.565L88.023,227.157L90.107,228.702L97.113,226.485L100.478,227.99L105.722,227.963L113.048,224.975L116.46,225.11L123.695,223.867L120.443,228.836L116.963,230.79L117.559,236.525L115.155,245.924L101.074,253.887L88.618,261.959ZM150.139,211.436L147.827,211.67L145.24,206.931L145.262,205.664L142.446,205.691L140.569,203.47L139.241,203.694L136.745,201.282L132.006,199.212L132.624,195.136L131.548,192.173L140.386,190.857L141.691,193.072L144.118,194.539L142.835,196.64L146.224,199.494L144.438,202.153L147.14,204.393L149.979,205.747ZM139.103,224.34L136.058,225.69L133.837,223.665L126.419,222.622L123.695,223.867L116.46,225.11L113.048,224.975L105.722,227.963L100.478,227.99L97.113,226.485L90.107,228.702L88.023,227.157L87.68,231.565L85.963,233.298L84.268,235.013L81.933,231.445L84.337,228.474L80.468,229.157L75.133,227.332L70.76,231.885L61.121,232.765L55.969,228.527L49.1,228.259L47.635,231.538L43.239,232.472L37.103,228.272L30.166,228.42L26.388,220.478L21.74,216.002L24.831,209.68L20.801,205.747L27.853,197.814L37.653,197.489L40.331,191.1L52.443,192.215L60.09,186.718L67.509,184.304L78.018,184.115L89.122,190.126L98.258,193.385L105.653,192.087L111.125,192.844L118.635,188.418L125.412,188.015L131.548,192.173L132.624,195.136L132.006,199.212L136.745,201.282L139.241,203.694L134.891,206.04L136.883,215.412L135.623,217.916ZM20.458,185.939L26.937,183.245L32.409,184.391L33.165,187.684L38.729,190.413L37.561,192.487L30.005,192.958L27.304,195.547L21.992,200.058L20,196.158L20.069,194.439L21.58,193.485L23.549,188.202ZM374.517,431.337L373.555,438.007L370.9,439.826L365.359,441.288L362.337,436.197L361.215,426.979L364.1,416.527L368.496,420.107L371.449,424.64ZM550.608,361.587L545.388,359.512L545.205,353.719L548.341,350.668L555.302,348.767L558.942,348.928L560.362,351.515L557.568,354.483L556.103,358.365ZM364.809,181.457L364.306,176.526L368.656,174.257L362.932,158.889L375.524,155.289L378.799,153.28L383.378,136.753L395.993,139.824L399.542,135.592L399.84,126.076L405.106,125.167L409.96,118.733L412.455,117.925L414.127,124.695L419.461,129.763L428.528,133.326L432.924,140.881L430.474,151.633L432.764,155.564L440.319,157.107L448.882,158.372L456.575,163.942L460.49,164.934L463.398,173.045L467.13,178.213L474.136,178.008L487.278,179.954L495.727,178.755L502,180.042L511.41,185.259L519.103,185.245L521.92,187.9L529.338,183.303L539.595,180.319L549.143,179.998L556.561,176.952L561.14,172.29L565.582,169.333L564.551,166.42L562.514,163.007L565.856,157.229L569.428,158.037L575.976,159.861L582.318,155.09L592.003,151.571L596.674,145.506L601.139,142.877L610.389,141.652L615.403,142.689L616.09,139.382L610.343,132.814L605.237,129.779L600.337,133.294L594.064,131.821L590.469,133.006L588.821,129.134L593.331,119.524L596.422,112.129L604.047,115.841L613.022,109.617L612.953,105.229L618.7,94.478L622.249,91.188L622.157,85.457L618.677,82.956L623.92,77.697L631.819,75.786L640.268,75.496L649.769,78.667L655.356,82.547L659.294,93.036L661.675,97.435L663.896,103.65L666.254,113.398L677.313,116.537L684.845,123.44L687.41,132.414L697.095,132.43L702.59,128.683L713.099,125.849L709.756,134.412L707.306,137.847L705.108,147.996L700.85,156.848L693.111,155.258L687.662,158.433L689.333,166.075L688.417,176.437L685.166,176.672L685.212,181.063L681.113,175.967L678.572,180.815L668.75,184.507L669.757,189.007L664.239,188.691L661.24,186.025L656.867,192.044L649.861,196.569L644.663,201.914L635.78,204.309L631.109,208.168L624.241,210.399L627.629,206.597L626.301,203.386L631.338,197.8L627.973,193.4L622.432,196.37L615.243,202.167L611.327,207.487L605.1,207.89L601.849,211.698L605.214,217.192L610.412,218.517L610.618,222.121L615.655,224.462L622.775,218.735L628.43,221.863L632.529,222.067L633.559,226.256L624.561,228.474L621.585,232.739L615.403,236.67L612.152,242.128L618.997,246.38L621.493,253.912L625.362,260.85L629.69,266.617L629.575,272.149L625.591,274.167L627.102,278.099L630.857,280.386L629.873,286.33L628.247,292.069L624.698,292.717L620.051,300.49L614.899,309.804L608.992,318.188L600.246,324.614L591.408,330.446L584.242,331.24L580.349,334.291L578.151,332.056L574.557,335.477L565.673,338.909L558.942,339.95L556.767,347.138L553.241,347.54L551.57,342.605L553.081,339.973L544.541,337.785L541.541,338.897L535.13,337.113L532.108,334.326L533.116,330.365L527.3,329.103L524.232,326.504L518.829,330.19L512.624,330.983L507.564,330.948L504.153,332.639L500.856,333.64L501.817,341.475L498.429,341.29L497.856,339.684L497.65,336.858L493.002,338.851L490.232,337.588L485.515,335.012L487.37,329.302L483.34,327.956L481.829,321.566L475.121,322.72L475.876,314.428L481.898,308.548L482.15,302.699L481.967,297.232L479.196,295.519L477.067,291.275L473.358,291.813L466.489,290.724L468.641,287.683L465.665,283.16L461.132,286.232L455.797,284.445L448.447,289.07L442.678,294.436L437.549,295.337L434.756,293.4L431.39,293.229L426.857,291.556L423.422,293.388L419.209,298.724L418.683,293.071L414.791,294.582L407.372,293.888L400.183,292.228L395.032,289.058L390.086,287.622L387.957,284.124L384.362,283.086L377.951,278.31L372.846,276.042L370.213,277.8L361.375,272.639L355.124,267.932L353.339,259.662L357.918,260.671L358.124,256.819L355.582,252.919L356.223,246.667L349.4,237.583L338.937,234.415L337.06,228.353L332.366,224.638L331.221,222.351L330.26,217.766L330.489,214.616L326.619,212.773L324.536,213.586L322.933,206.026L324.742,204.128L323.849,202.195L329.939,198.267L334.335,196.625L341.066,197.758L343.471,192.387L351.621,191.386L353.888,188.029L363.916,183.405ZM628.843,319.264L625.019,330.388L622.294,336.034L618.952,330.225L618.219,325.095L621.951,318.247L627.057,312.941L629.964,315.034ZM149.498,185.65L151.284,185.939L155.657,191.1L158.45,191.672L159.549,189.524L163.35,186.098L166.693,190.571L169.921,196.54L172.898,196.937L174.844,199.184L169.623,199.847L168.502,206.277L167.403,209.153L165.09,211.063L165.25,215.097L163.671,215.495L159.71,211.242L161.885,207.195L160.007,204.77L157.626,205.385L150.139,211.436L149.979,205.747L147.14,204.393L144.438,202.153L146.224,199.494L142.835,196.64L144.118,194.539L141.691,193.072L140.386,190.857L141.943,189.481L146.682,191.901L150.093,192.415L150.963,191.415L147.85,186.834ZM147.827,211.67L143.477,210.593L140.248,206.806L139.241,203.694L140.569,203.47L142.446,205.691L145.262,205.664L145.24,206.931ZM108.469,172.038L109.247,170.999L114.628,172.497L123.992,173.917L132.647,178.081L133.746,179.691L137.615,178.331L143.545,180.144L145.491,183.666L149.498,185.65L147.85,186.834L150.963,191.415L150.093,192.415L146.682,191.901L141.943,189.481L140.386,190.857L131.548,192.173L125.412,188.015L118.635,188.418L119.596,184.782L117.994,178.916L114.33,175.716L110.804,174.714ZM622.844,397.844L619.593,392.871L625.042,393.114L627.263,395.47L625.568,401.096ZM633.994,415.511L635.597,413.706L636.284,409.688L639.787,409.304L638.779,413.663L643.473,407.417L642.878,413.586L640.588,415.718L638.596,419.791L636.604,421.699L632.689,417.237ZM658.103,425.609L658.744,429.871L659.111,433.475L656.958,439.328L654.623,432.802L651.647,436.056L653.684,440.768L651.876,443.765L644.389,440.054L642.603,435.416L644.526,432.379L640.496,429.338L638.505,431.999L635.505,431.749L630.812,435.33L629.758,433.453L632.254,428.045L636.261,426.24L639.718,423.812L641.962,426.729L646.816,424.966L647.846,422.091L652.334,421.928L651.967,416.942L657.119,419.998L657.645,423.235ZM608.03,419.802L599.582,425.913L602.696,421.405L607.275,417.433L611.098,412.962L614.441,406.528L615.563,411.813L611.373,415.368ZM632.414,361.406L631.361,364.179L633.536,368.952L631.865,374.47L628.11,376.666L627.125,381.984L628.545,387.226L631.911,387.948L634.727,387.171L642.672,390.81L642.053,394.364L644.137,395.934L643.473,398.936L638.527,395.735L636.169,392.306L634.544,394.707L630.491,390.788L624.698,391.752L621.539,390.312L621.859,387.604L623.851,385.926L621.951,384.413L621.127,386.782L617.99,382.998L617.051,380.132L616.799,373.797L619.364,375.983L620.028,365.58L622.088,359.523L625.958,359.535L629.873,361.44L631.819,359.705ZM630.514,406.232L629.529,403.132L633.33,405.144L637.383,405.133L637.268,407.845L634.315,410.597L630.285,412.546L630.056,409.534ZM652.54,401.371L654.325,408.624L649.426,406.901L649.54,409.085L651.097,413.072L648.075,414.527L647.823,409.973L645.9,409.633L644.915,405.715L648.647,406.232L648.556,403.77L644.686,398.803L650.777,398.947ZM490.896,438.115L491.995,436.977L497.192,439.772L497.696,443.062L501.886,442.294L503.969,439.664L505.435,440.27L509.19,444.122L511.846,448.403L512.212,452.7L511.548,455.603L512.166,457.792L512.624,461.554L514.868,463.311L517.363,468.944L517.249,471.087L512.738,471.518L506.717,466.801L499.184,461.748L498.452,458.504L494.765,454.243L493.895,448.964L491.606,445.485L492.293,440.822ZM604.069,452.981L598.552,451.901L591.248,451.901L589.05,459.151L586.6,461.36L583.326,470.215L578.151,471.572L572.13,469.784L569.085,470.344L565.376,473.563L561.323,473.101L557.225,474.403L552.875,470.807L551.799,466.553L556.469,468.729L561.369,467.544L562.651,462.158L565.376,460.951L573,459.571L577.556,454.535L580.693,450.498L583.578,453.812L584.906,451.632L587.951,451.837L588.317,447.765L588.615,444.62L593.514,440.173L596.72,435.167L599.284,435.145L602.558,438.386L602.856,441.169L607.046,442.954L612.335,444.868L611.877,447.376L607.618,447.689L608.763,450.811ZM588.615,444.62L588.317,447.765L587.951,451.837L584.906,451.632L583.578,453.812L580.693,450.498L583.211,448.111ZM756.715,208.071L750.854,216.276L750.945,224.57L748.564,230.911L749.663,234.854L746.343,240.354L738.215,244.002L727.042,244.473L717.976,253.242L713.717,250.306L713.442,244.552L702.384,246.25L694.851,249.878L687.41,250.021L693.866,255.637L689.608,268.424L685.509,271.547L682.419,268.664L683.998,261.908L679.969,259.714L677.381,254.518L683.403,252.17L686.723,247.357L693.134,243.361L697.782,238.059L710.443,235.716L717.243,237.319L723.906,223.272L728.141,227.077L737.483,219.076L741.1,215.947L745.084,205.956L744.008,196.625L746.687,191.301L753.441,189.753L756.921,201.38ZM774.07,167.408L778.58,163.656L780,173.548L770.567,175.937L764.98,184.507L754.998,178.623L751.518,188.001L744.466,188.13L743.573,179.618L746.733,172.927L753.51,172.438L755.364,160.195L757.265,153.172L764.729,162.54L769.605,165.52ZM696.225,253.242L699.751,248.684L703.368,249.567L705.978,246.341L710.649,247.995L711.45,250.63L707.879,255.239L705.268,252.803L701.994,254.569L700.323,259.01L696.179,256.858ZM185.078,356.204L190.046,367.251L192.13,371.9L187.528,373.674L186.291,376.621L186.154,378.869L179.812,381.649L169.646,384.724L163.945,389.358L161.152,389.724L159.252,389.336L155.52,392.051L151.467,393.313L146.132,393.645L144.53,394.021L143.133,395.746L141.462,396.221L140.477,397.877L137.34,397.733L135.303,398.616L130.907,398.285L129.258,394.475L129.441,390.899L128.388,388.969L127.152,384.112L125.32,381.404L126.602,381.08L125.938,378.064L126.717,376.789L126.442,373.909L129.213,371.787L128.571,368.986L130.266,365.716L132.876,367.442L134.593,366.845L141.943,366.687L143.087,367.352L149.246,368.029L151.673,367.69L153.276,369.909L156.252,368.795L160.809,361.791L166.739,358.774ZM76.667,283.864L83.765,285.024L86.512,282.777L88.023,280.137L92.877,279.119L93.93,276.666L96.037,275.405L89.695,267.982L102.425,264.235L103.638,263.104L111.308,265.136L120.764,270.365L138.714,285.16L150.528,285.739L156.207,286.441L157.786,289.904L162.274,289.708L164.77,295.933L167.906,297.572L168.982,300.079L173.333,303.085L173.699,306.007L173.081,308.369L173.882,310.748L175.714,312.715L176.561,315.022L177.5,316.743L179.423,318.128L181.186,317.631L182.399,320.303L182.651,321.907L185.078,328.939L204.196,332.417L205.478,330.96L208.386,335.825L204.15,349.455L185.078,356.204L166.739,358.774L160.809,361.791L156.252,368.795L153.276,369.909L151.673,367.69L149.246,368.029L143.087,367.352L141.943,366.687L134.593,366.845L132.876,367.442L130.266,365.716L128.571,368.986L129.213,371.787L126.442,373.909L125.595,371.079L123.695,369.076L123.191,366.416L119.917,364.021L116.528,358.41L114.72,352.92L110.324,348.274L107.484,347.161L103.272,340.678L102.539,335.918L102.814,331.846L99.173,324.179L96.197,321.46L92.763,320.02L90.656,316.007L91,314.428L89.237,310.783L87.382,309.206L84.909,303.928L81.017,298.178L77.789,293.241L74.606,293.278L75.614,289.303L75.888,286.773Z" fill="#000000"/>
</svg>