<svg xmlns="http://www.w3.org/2000/svg" viewBox="0 0 800 600">
  <path d="M597.977,61.342L583.462,71.041L576.589,73.226L580.179,56.236L569.254,46.339L556.028,54.774L551.824,72.58L543.692,83.066L534.547,77.369L523.439,78.529L513.956,65.907L508.832,72.256L503.553,73.226L502.295,88.703L486.246,84.965L483.975,97.797L475.782,97.72L470.166,113.7L461.635,137.642L448.409,166.549L451.508,173.348L448.532,181.118L440.093,180.788L434.569,198.764L435.091,223.236L440.522,232.321L437.699,252.787L430.61,264.395L426.867,273.988L421.128,263.771L404.312,282.873L392.927,286.651L381.143,278.379L378.105,260.524L375.404,220.174L383.26,208.352L405.754,192.569L422.601,172.545L438.19,144.214L458.689,102.325L472.958,85.083L496.373,54.983L515.092,44.038L529.116,45.36L542.096,24.1L557.624,25.252L572.937,20L599.604,39.017L588.618,45.786ZM385.592,411.465L389.612,414.897L401.887,417.299L397.591,426.126L396.517,435.2L394.154,437.358L390.288,436.205L390.564,439.403L384.334,446.427L384.181,452.024L388.262,450.101L391.177,455.5L390.84,458.959L393.356,463.531L390.38,467.215L392.589,476.482L397.223,477.991L396.241,483.118L388.508,489.751L371.691,486.581L359.294,490.384L358.312,497.361L348.43,498.866L338.825,493.635L335.726,496.128L320.045,490.857L316.639,486.303L321.058,479.236L322.684,455.21L313.877,442.205L307.586,435.842L294.575,430.969L293.715,421.618L304.763,418.793L319.063,422.121L316.362,407.345L324.433,412.995L344.257,402.703L346.835,391.716L354.292,388.985L355.519,393.728L359.478,393.957L363.436,399.341L369.39,405.622L373.778,404.591L381.235,410.599L383.137,411.753ZM407.411,495.579L412.904,491.134L414.346,501.068L411.523,509.889L407.656,507.578L405.692,499.861ZM426.867,273.988L430.61,264.395L437.699,252.787L440.522,232.321L435.091,223.236L434.569,198.764L440.093,180.788L448.532,181.118L451.508,173.348L448.409,166.549L461.635,137.642L470.166,113.7L475.782,97.72L483.975,97.797L486.246,84.965L502.295,88.703L503.553,73.226L508.832,72.256L520.216,83.819L533.504,99.49L533.749,133.335L536.603,141.559L521.935,147.452L513.68,161.753L515,173.95L501.467,189.591L484.988,205.868L478.789,231.479L484.865,243.855L492.997,253.424L485.172,272.368L476.303,276.216L473.05,303.14L468.233,317.65L457.891,316.174L453.043,328.188L443.192,328.874L440.461,314.538L433.341,296.821ZM573.029,316.64L582.02,320.489L583.217,324.236L587.697,322.443L596.044,326.05L596.873,333.073L595.031,337.067L600.371,346.679L603.839,349.334L603.348,351.953L609.086,354.488L611.541,358.294L608.227,361.404L601.353,360.923L599.696,362.246L601.721,366.934L603.808,375.901L596.474,376.722L593.865,379.741L593.313,386.658L589.907,385.341L582.235,385.988L579.995,382.791L576.803,385.179L573.581,383.186L566.891,382.907L557.378,379.624L548.755,378.526L542.158,378.853L537.493,382.582L533.412,383.116L533.228,376.98L530.619,370.522L535.713,367.649L535.775,362.029L533.412,356.6L533.044,350.241L541.268,350.339L550.535,344.853L552.499,336.566L559.496,331.786L558.698,325.08L563.884,322.52ZM603.808,375.901L606.999,376.441L609.148,373.288L611.725,373.995L620.563,372.651L626.025,380.487L623.877,383.279L624.583,387.512L631.396,388.18L634.434,394.048L634.25,396.689L645.051,401.397L651.588,399.273L656.866,405.51L661.837,405.376L674.419,409.664L674.511,413.504L671.043,420.328L672.946,427.427L671.596,431.68L663.341,432.605L658.953,436.141L658.676,441.717L651.864,442.734L646.187,446.764L638.208,447.416L630.874,452.024L631.304,458.608L630.015,458.236L628.91,455.812L626.179,455.334L620.103,452.691L617.863,455.729L616.697,454.399L603.44,451.293L602.857,446.659L594.97,448.193L591.809,454.981L585.212,464.003L581.345,461.928L577.325,463.88L573.52,461.64L575.668,460.322L577.172,456.123L579.504,452.211L578.89,449.996L580.67,449.011L581.498,450.707L586.531,451.084L588.802,450.163L587.206,448.906L587.789,447.059L584.813,443.897L583.585,438.658L580.486,436.59L581.1,432.304L577.264,428.877L573.735,428.401L567.475,424.409L561.797,425.67L559.772,427.557L556.151,427.557L554.034,430.56L547.743,431.766L544.827,433.721L540.869,430.625L535.407,430.56L530.128,429.157L526.446,431.895L525.863,428.466L521.106,424.975L522.794,419.78L525.157,416.396L526.998,417.167L524.82,411.287L532.553,400.291L536.787,398.73L537.677,394.96L533.412,383.116L537.493,382.582L542.158,378.853L548.755,378.526L557.378,379.624L566.891,382.907L573.581,383.186L576.803,385.179L579.995,382.791L582.235,385.988L589.907,385.341L593.313,386.658L593.865,379.741L596.474,376.722ZM533.044,350.241L533.412,356.6L535.775,362.029L535.713,367.649L530.619,370.522L533.228,376.98L533.412,383.116L537.677,394.96L536.787,398.73L532.553,400.291L524.82,411.287L526.998,417.167L525.157,416.396L517.056,411.376L510.918,413.238L506.898,411.887L501.835,414.698L497.539,410.043L494.04,411.842L493.549,411.043L489.652,404.546L483.3,403.738L482.502,399.568L476.641,398.073L475.383,401.532L470.749,398.775L471.271,395.074L464.918,393.911L460.868,389.537L457.369,380.814L458.045,376.042L455.927,368.577L452.828,363.565L455.191,359.767L453.227,352.49L459.027,348.229L472.345,341.482L483.085,336.491L491.585,338.992L492.23,342.575L500.454,342.748L510.949,344.408L526.63,344.185L530.988,345.766ZM477.592,428.812L476.948,434L472.161,434.043L473.787,436.782L470.964,444.847L469.337,446.953L461.88,447.248L457.584,450.059L450.557,449.116L438.343,445.901L436.441,441.569L428.033,443.728L427.051,446.112L421.865,444.341L417.507,444.003L413.671,441.717L414.96,438.637L414.653,436.419L417.2,435.713L421.527,439.212L422.724,435.884L430.242,436.419L436.349,434.15L440.43,434.536L443.1,437.123L443.898,434.986L442.67,426.69L445.739,425.062L448.746,419.122L455.068,423.277L459.886,417.981L462.893,417.013L469.491,420.962L473.511,420.306L477.439,422.732L476.733,424.366ZM521.106,424.975L525.863,428.466L526.446,431.895L521.229,434.536L517.209,443.073L512.054,451.502L505.211,453.816L499.902,453.275L493.365,456.496L490.174,458.339L483.147,455.978L476.764,450.707L474.063,449.179L472.406,444.974L470.964,444.847L473.787,436.782L472.161,434.043L476.948,434L477.592,428.812L481.919,432.067L485.08,433.464L492.23,431.895L492.905,429.352L496.311,428.963L500.454,426.972L501.375,427.795L505.364,426.191L507.389,423.168L510.182,422.383L519.296,426.3ZM559.772,427.557L561.797,425.67L567.475,424.409L573.735,428.401L577.264,428.877L581.1,432.304L580.486,436.59L583.585,438.658L584.813,443.897L587.789,447.059L587.206,448.906L588.802,450.163L586.531,451.084L581.498,450.707L580.67,449.011L578.89,449.996L579.504,452.211L577.172,456.123L575.668,460.322L573.52,461.64L571.986,456.061L572.906,450.812L572.63,445.374L567.72,437.913L564.989,432.583L562.35,428.812ZM573.52,461.64L577.325,463.88L581.345,461.928L585.212,464.003L585.396,467.113L581.253,469.721L578.675,468.581L576.282,482.958L571.28,481.72L565.081,477.408L555.046,480.178L550.811,483.178L538.291,482.559L531.755,480.719L528.441,481.58L525.986,476.703L524.421,474.626L526.415,472.624L524.298,471.123L521.628,473.818L516.657,470.331L515.982,465.355L510.796,462.504L509.844,458.629L505.211,453.816L512.054,451.502L517.209,443.073L521.229,434.536L526.446,431.895L530.128,429.157L535.407,430.56L540.869,430.625L544.827,433.721L547.743,431.766L554.034,430.56L556.151,427.557L559.772,427.557L562.35,428.812L564.989,432.583L567.72,437.913L572.63,445.374L572.906,450.812L571.986,456.061ZM558.698,325.08L559.496,331.786L552.499,336.566L550.535,344.853L541.268,350.339L533.044,350.241L530.988,345.766L526.63,344.185L525.924,340.462L526.845,336.416L523.07,334.055L514.14,331.457L512.33,318.762L522.088,314.069L536.389,315.058L544.766,313.522L545.963,316.718L550.505,317.702ZM565.449,296.311L569.561,299.949L570.298,307.552L573.029,316.64L563.884,322.52L558.698,325.08L550.505,317.702L545.963,316.718L544.766,313.522L536.389,315.058L522.088,314.069L512.33,318.762L512.637,307.157L516.81,297.303L524.85,291.867L531.632,303.697L538.475,303.379L540.102,291.244L547.374,288.395L551.088,290.377L558.422,296.284ZM571.372,263.686L572.661,266.604L566.585,276.16L569.132,291.271L565.449,296.311L558.422,296.284L551.088,290.377L547.374,288.395L540.102,291.244L541.084,281.719L537.954,283.779L532.553,277.991L531.816,268.494L542.587,263.856L553.328,261.409L562.565,264.168ZM453.227,352.49L455.191,359.767L452.828,363.565L455.927,368.577L458.045,376.042L457.369,380.814L460.868,389.537L457.063,390.96L454.822,389.399L452.674,391.991L446.537,394.595L443.376,397.937L437.177,400.855L438.681,404.815L439.602,410.376L443.928,413.526L448.746,419.122L445.739,425.062L442.67,426.69L443.898,434.986L443.1,437.123L440.43,434.536L436.349,434.15L430.242,436.419L422.724,435.884L421.527,439.212L417.2,435.713L414.653,436.419L405.508,432.54L403.759,435.285L396.517,435.2L397.591,426.126L401.887,417.299L389.612,414.897L385.592,411.465L386.083,405.69L384.365,402.703L385.347,393.637L383.905,379.344L389.029,379.344L391.177,374.137L393.295,361.26L391.73,356.43L393.387,353.392L400.506,352.612L402.102,355.775L407.871,348.671L405.938,343.194L405.539,334.834L411.983,336.791L417.446,334.533L417.568,340.238L426.191,343.665L426.099,348.843L434.784,346.112L439.571,342.103L449.176,347.86ZM525.986,476.703L528.441,481.58L531.755,480.719L538.291,482.559L550.811,483.178L555.046,480.178L565.081,477.408L571.28,481.72L576.282,482.958L571.863,487.831L568.763,496.147L571.495,502.72L564.16,501.185L555.476,504.795L555.384,510.465L547.651,511.541L541.636,507.578L534.824,510.696L528.502,510.369L527.888,502.817L523.623,499.139L525.034,497.498L524.114,496.128L525.556,492.435L528.778,488.782L524.635,483.716L523.899,479.396ZM556.949,576.032L555.875,579.12L543.6,580L543.692,578.274L533.289,576.244L534.885,571.796L539.549,575.324L546.178,574.723L552.53,575.466L552.315,577.286ZM528.502,510.369L534.824,510.696L541.636,507.578L547.651,511.541L555.384,510.465L555.476,504.795L559.619,507.829L556.98,514.909L554.954,516.188L549.768,515.864L545.318,514.795L535.008,517.731L540.9,524.021L536.573,525.83L531.847,525.849L527.336,520.086L525.74,522.548L527.643,529.192L531.908,534.366L528.686,536.763L533.443,541.813L537.647,544.96L537.769,551.07L529.883,548.204L532.399,553.708L526.998,554.833L530.22,564.229L524.574,564.372L517.577,559.752L514.386,551.179L512.882,543.986L509.568,538.969L505.18,532.707L504.627,529.567L508.586,524.172L509.077,520.541L511.87,518.928L512.023,515.978L517.608,514.967L520.861,512.499L525.464,512.729L526.876,510.754ZM512.023,515.978L511.87,518.928L509.077,520.541L508.586,524.172L504.627,529.567L503.154,528.799L503.001,526.357L498.275,522.605L497.539,517.274L498.245,509.562L499.411,506.014L497.968,504.214L497.416,500.562L501.098,494.873L501.651,497.048L503.952,496.03L505.763,499.139L507.788,500.309L508.371,504.466L507.297,508.349L508.494,513.227ZM474.063,449.179L476.764,450.707L483.147,455.978L490.174,458.339L493.365,456.496L495.421,461.228L498.152,464.7L494.869,469.233L491.002,466.561L485.11,466.725L477.776,464.72L473.787,464.986L471.946,467.501L468.908,464.72L467.097,469.721L471.271,475.333L473.143,479.015L477.04,483.437L480.293,486.025L483.515,490.917L491.064,495.324L490.112,497.283L482.103,493.006L477.163,488.802L469.368,485.309L462.218,476.623L463.936,475.716L460.039,470.697L459.886,466.623L454.393,464.72L451.784,469.925L449.268,465.887L449.452,461.681L449.759,461.496L455.712,461.907L457.277,459.847L460.162,461.846L463.507,462.072L463.476,458.67L466.453,457.429L467.281,452.462ZM414.653,436.419L414.96,438.637L413.671,441.717L417.507,444.003L421.865,444.341L421.189,449.43L417.446,451.522L411.124,449.954L409.283,454.939L405.232,455.334L403.759,453.379L398.972,457.532L394.86,458.112L391.177,455.5L388.262,450.101L384.181,452.024L384.334,446.427L390.564,439.403L390.288,436.205L394.154,437.358L396.517,435.2L403.759,435.285L405.508,432.54ZM384.365,402.703L386.083,405.69L385.592,411.465L383.137,411.753L381.235,410.599L382.155,403.198ZM385.347,393.637L384.365,402.703L382.155,403.198L381.235,410.599L373.778,404.591L369.39,405.622L363.436,399.341L359.478,393.957L355.519,393.728L354.292,388.985L361.104,386.289L367.364,387.373L375.251,384.531L380.652,390.479ZM391.73,356.43L393.295,361.26L391.177,374.137L389.029,379.344L383.905,379.344L385.347,393.637L380.652,390.479L375.251,384.531L367.364,387.373L361.104,386.289L365.492,382.536L372.98,362.005L384.641,356.018ZM255.848,504.175L258.947,501.263L262.415,499.588L264.563,505.202L269.595,505.202L271.038,503.749L276.009,504.156L278.403,509.87L274.444,512.94L274.352,521.716L272.971,523.342L272.633,528.611L268.951,529.511L272.357,536.132L269.994,543.305L272.94,546.519L271.774,549.464L268.613,553.508L269.319,557.043L265.882,559.806L261.402,558.308L257.014,559.481L258.303,551.106L257.505,544.464L253.7,543.452L251.644,539.32L252.319,532.148L255.725,528.123L256.339,523.625L258.118,516.893L257.934,512.116L256.216,508.041ZM269.319,557.043L268.613,553.508L271.774,549.464L272.94,546.519L269.994,543.305L272.357,536.132L268.951,529.511L272.633,528.611L272.971,523.342L274.352,521.716L274.444,512.94L278.403,509.87L276.009,504.156L271.038,503.749L269.595,505.202L264.563,505.202L262.415,499.588L258.947,501.263L255.848,504.175L256.277,495.991L252.779,490.936L264.839,482.479L275.273,484.593L286.719,484.533L295.802,486.541L302.86,485.926L316.639,486.303L320.045,490.857L335.726,496.128L338.825,493.635L348.43,498.866L358.312,497.361L358.772,504.059L350.701,511.636L339.777,514.03L339.01,517.826L333.762,524.021L330.479,533.043L333.793,539.32L328.883,544.17L327.042,551.197L320.597,553.344L314.552,561.553L303.75,561.714L295.618,561.517L290.278,565.268L287.026,569.252L282.852,568.378L279.691,564.82L277.267,558.705ZM280.029,350.877L281.441,361.116L274.996,373.689L259.868,381.861L247.808,379.788L254.712,365.216L250.263,350.681L261.862,339.241L268.307,332.316L270.056,340.263L268.307,348.106L273.585,347.885ZM421.865,444.341L427.051,446.112L428.033,443.728L436.441,441.569L438.343,445.901L450.557,449.116L449.606,455.189L451.662,460.383L444.88,458.608L437.945,462.935L438.405,468.928L437.361,472.34L440.154,478.413L448.163,484.374L452.459,494.028L461.942,503.322L468.601,503.264L470.688,505.782L468.294,508.06L475.935,512.173L482.195,515.578L489.499,521.432L490.389,523.53L488.793,527.504L484.067,522.302L476.641,520.466L473.081,527.673L479.219,531.774L478.206,537.524L474.646,538.173L470.105,547.49L466.545,548.332L466.576,545.015L468.325,539.172L470.166,536.838L466.852,530.466L464.243,524.87L460.714,523.474L458.198,518.643L452.705,516.607L449.023,512.058L442.701,511.329L436.042,506.188L428.247,498.729L422.448,492.06L419.808,480.439L415.574,479.075L408.638,475.151L404.71,476.764L399.77,482.259L396.241,483.118L397.223,477.991L392.589,476.482L390.38,467.215L393.356,463.531L390.84,458.959L391.177,455.5L394.86,458.112L398.972,457.532L403.759,453.379L405.232,455.334L409.283,454.939L411.124,449.954L417.446,451.522L421.189,449.43ZM458.689,545.786L465.164,544.85L462.095,553.344L463.353,556.663L461.574,562.128L455.037,558.128L450.71,556.971L438.834,551.525L440.001,545.969L449.974,546.959ZM407.104,515.33L411.37,511.828L416.464,519.821L415.267,534.515L411.4,533.807L407.933,537.468L404.71,534.571L404.373,521.186L402.409,514.757ZM417.446,334.533L411.983,336.791L405.539,334.834L402.071,326.534L401.826,310.938L403.237,306.762L405.692,302.078L413.18,301.094L416.187,296.74L423.031,292.245L422.754,300.402L420.238,305.496L421.251,309.864L425.885,312.192L423.798,317.986L421.251,316.329L415.113,327.247ZM438.313,317.547L441.013,325.156L435.919,337.242L426.989,328.849L425.792,322.571ZM280.029,350.877L273.585,347.885L268.307,348.106L270.056,340.263L268.307,332.316L275.457,331.71L284.601,340.86ZM306.481,357.545L306.512,357.545L307.739,349.187L302.032,340.188L301.909,339.989L291.567,337.392L289.542,333.375L292.641,326.687L289.818,322.52L285.246,329.635L284.724,315.032L280.428,307.157L283.527,290.838L290.156,277.686L296.968,278.988L307.248,277.631L298.134,295.075L306.819,292.893L316.148,292.974L313.938,305.812L306.266,319.639L315.074,320.618L315.749,322.212L323.359,339.84L329.19,342.202L334.437,358.681L336.861,364.283L347.203,366.982L346.16,375.924L341.802,379.974L345.208,387.051L337.537,394.162L326.152,394.025L311.637,397.733L307.647,395.096L302.032,401.352L294.145,399.839L288.161,404.928L283.619,402.276L296.109,388.134L303.75,385.202L303.689,385.179L290.371,382.907L287.946,377.426L296.876,373.123L292.212,365.551L293.808,356.236ZM209.173,132.073L207.209,145.694L216.844,159.699L205.766,174.951L181.186,188.291L173.821,191.761L162.62,188.941L138.838,182.83L147.216,174.183L128.65,164.446L143.748,160.556L143.38,154.563L125.489,149.798L131.258,136.174L144.178,133.047L157.465,147.276L170.415,135.888L181.125,141.843L195.026,130.554ZM450.557,449.116L457.584,450.059L461.88,447.248L469.337,446.953L470.964,444.847L472.406,444.974L474.063,449.179L467.281,452.462L466.453,457.429L463.476,458.67L463.507,462.072L460.162,461.846L457.277,459.847L455.712,461.907L449.759,461.496L451.662,460.383L449.606,455.189ZM576.589,73.226L575.33,89.682L588.372,104.878L580.516,121.531L590.428,145.765L584.69,163.288L592.362,178.076L588.894,190.693L601.506,203.658L598.284,213.099L590.367,223.602L572.139,246.175L556.673,247.55L541.667,253.829L527.796,257.43L522.856,248.076L514.601,242.412L516.503,224.974L512.361,208.508L516.442,197.582L524.175,185.583L543.661,164.242L549.338,160.007L548.479,151.368L536.603,141.559L533.749,133.335L533.504,99.49L520.216,83.819L508.832,72.256L513.956,65.907L523.439,78.529L534.547,77.369L543.692,83.066L551.824,72.58L556.028,54.774L569.254,46.339L580.179,56.236ZM525.157,416.396L522.794,419.78L521.106,424.975L519.296,426.3L510.182,422.383L507.389,423.168L505.364,426.191L501.375,427.795L500.454,426.972L496.311,428.963L492.905,429.352L492.23,431.895L485.08,433.464L481.919,432.067L477.592,428.812L476.733,424.366L477.439,422.732L478.636,419.89L482.41,420.109L485.325,418.771L485.54,417.563L487.197,416.947L487.75,413.991L489.714,413.416L491.033,411.065L493.549,411.043L494.04,411.842L497.539,410.043L501.835,414.698L506.898,411.887L510.918,413.238L517.056,411.376ZM460.868,389.537L464.918,393.911L471.271,395.074L470.749,398.775L475.383,401.532L476.641,398.073L482.502,399.568L483.3,403.738L489.652,404.546L493.549,411.043L491.033,411.065L489.714,413.416L487.75,413.991L487.197,416.947L485.54,417.563L485.325,418.771L482.41,420.109L478.636,419.89L477.439,422.732L473.511,420.306L469.491,420.962L462.893,417.013L459.886,417.981L455.068,423.277L448.746,419.122L443.928,413.526L439.602,410.376L438.681,404.815L437.177,400.855L443.376,397.937L446.537,394.595L452.674,391.991L454.822,389.399L457.063,390.96ZM491.064,495.324L483.515,490.917L480.293,486.025L477.04,483.437L473.143,479.015L471.271,475.333L467.097,469.721L468.908,464.72L471.946,467.501L473.787,464.986L477.776,464.72L485.11,466.725L491.002,466.561L494.869,469.233L497.938,469.192L495.82,474.465L499.932,479.035L498.674,484.593L496.68,485.13L495.084,486.184L492.322,488.92ZM523.623,499.139L527.888,502.817L528.502,510.369L526.876,510.754L525.464,512.729L520.861,512.499L517.608,514.967L512.023,515.978L508.494,513.227L507.297,508.349L508.371,504.466L509.445,504.563L509.844,502.215L514.877,500.445L516.78,499.997L519.695,499.315ZM493.365,456.496L499.902,453.275L505.211,453.816L509.844,458.629L510.796,462.504L515.982,465.355L516.657,470.331L521.628,473.818L524.298,471.123L526.415,472.624L524.421,474.626L525.986,476.703L523.899,479.396L524.635,483.716L528.778,488.782L525.556,492.435L524.114,496.128L525.034,497.498L523.623,499.139L519.695,499.315L516.78,499.997L516.503,499.139L517.516,497.752L518.467,494.932L517.271,495.01L515.613,492.848L514.202,492.297L513.097,490.443L511.501,489.731L510.274,488.069L508.74,488.722L507.573,492.592L505.548,493.438L506.223,492.435L502.97,490.008L500.178,488.762L498.95,487.137L496.68,485.13L498.674,484.593L499.932,479.035L495.82,474.465L497.938,469.192L494.869,469.233L498.152,464.7L495.421,461.228ZM503.952,496.03L501.651,497.048L501.098,494.873L497.416,500.562L497.968,504.214L496.189,503.322L493.795,499.588L490.112,497.283L491.064,495.324L492.322,488.92L495.084,486.184L496.68,485.13L498.95,487.137L500.178,488.762L502.97,490.008L506.223,492.435L505.548,493.438Z" fill="#000000"/>
</svg>