<svg xmlns="http://www.w3.org/2000/svg" viewBox="0 0 800 600">
  <path d="M334.694,322.501L333.977,322.488L323.844,314.552L320.089,311.018L310.598,307.606L307.673,300.19L308.428,294.956L301.711,291.28L300.805,284.237L294.465,277.774L294.352,273.125L297.258,268.712L297.125,262.855L288.2,256.853L282.842,245.837L279.577,238.729L274.766,234.195L271.237,230.018L268.463,224.665L263.199,228.033L258.104,233.748L253.443,227.019L249.783,222.454L244.669,219.532L239.518,219.228L239.537,152.904L239.575,101.172L249.349,104.785L257.613,111.915L263.067,113.248L267.671,107.104L274.011,102.449L281.804,104.278L289.653,97.648L298.239,93.796L301.843,100.147L305.749,96.585L306.919,89.287L310.541,90.956L319.41,104.658L326.373,94.345L327.09,105.871L333.524,103.416L335.505,98.99L341.864,99.865L349.865,106.173L362.13,111.593L369.357,114.06L374.489,113.125L381.546,120.436L374.187,127.421L383.659,130.402L397.811,128.762L402.264,126.334L407.85,134.604L413.548,127.633L408.208,121.663L411.586,116.777L417.963,116.118L422.171,114.674L426.398,118.115L431.662,125.813L437.512,124.697L446.777,130.962L454.909,128.762L462.551,129.091L461.947,120.364L466.608,117.872L474.741,122.694L474.703,135.801L478.043,124.793L482.251,125.173L484.628,110.75L479.005,101.581L472.891,95.415L473.307,77.934L479.515,65.902L486.421,68.606L491.723,75.918L498.855,93.848L494.195,101.351L503.95,104.405L503.931,119.35L510.932,107.956L517.196,117.337L515.63,127.822L520.706,137.086L526.178,127.161L529.99,114.895L530.291,98.577L537.726,99.762L545.481,101.99L552.519,109.381L552.84,116.606L548.934,124.198L552.632,131.638L551.953,138.274L541.688,147.561L534.405,149.572L528.989,145.626L527.423,152.183L522.366,162.893L520.838,168.329L514.762,176.532L507.271,177.324L503.12,182.351L502.78,189.929L496.685,191.37L490.27,200.552L484.59,212.902L482.552,221.299L482.251,233.301L489.968,235L492.327,244.34L494.78,251.731L502.101,249.815L511.856,253.993L517.083,257.625L520.838,262.078L527.404,264.655L532.952,268.541L541.613,269.07L547.311,269.972L546.462,277.82L548.085,286.738L551.878,296.42L559.69,304.447L563.728,301.719L566.558,292.962L563.822,279.079L560.124,274.339L568.52,270.08L574.445,263.582L577.351,257.03L576.917,250.619L573.37,242.301L566.992,234.76L573.181,223.994L570.898,214.412L569.143,197.245L572.804,194.619L581.785,197.703L587.182,198.788L591.522,195.829L596.39,199.643L602.843,206.086L604.447,210.32L613.787,211.146L613.636,220.122L615.372,233.215L620.165,234.794L623.958,240.704L631.543,235.137L636.562,223.8L640.034,218.923L644.11,228.243L650.941,241.159L656.734,252.888L654.62,258.875L661.602,264.166L666.319,269.459L674.659,271.814L678.037,274.722L680.112,282.306L684.188,283.475L686.301,286.798L686.679,296.521L682.867,299.717L679.112,302.673L670.47,305.649L663.885,312.45L655.016,313.779L643.808,312.047L635.94,311.991L630.524,312.56L626.128,318.397L619.448,321.96L611.882,332.411L605.843,339.539L610.297,338.279L618.712,328.061L629.713,321.432L637.544,320.645L642.185,324.552L637.242,329.857L638.902,338.227L640.619,343.987L647.431,347.754L656.092,346.66L661.338,338.11L661.696,343.654L665.093,346.392L658.602,351.298L646.997,355.699L641.789,358.67L635.94,363.916L631.958,363.377L631.751,357.206L640.865,351.096L632.468,351.336L626.637,352.242L623.222,348.021L623.222,337.668L620.901,335.434L617.372,336.742L615.637,334.714L611.636,340.523L610.051,346.43L608.183,349.846L605.957,350.996L604.277,351.374L603.749,353.21L594.088,353.21L586.125,353.26L583.767,354.625L578.219,359.907L577.577,360.475L575.898,363.316L571.086,363.304L565.935,363.34L563.577,364.479L564.407,365.894L564.879,368.094L564.784,368.821L557.935,372.353L552.538,373.468L546.443,377.237L545.123,377.237L543.349,376.131L542.764,375.118L542.877,374.389L544.028,371.908L546.5,367.985L548.028,363.732L546.972,357.393L545.858,350.68L540.386,347.169L541.047,345.83L540.273,344.897L538.839,344.897L537.782,343.705L537.518,341.904L536.499,342.69L535.084,342.458L535.405,341.698L534.178,340.949L533.669,338.942L529.593,336.481L525.367,333.899L520.234,330.878L515.309,328.034L510.63,330.255L508.913,330.335L502.459,328.287L498.214,329.312L493.138,326.872L487.779,325.613L484.119,325.13L482.496,323.784L481.571,319.379L479.798,319.42L479.779,322.501L468.929,322.501L450.984,322.501L433.172,322.501L417.454,322.501L401.717,322.501L386.263,322.501L370.281,322.501L365.13,322.501L349.582,322.501ZM538.292,195.733L542.198,190.456L549.387,190.572L549.274,192.786L543.141,199.036L539.443,198.788ZM560.407,50.645L554.633,41.11L554.859,34.452L557.369,33.217L569.369,35.209L578.408,45.289L578.879,50.225L573.294,49.713L567.652,49.322L561.916,51.723ZM557.576,199.87L559.595,196.5L561.746,196.748L563.067,199.055L561.029,204.893L558.708,203.958L557.331,200.646ZM687.113,303.54L684.32,308.784L680.848,315.957L684.264,313.212L687.792,314.952L685.943,317.781L690.604,319.992L693.019,318.028L698.246,320.509L696.623,326.35L700.283,324.995L700.963,329.179L702.586,334.031L700.378,340.807L698.019,341.092L694.566,339.655L695.698,333.334L694.245,332.345L688.17,339.059L685.037,338.786L688.736,335.172L683.698,333.281L678.075,333.742L667.904,333.505L667.093,331.196L670.357,328.434L668.074,326.297L672.489,321.5L677.905,308.532L681.15,303.795L685.698,300.891L688.132,301.262ZM538.877,164.181L544.613,168.433L550.613,172.24L551.085,177.971L554.935,177.04L558.689,180.991L554.029,184.698L545.877,181.871L542.934,176.512L537.745,182.83L530.273,188.874L528.48,182.031L521.366,183.168L525.933,177.303L526.593,167.745L528.386,156.246L532.178,157.302L533.141,162.83L535.839,160.898ZM565.671,58.527L570.634,51.574L582.257,60.394L589.484,68.493L590.163,75.724L599.881,71.989L605.353,82.361L617.995,88.649L622.562,94.92L627.524,109.032L617.901,115.825L630.241,125.125L638.563,128.198L646.11,140.728L654.356,141.61L652.714,150.825L643.525,165.57L637.072,160.216L628.826,147.871L622.052,149.506L621.392,156.871L626.901,164.202L634.015,169.886L636.166,173.123L639.581,184.896L637.77,193.211L631.166,190.105L618.014,180.75L625.43,190.806L630.883,197.684L631.732,201.59L617.523,197.111L606.277,190.494L599.919,184.856L601.749,181.532L593.937,175.393L586.295,169.513L586.389,173.041L571.237,174.965L566.803,170.797L570.256,161.685L580.106,161.472L590.88,159.853L589.144,155.316L590.956,148.888L597.749,135.916L596.296,129.864L594.277,125.078L586.257,118.212L575.634,113.297L578.993,109.581L573.445,100.301L568.822,99.427L564.69,94.215L561.878,98.758L552.387,100.711L533.31,97.311L522.215,92.773L513.724,90.427L509.366,84.902L514.838,77.548L507.403,77.493L505.743,60.539L509.762,44.8L515.158,37.345L528.688,32.36L524.838,44.28L528.971,55.38L533.801,40.956L547.085,33.376L556.086,52.172L555.293,63.52ZM483.213,26.095L494.138,26.743L504.139,31.372L496.308,47.721L490.062,51.185L484.439,64.153L478.458,63.52L475.194,48.205L475.269,39.187L478.005,31.276ZM282.955,279.986L287.993,279.276L286.408,289.296L290.974,296.232L288.88,296.217L285.728,292.29L283.785,288.293L281.143,285.564L280.181,281.675L280.483,278.836ZM331.184,326.404L328.543,327.5L319.938,323.892L318.353,321.066L313.674,318.246L312.73,315.943L307.334,314.47L305.315,310.014L305.768,308.097L311.258,309.903L314.485,311.143L319.41,312.019L321.184,314.842L323.788,318.683L329.014,322.001ZM341.506,20L348.997,24.044L362.375,25.12L367.47,30.637L373.093,38.501L366.507,43.114L353.657,55.616L347.166,67.612L347.166,74.836L333.373,82.659L330.599,75.558L318.504,66.787L320.75,59.578L324.372,46.72L328.92,34.705L323.788,23.062ZM420.209,45.746L426.077,52.947L429.379,69.625L431.002,81.192L439.795,89.074L449.267,96.403L448.682,103.085L440.078,104.304L443.437,110.004L441.663,115.36L432.172,113.076L423.152,109.107L417.077,110.004L407.227,114.968L393.943,117.118L384.622,118.479L381.772,111.643L374.621,107.631L369.979,109.281L363.507,97.389L366.998,95.78L375.093,93.141L382.489,93.822L389.32,91.114L379.187,87.449L367.979,88.702L360.545,88.383L357.79,82.551L369.941,76.057L361.865,76.306L352.714,71.961L357.11,59.287L360.752,52.351L374.791,41.45L380.15,44.953L377.527,53.304L389.188,47.933L396.471,56.825L402.396,47.812L407.189,53.631L411.472,70.415L414.114,63.463L410.397,45.502L415.001,42.868ZM452.098,52.351L446.324,40.615L452.532,31.627L458.777,35.556L468.136,33.186L469.495,38.595L464.608,47.297L472.533,54.907L471.59,70.274L463.004,76.665L457.947,75.281L454.324,68.974L441.305,55.793L441.399,50.165ZM419.813,36.185L426.832,35.43L430.813,39.498L426.209,51.394L418.02,38.782ZM584.295,133.75L580.898,137.749L575.011,138.434L573.709,131.778L575.936,123.983L580.747,122.023L584.842,125.908L584.899,131.848ZM474.024,104.506L477.213,110.178L473.948,115.287L466.891,110.874L462.627,112.483L455.456,105.845L460.079,101.198L463.74,94.58L469.306,98.938L472.439,101.658ZM640.374,315.462L642.185,314.787L649.073,316.822L654.431,320.196L654.582,321.662L652.035,321.811L645.242,319.284ZM643.016,337.889L644.846,341.621L648.658,342.639L653.507,342.433L650.922,345.537L648.997,346.022L642.336,342.819L641.034,340.264ZM334.694,322.501L349.582,322.501L365.13,322.501L370.281,322.501L386.263,322.501L401.717,322.501L417.454,322.501L433.172,322.501L450.984,322.501L468.929,322.501L479.779,322.501L479.798,319.42L481.571,319.379L482.496,323.784L484.119,325.13L487.779,325.613L493.138,326.872L498.214,329.312L502.459,328.287L508.913,330.335L510.63,330.255L515.309,328.034L520.234,330.878L525.367,333.899L529.593,336.481L533.669,338.942L534.178,340.949L535.405,341.698L535.084,342.458L536.499,342.69L537.518,341.904L537.782,343.705L538.839,344.897L540.273,344.897L541.047,345.83L540.386,347.169L545.858,350.68L546.972,357.393L548.028,363.732L546.5,367.985L544.028,371.908L542.877,374.389L542.764,375.118L543.349,376.131L545.123,377.237L546.443,377.237L552.538,373.468L557.935,372.353L564.784,368.821L564.879,368.094L564.407,365.894L563.577,364.479L565.935,363.34L571.086,363.304L575.898,363.316L577.577,360.475L578.219,359.907L583.767,354.625L586.125,353.26L594.088,353.21L603.749,353.21L604.277,351.374L605.957,350.996L608.183,349.846L610.051,346.43L611.636,340.523L615.637,334.714L617.372,336.742L620.901,335.434L623.222,337.668L623.222,348.021L626.637,352.242L627.543,354.675L621.958,358.237L616.561,360.759L611.032,362.911L608.259,367.196L607.372,368.809L607.315,372.581L609.051,376.321L611.221,376.5L610.674,373.923L612.24,375.488L611.825,377.498L608.278,378.636L605.768,378.506L601.9,379.724L599.617,380.067L596.56,380.409L592.201,382.421L599.9,381.116L601.447,382.433L594.107,384.507L590.767,384.518L590.918,383.676L589.333,385.592L590.88,385.907L589.748,390.822L585.918,396.041L585.54,394.304L584.389,393.96L582.672,392.262L583.748,395.904L585.05,397.1L585.144,399.631L583.465,402.228L580.502,407.514L580.03,407.247L581.653,402.746L578.974,400.208L578.351,394.624L577.351,397.532L578.464,401.777L575.011,400.728L578.615,402.881L578.842,409.16L580.332,409.615L580.88,411.873L581.615,418.358L578.295,423.123L572.86,425.01L569.426,428.723L566.803,429.129L564.143,431.442L563.407,433.555L557.652,437.599L554.689,440.547L552.217,444.208L551.406,448.549L552.349,452.775L554.085,457.928L556.425,462.161L556.444,464.739L558.935,471.588L558.765,475.535L558.539,477.805L557.237,481.354L555.67,482.089L553.085,481.383L552.255,478.839L550.274,477.5L547.481,472.472L545.047,467.968L544.255,465.653L545.33,461.697L543.877,458.406L539.783,453.369L537.745,452.447L532.442,455.189L531.518,454.883L528.971,452.068L525.687,450.558L519.762,451.329L515.102,450.65L511.101,451.072L508.95,452.017L509.894,453.625L509.8,456.076L510.913,457.267L509.913,458.05L507.969,457.166L506.007,458.304L502.195,458.121L498.289,454.944L493.723,455.689L489.911,454.29L486.647,454.719L482.232,456.127L477.458,460.575L472.25,463.149L469.382,465.984L468.193,468.647L468.136,472.701L468.401,475.515L469.382,477.5L467.344,477.677L463.627,476.394L459.532,474.575L458.06,471.827L456.909,467.698L453.815,464.317L452.003,460.827L449.381,456.728L445.682,454.321L441.399,454.433L438.097,459.187L433.757,457.389L431.04,455.577L429.738,452.252L428.002,449.075L424.888,446.388L422.209,444.458L420.284,442.271L411.208,442.271L411.208,444.811L407.038,444.811L396.622,444.853L384.659,440.516L376.753,437.504L377.244,436.282L370.583,436.957L364.62,437.441L363.752,434.254L360.356,430.644L357.903,429.887L357.337,428.081L354.393,427.759L352.506,426.054L347.638,425.419L346.298,424.396L345.676,420.893L340.581,414.407L336.222,405.304L336.411,403.768L334.09,401.574L330.033,395.961L329.316,390.43L326.524,386.687L327.675,380.963L327.486,374.951L325.807,369.51L327.863,362.727L328.505,356.098L329.128,349.365L328.184,339.214L326.524,332.596L325.014,328.967L325.637,327.434L333.222,330.096L336.015,337.433L337.317,335.395L336.468,329.007ZM164.023,510.482L164.947,510.964L165.796,511.709L167.136,513.66L167.004,513.97L164.966,515.155L163.287,516.019L162.513,516.948L161.211,516.16L161.362,514.61L160.494,512.577L160.758,511.964L161.664,511.049L161.305,509.953L161.607,509.433L162.004,509.537ZM160.909,506.648L160.475,507.322L158.701,507.729L157.815,506.544L157.211,506.088L157.154,505.737L157.664,505.262L159.532,505.794ZM156.909,504.34L156.739,504.939L153.928,504.777L154.324,504.092ZM150.267,501.29L150.701,501.652L152.21,503.521L151.927,503.845L151.569,503.769L149.739,503.569L149.078,502.301L148.871,502.072ZM143.248,498.477L143.342,499.799L142.719,500.353L140.964,499.33L141.229,498.918L142.04,498.362ZM106.019,218.403L110.17,219.371L110.679,223.393L107.453,225.017L104.019,223.074L100.849,220.211ZM175.401,243.121L178.891,243.79L181.099,246.832L176.571,251.453L171.344,255.111L168.664,252.644L167.853,248.104L172.608,244.623ZM239.575,101.172L239.537,152.904L239.518,219.228L244.669,219.532L249.783,222.454L253.443,227.019L258.104,233.748L263.199,228.033L268.463,224.665L271.237,230.018L274.766,234.195L279.577,238.729L282.842,245.837L288.2,256.853L297.125,262.855L297.258,268.712L294.352,273.125L291.465,269.676L286.842,266.744L285.37,258.587L278.615,250.848L275.784,241.596L270.746,240.957L262.425,240.704L256.274,237.83L245.443,227.264L240.424,225.299L231.253,221.566L223.989,222.472L213.686,217.612L207.459,213.048L201.629,215.319L202.723,222.685L199.817,223.358L193.76,225.528L189.137,229.01L183.326,231.197L182.59,225.123L184.948,214.757L190.515,211.439L189.081,208.718L182.401,214.739L178.816,221.815L171.268,229.201L175.099,234.16L170.155,241.361L164.513,245.505L159.268,248.483L157.966,252.758L149.776,257.689L148.135,262.126L142.002,266.101L138.398,265.394L133.511,267.979L128.19,271.103L123.831,274.139L114.831,276.724L114.019,275.212L119.756,270.964L124.869,268.135L130.454,263.045L136.964,261.999L139.549,258.122L146.814,252.416L147.984,250.471L151.852,247.047L152.758,239.557L155.418,233.611L149.38,236.673L147.682,234.931L144.851,238.593L141.436,233.473L140.021,237.099L138.059,232.061L132.813,236.111L129.605,236.111L129.152,230.053L130.096,226.283L126.718,222.56L119.906,224.559L115.472,219.639L111.887,217.09L111.868,211.018L107.83,206.365L109.868,199.984L114.133,193.674L116.001,187.776L120.246,186.93L123.85,188.776L128.077,183.148L131.87,184.162L135.87,180.51L134.889,175.046L131.964,172.877L135.832,168.162L132.624,168.308L127.058,170.962L125.454,173.656L121.322,170.962L113.925,172.343L106.245,169.409L104.038,164.434L97.414,157.13L104.773,151.768L116.472,145.381L120.774,145.381L120.057,151.921L131.115,151.417L126.869,143.299L120.416,138.206L116.699,131.382L111.661,125.458L104.472,120.99L107.396,113.47L116.699,113.002L123.303,106.274L124.548,98.964L129.907,91.642L135.021,89.844L144.946,82.822L149.776,83.904L157.833,75.281L165.777,78.703L169.57,85.923L171.891,82.849L180.741,83.796L180.439,87.449L188.458,90.136L193.798,88.569L204.836,93.482L214.913,94.946L218.951,96.948L225.932,94.45L233.876,99.041ZM602.673,512.52L603.126,515.54L602.73,517.679L601.447,518.606L602.787,520.262L602.692,521.765L599.202,520.831L596.73,521.214L593.541,520.813L591.088,521.84L588.276,520.121L588.729,518.344L593.56,519.111L597.522,519.551L599.409,518.325L597.013,515.925L597.05,513.801L593.748,512.935L594.918,511.398L598.126,511.643ZM602.692,521.765L602.787,520.262L601.447,518.606L602.73,517.679L603.126,515.54L602.673,512.52L603.315,511.568L607.41,511.596L610.523,513.029L611.9,512.887L612.844,514.854L615.712,514.751L615.542,516.404L617.882,516.601L620.448,518.634L618.505,520.878L616.014,519.682L613.618,519.916L611.882,519.654L610.938,520.654L608.938,521L608.127,519.654L606.391,520.448L604.296,524.225L602.956,523.35ZM564.577,472.115L567.03,471.648L570.502,471.827L570.653,473.346L564.935,474.288ZM570.803,470.652L574.955,473.286L574.049,477.44L573.087,476.7L573.162,473.644L570.822,471.319ZM568.709,481.334L570.294,481.56L572.124,486.356L572.143,489.688L570.86,489.969L569.539,486.668L567.577,485.002ZM364.62,437.441L370.583,436.957L377.244,436.282L376.753,437.504L384.659,440.516L396.622,444.853L407.038,444.811L411.208,444.811L411.208,442.271L420.284,442.271L422.209,444.458L424.888,446.388L428.002,449.075L429.738,452.252L431.04,455.577L433.757,457.389L438.097,459.187L441.399,454.433L445.682,454.321L449.381,456.728L452.003,460.827L453.815,464.317L456.909,467.698L458.06,471.827L459.532,474.575L463.627,476.394L467.344,477.677L469.382,477.5L467.363,482.588L466.438,486.746L466.061,494.404L465.551,497.183L466.457,500.267L468.08,503.016L469.137,507.369L472.608,511.53L473.835,514.704L475.892,517.435L481.458,518.906L483.609,521.214L488.213,519.673L492.213,519.111L496.138,518.119L499.44,517.173L502.761,514.91L504.026,511.662L504.441,506.971L505.346,505.328L508.894,503.854L514.441,502.549L519.083,502.749L522.272,502.273L523.517,503.464L523.348,506.174L520.536,509.499L519.291,512.897L520.253,513.867L519.461,516.263L518.159,520.579L516.819,519.158L515.724,519.252L514.724,519.327L512.856,522.66L511.894,522.007L511.271,522.259L511.309,523.07L506.46,523.005L501.573,523.014L501.554,526.113L499.195,526.122L501.139,527.959L503.082,529.22L503.667,530.405L504.516,530.738L504.384,532.595L497.648,532.613L495.138,537.045L495.874,538.065L495.27,539.332L495.138,540.91L489.213,535.066L486.496,533.305L482.232,531.874L479.288,532.272L475.08,534.329L472.439,534.863L468.74,533.425L464.815,532.392L459.91,529.886L455.985,529.118L450.06,526.568L445.663,523.946L444.342,522.474L441.418,522.147L436.059,520.402L433.87,517.876L428.228,514.732L425.605,511.219L424.36,508.496L426.115,507.957L425.568,506.354L426.775,504.901L426.794,502.959L425.039,500.42L424.568,498.171L422.794,495.309L418.19,489.64L412.906,485.148L410.359,481.55L405.868,479.183L404.906,477.756L405.698,474.149L403.019,472.78L399.925,469.925L398.623,465.804L395.811,465.322L392.754,462.191L390.301,459.278L390.075,457.41L387.263,452.857L385.395,448.208L385.49,445.859L381.697,443.428L379.942,443.688L376.942,441.989L376.112,444.489L376.98,447.433L377.489,452.006L379.282,454.494L383.169,458.639L384.037,460.048L384.829,460.473L385.527,462.524L386.452,462.443L387.509,466.275L389.113,467.778L390.226,469.875L393.509,472.86L395.245,478.298L396.811,480.844L398.264,483.556L398.547,486.59L401.076,486.785L403.189,489.388L405.076,491.943L404.963,492.967L402.755,495.058L401.83,495.03L400.434,491.566L397.019,488.301L393.226,485.518L390.547,484.055L390.716,479.822L389.924,476.671L387.433,474.862L383.829,472.244L383.131,472.999L381.81,471.469L378.584,470.044L375.489,466.616L375.866,466.175L378.036,466.506L379.98,464.287L380.169,461.606L376.131,457.328L373.055,455.668L371.13,451.893L369.187,447.898L366.753,443.001ZM573.105,572.332L572.464,573.104L573.672,576.223L572.69,577.799L571.011,577.414L570.332,579.982L568.577,578.461L567.464,575.605L568.747,574.189L567.426,573.83L566.445,572.072L563.841,570.6L561.539,570.941L560.482,572.781L558.369,574.117L557.218,574.297L556.708,575.399L559.199,578.274L557.784,578.954L557.029,579.732L554.576,580L553.67,576.841L552.991,577.745L551.255,577.432L550.198,575.301L548.047,574.951L546.689,574.333L544.443,574.341L544.292,575.489L543.689,574.691L543.953,573.642L544.387,572.566L544.198,571.605L544.972,570.977L543.877,570.186L543.858,568.047L545.877,567.57L547.764,569.477L547.651,570.609L549.745,570.842L550.236,570.411L551.689,571.713L554.255,571.336L556.501,569.989L559.671,568.919L561.463,567.336L564.35,567.642L564.162,568.164L567.086,568.353L569.426,569.27L571.124,570.86ZM545.877,567.57L543.858,568.047L543.877,570.186L544.972,570.977L544.198,571.605L544.387,572.566L543.953,573.642L543.689,574.691L540.839,573.517L539.783,572.404L540.386,571.48L540.179,570.312L538.726,569.036L536.669,567.993L534.877,567.309L534.518,565.752L533.141,564.806L533.48,566.355L532.442,567.624L531.235,566.148L529.556,565.626L528.838,564.545L528.876,562.931L529.556,561.243L528.084,560.494L529.291,559.463L530.084,558.776L533.537,560.186L534.726,559.49L536.405,559.942L537.273,561.036L538.82,561.397L540.066,560.259L541.386,563.156L543.424,565.302ZM540.066,560.259L538.82,561.397L537.273,561.036L536.405,559.942L534.726,559.49L533.537,560.186L530.084,558.776L529.291,559.463L527.48,557.781L525.027,555.626L523.876,553.812L521.668,552.132L519.027,549.704L519.611,548.876L520.479,549.677L520.876,549.304L522.498,549.076L523.159,547.846L523.933,547.801L523.819,545.155L525.046,545.027L526.14,545.063L527.272,543.619L528.82,544.716L529.367,544.04L530.329,543.4L532.159,541.908L532.235,540.8L532.744,540.845L533.424,539.552L533.971,539.396L534.858,540.222L535.914,540.47L537.065,539.773L538.386,539.773L540.217,539.066L540.934,538.322L542.726,538.433L542.273,538.956L542.009,540.167L542.556,542.146L541.349,543.994L540.783,546.159L540.613,548.539L540.896,549.923L541.028,552.341L540.217,552.868L539.726,555.163L540.084,556.577L539.028,557.944L539.254,559.382ZM542.726,538.433L540.934,538.322L540.217,539.066L538.386,539.773L537.065,539.773L535.914,540.47L534.858,540.222L533.971,539.396L533.424,539.552L532.744,540.845L532.235,540.8L532.159,541.908L530.329,543.4L529.367,544.04L528.82,544.716L527.272,543.619L526.14,545.063L525.046,545.027L523.819,545.155L523.933,547.801L523.159,547.846L522.498,549.076L520.876,549.304L519.97,547.618L518.385,547.153L518.743,544.99L518.026,544.406L516.951,544.022L514.649,544.661L514.46,543.939L512.875,543.071L511.743,541.991L510.196,541.533L511.29,540.158L510.875,539.094L511.252,538.056L513.724,536.53L516.121,534.458L516.668,534.67L517.819,533.711L519.31,533.637L519.8,534.08L520.612,533.813L523.046,534.301L525.461,534.163L527.159,533.554L527.763,532.946L529.442,533.232L530.688,533.601L532.065,533.471L533.103,533.001L535.499,533.757L536.33,533.877L537.933,534.891L539.443,536.107L541.349,536.944ZM510.196,541.533L511.743,541.991L512.875,543.071L514.46,543.939L514.649,544.661L516.951,544.022L518.026,544.406L518.743,544.99L518.385,547.153L517.8,548.42L514.762,548.338L512.875,547.819L510.705,546.752L507.799,546.414L506.309,545.255L506.479,544.47L508.271,543.107L509.252,542.503L508.969,541.872ZM495.138,540.91L495.27,539.332L495.874,538.065L495.138,537.045L497.648,532.613L504.384,532.595L504.516,530.738L503.667,530.405L503.082,529.22L501.139,527.959L499.195,526.122L501.554,526.113L501.573,523.014L506.46,523.005L511.309,523.07L511.271,527.421L510.856,533.591L512.422,533.591L514.121,534.578L514.573,533.767L516.121,534.458L513.724,536.53L511.252,538.056L510.875,539.094L511.29,540.158L510.196,541.533L508.969,541.872L509.252,542.503L508.271,543.107L506.479,544.47L506.309,545.255L503.629,544.314L500.346,544.214L497.95,543.144ZM511.309,523.07L511.271,522.259L511.894,522.007L512.856,522.66L514.724,519.327L515.724,519.252L515.743,520.065L516.743,520.093L516.649,521.588L515.8,523.974L516.253,524.82L515.706,526.79L516.045,527.31L515.441,530.081L514.404,531.523L513.46,531.699L512.422,533.591L510.856,533.591L511.271,527.421ZM631.128,519.168L633.808,519.654L634.751,520.757L633.411,522.147L629.468,522.11L626.392,522.306L626.09,519.944L626.845,519.14ZM571.973,519.308L575.502,519.804L578.276,521.13L579.144,522.632L575.464,522.735L573.879,523.657L570.936,522.772L567.935,520.766L568.577,519.504L570.766,519.121ZM547.33,492.948L551.859,493.353L555.991,493.421L560.916,495.357L562.992,497.432L567.898,496.799L569.747,498.123L574.181,501.624L577.445,504.168L579.181,504.092L582.295,505.233L581.917,506.819L585.786,507.047L589.748,509.339L589.125,510.643L585.635,511.351L582.106,511.624L578.502,511.19L570.992,511.728L574.502,508.619L572.37,507.16L568.992,506.791L567.181,505.167L565.935,501.967L562.973,502.187L558.086,500.669L556.52,499.483L549.689,498.611L547.859,497.509L549.821,496.088L544.67,495.799L540.915,498.746L538.745,498.822L537.99,500.2L535.386,500.822L533.16,500.286L535.914,498.535L537.047,496.491L539.424,495.232L542.103,494.115L546.066,493.575ZM655.243,561.216L658.262,560.521L659.356,560.71L659.149,564.68L654.771,565.266L653.828,564.788L655.356,563.319Z" fill="#000000"/>
</svg>