<svg xmlns="http://www.w3.org/2000/svg" viewBox="0 0 800 600">
  <path d="M760.984,439.984L756.577,448.243L750.784,458.8L741.801,465.017L739.786,460.929L734.916,458.695L741.633,446.01L737.813,437.589L725.262,431.534L725.597,426.074L734.035,420.845L736.008,409.384L735.462,399.855L730.719,390.063L731.054,387.506L725.471,381.529L716.32,368.822L711.409,358.765L715.775,357.664L722.113,365.54L731.18,369.232L734.455,382.018L742.934,397.325L743.144,387.383L748.433,391.344L750.154,402.417L759.557,407.207L767.449,408.408L774.081,402.765L780,404.485L777.188,417.634L773.619,426.38L764.72,426.074L761.614,430.639L762.705,437.151ZM676.82,494.604L686.81,486.199L693.82,477.972L698.984,466.234L703.433,462.299L705.154,453.638L713.34,446.529L715.901,453.064L718.545,459.456L726.857,453.194L730.215,459.719L730.215,466.287L725.891,473.564L718.251,485.227L712.291,491.668L716.614,499.409L707.631,499.601L697.64,505.725L694.492,516.446L687.902,533.228L678.709,540.746L672.916,545.591L662.17,545.218L654.614,539.66L641.936,538.461L640.006,532.292L646.26,519.963L660.91,503.798L668.424,500.751ZM420.548,451.367L427.516,452.385L428.356,470.875L424.368,476.286L423.151,489.092L419.079,484.715L410.977,495.885L408.584,495.013L401.406,494.495L394.228,480.841L392.633,470.423L385.917,456.832L386.21,449.752L393.808,451.107L405.1,456.438L411.439,454.318ZM169.355,326.455L157.014,333.544L146.898,336.762L144.673,344.052L140.349,349.744L130.442,350.101L123.138,351.338L112.812,348.794L104.458,350.315L96.441,350.957L89.514,358.478L86.114,357.855L80.238,361.859L74.655,366.36L66.133,365.805L58.325,365.805L45.942,356.754L39.687,354.055L39.939,346.017L45.732,344.099L47.705,340.932L47.285,335.939L48.713,326.316L47.411,318.178L41.241,304.394L39.352,296.69L39.855,289.052L35.196,280.353L34.902,276.439L29.739,271.171L28.27,260.848L21.637,250.509L20,244.96L25.121,250.576L21.217,238.534L26.968,242.281L30.452,247.314L30.242,240.658L24.45,230.5L23.358,226.455L20.63,222.615L21.931,215.243L24.282,212.096L25.877,205.757L24.659,198.351L29.445,189.297L30.326,198.885L35.28,190.232L44.725,186.028L50.434,180.69L59.333,176.107L64.622,175.136L67.854,176.676L77.047,172.039L84.099,170.65L85.862,167.938L88.969,166.804L95.391,167.098L107.649,163.468L113.987,157.984L116.968,151.39L123.81,145.148L124.356,140.251L124.65,133.607L132.793,123.256L137.705,133.772L142.7,131.335L138.544,125.582L142.196,119.679L147.317,122.31L148.745,113.094L155.125,107.139L157.938,102.381L163.814,100.322L163.982,96.96L169.104,98.365L169.313,95.352L174.435,93.623L180.06,91.997L188.665,97.51L195.171,104.647L202.434,104.729L209.864,105.872L207.387,99.241L212.97,89.62L218.259,86.474L216.412,83.494L221.491,76.652L228.543,72.45L234.504,73.864L244.327,71.622L244.117,65.532L235.554,61.606L241.766,59.875L249.49,62.833L255.703,67.709L265.526,70.754L268.842,69.544L276.062,73.217L282.862,69.806L287.27,70.835L289.998,68.556L295.329,74.449L292.223,80.84L287.816,85.683L283.786,86.089L285.129,90.879L281.729,96.879L277.573,102.81L278.413,106.199L287.69,112.889L296.673,116.764L302.676,120.953L311.113,128.158L314.387,128.137L320.474,131.252L322.279,135.033L333.403,139.173L341.085,134.992L343.394,128.447L345.744,123.051L347.171,116.395L350.74,106.771L349.102,100.933L349.942,97.449L348.599,90.554L350.152,81.529L352.377,79.1L350.572,75.116L353.384,68.798L355.567,62.25L355.861,58.87L360.226,54.409L363.501,60.217L364.298,67.688L367.237,69.12L367.698,74.146L371.938,80.213L372.82,87.001L372.4,91.346L376.598,100.791L384.112,96.248L387.973,101.341L393.556,106.056L392.339,111.415L394.858,121.796L396.621,127.869L399.559,129.354L402.708,139.795L401.574,146.166L405.352,154.496L417.987,160.955L426.257,166.846L434.065,172.25L432.511,175.263L439.186,183.103L443.719,196.686L448.379,193.914L453.122,199.376L455.977,197.433L457.992,210.848L466.261,218.676L471.676,223.568L480.785,233.966L484.06,244.367L484.353,251.79L483.556,259.871L489.097,271.059L488.425,282.81L486.41,289.007L483.262,301.005L483.514,308.781L481.205,318.549L476.042,331.083L467.437,337.891L463.155,348.722L459.251,355.679L455.809,367.928L451.317,375.048L448.379,385.837L446.868,395.864L447.455,400.501L440.781,405.608L427.726,406.157L416.938,412.219L411.607,417.987L404.555,424.421L394.9,417.785L387.764,415.162L389.569,407.432L383.188,410.237L372.988,421.022L362.913,416.977L356.281,414.608L349.606,413.551L338.314,409.259L330.8,400.178L328.618,389.079L325.931,381.773L320.18,375.923L308.972,374.198L312.792,367.252L309.98,356.731L304.271,366.528L293.902,369.16L300.031,361.283L301.794,353.125L306.286,346.254L305.362,335.915L295.875,347.82L288.571,352.624L284.122,363.879L275.012,358.047L275.39,350.577L268.086,340.413L261.915,335.21L264.098,331.996L249.154,323.636L240.969,323.24L229.761,316.58L208.856,317.877L193.786,322.775L180.479,327.366Z" fill="#000000"/>
</svg>