<svg xmlns="http://www.w3.org/2000/svg" viewBox="0 0 800 600">
  <path d="M325.825,544.325L328.505,549.72L332.019,558.567L341.145,565.772L350.98,568.786L347.82,574.913L341.145,575.517L337.581,571.199L333.334,570.868L325.825,570.848ZM403.135,330.813L401.365,337.345L399.494,345.81L399.57,354.101L398.028,355.975L397.497,361.425L397.017,365.85L405.941,373.18L404.98,379.146L409.354,382.932L409,387.214L402.25,398.562L391.834,403.373L377.753,405.25L370.042,404.349L371.533,409.742L370.092,416.58L371.382,421.233L367.16,424.502L359.98,425.795L353.23,422.394L350.5,424.833L351.485,434.157L356.238,437.014L360.081,434.029L362.154,438.963L355.707,441.924L350.07,447.906L349.033,457.738L347.365,463.028L340.741,463.062L335.23,468.165L333.207,475.735L340.109,483.235L346.834,485.314L344.407,494.69L336.115,500.653L331.564,513.263L325.143,517.596L322.286,522.753L324.536,534.414L329.213,541.026L326.255,540.442L319.758,538.638L302.769,537.11L299.861,530.51L300.013,522.134L295.336,522.847L292.859,518.843L292.252,507.303L297.637,502.583L299.861,495.848L299.027,490.538L302.769,481.702L305.322,468.267L304.564,462.406L307.648,460.528L306.89,456.805L303.628,454.845L305.954,450.748L302.769,447.071L301.125,436.017L303.957,434.093L302.769,422.677L304.412,413.245L306.308,405.143L310.505,401.867L308.381,393.171L308.356,385.077L313.665,379.381L313.488,372.161L317.508,363.835L317.533,356.06L315.713,354.526L312.477,340.194L316.8,331.79L316.117,323.951L318.645,316.659L323.246,309.188L328.202,304.283L326.103,301.197L327.57,298.676L327.342,285.721L334.977,281.926L337.404,273.968L336.544,272.059L342.384,265.199L351.587,267.045L355.707,272.536L358.463,266.429L366.452,266.737L367.59,268.367L380.508,280.821L386.247,281.978L394.817,287.682L402.048,290.711L403.059,294.145L396.157,306.058L403.236,308.197L411.124,309.416L416.686,308.143L423.056,302.1L424.194,295.2L427.683,293.696L431.197,298.2L431.045,304.47L425.129,308.826L420.427,312.061L412.489,319.801ZM325.825,544.325L325.825,570.848L333.334,570.868L337.581,571.199L335.255,576.164L329.238,580L325.775,579.6L321.628,578.592L316.522,574.892L309.165,573.104L300.316,566.304L293.162,559.858L283.479,546.661L289.269,549.107L299.128,556.978L308.457,561.254L312.072,555.794L314.347,547.744L320.819,542.956ZM319.1,233.475L322.539,238.497L323.474,243.84L327.165,246.987L324.94,254.217L328.732,262.654L331.488,273.103L336.544,272.059L337.404,273.968L334.977,281.926L327.342,285.721L327.57,298.676L326.103,301.197L328.202,304.283L323.246,309.188L318.645,316.659L316.117,323.951L316.8,331.79L312.477,340.194L315.713,354.526L317.533,356.06L317.508,363.835L313.488,372.161L313.665,379.381L308.356,385.077L308.381,393.171L310.505,401.867L306.308,405.143L304.412,413.245L302.769,422.677L303.957,434.093L301.125,436.017L302.769,447.071L305.954,450.748L303.628,454.845L306.89,456.805L307.648,460.528L304.564,462.406L305.322,468.267L302.769,481.702L299.027,490.538L299.861,495.848L297.637,502.583L292.252,507.303L292.859,518.843L295.336,522.847L300.013,522.134L299.861,530.51L302.769,537.11L319.758,538.638L326.255,540.442L320.01,540.364L316.623,543.19L310.303,547.37L309.165,558.366L306.182,558.648L298.269,554.793L290.229,546.622L281.482,540.015L279.283,532.803L281.28,526.22L277.74,518.843L276.83,500.401L279.839,490.273L287.246,482.259L276.577,479.273L283.277,470.308L285.653,453.818L293.465,457.271L297.131,437.239L292.429,434.718L290.229,446.662L285.805,445.307L288.005,431.681L290.406,414.468L293.617,408.236L291.594,399.455L291.038,389.447L293.996,389.164L298.294,375.09L303.148,361.425L306.131,348.916L304.513,336.555L306.611,329.837L305.752,319.869L309.873,310.14L311.137,294.936L313.387,278.886L315.586,261.888L315.081,249.611L313.614,239.148L317.23,237.259ZM378.031,535.298L386.449,528.532L392.416,531.35L396.638,526.844L402.25,531.904L400.152,535.876L390.671,539.297L387.511,535.298L381.545,540.442ZM403.135,330.813L407.685,329.947L414.739,336.251L417.343,336.001L424.573,341.266L430.085,345.838L434.13,351.497L431.045,355.463L432.992,360.223L429.933,365.562L422.02,370.303L416.837,368.593L413.02,369.505L406.548,365.85L401.77,366.124L397.497,361.425L398.028,355.975L399.57,354.101L399.494,345.81L401.365,337.345ZM432.992,360.223L431.045,355.463L434.13,351.497L430.085,345.838L424.573,341.266L417.343,336.001L414.739,336.251L407.685,329.947L403.135,330.813L412.489,319.801L420.427,312.061L425.129,308.826L431.045,304.47L431.197,298.2L427.683,293.696L424.194,295.2L425.559,290.711L426.52,286.126L426.52,281.887L423.992,280.496L421.363,281.744L418.759,281.406L417.924,278.445L417.267,271.453L415.952,269.176L411.225,267.122L408.343,268.611L400.935,267.16L401.39,256.921L399.317,252.747L401.517,251.203L400.834,246.949L402.781,243.689L404.02,237.859L402.351,233.276L398.534,231.208L397.775,228.311L398.812,224.069L385.337,223.772L382.632,215.279L384.68,215.155L384.604,212.02L383.213,209.908L382.91,205.717L378.84,203.577L374.415,203.65L371.508,201.549L366.755,200.121L364,197.44L356.137,196.246L348.502,189.818L349.084,185.019L348.224,182.273L348.957,176.924L339.78,178.131L336.064,180.811L329.921,183.7L328.353,185.867L324.738,186.024L319.53,185.419L315.561,186.654L312.376,185.83L312.831,174.983L307.067,179.181L300.873,179L298.218,175.2L293.566,174.79L295.058,171.732L291.139,167.415L288.232,161.029L290.078,159.735L290.078,156.74L294.325,154.693L293.617,150.878L295.412,148.417L295.918,145.133L303.957,140.337L309.696,138.978L310.631,137.917L316.977,138.251L320.137,118.968L320.289,115.925L319.201,111.895L316.092,109.339L316.117,104.228L320.061,103.075L321.477,103.801L321.704,101.114L317.609,100.389L317.508,95.99L331.185,96.144L333.511,93.73L335.457,95.954L336.848,100.104L338.162,99.236L342.03,102.945L347.491,102.493L348.856,100.341L354.064,98.701L356.971,97.547L357.78,94.575L362.786,92.577L362.407,91.101L356.466,90.495L355.48,86.068L355.783,81.352L352.623,79.53L353.938,78.874L359.146,79.78L364.733,81.543L366.755,79.875L371.812,78.779L379.649,76.144L382.227,73.461L381.292,71.468L384.958,71.158L386.576,72.781L385.666,75.87L388.093,76.943L389.685,80.209L387.739,82.698L386.626,88.674L388.421,92.232L388.927,95.49L393.25,98.784L396.713,99.129L397.472,97.75L399.697,97.452L402.882,96.216L405.157,94.349L409.051,94.943L410.744,94.694L414.562,95.264L415.194,93.837L414.031,92.434L414.739,90.4L417.57,91.03L420.882,90.304L424.902,91.791L427.961,93.243L430.135,91.339L431.703,91.637L432.663,93.611L436.026,93.112L438.731,90.447L440.88,85.258L445.026,78.826L447.427,78.493L449.172,82.389L453.09,94.682L456.857,95.835L457.034,100.686L451.776,106.475L453.95,108.591L466.363,109.684L466.616,116.733L471.95,112.121L480.773,114.641L492.453,118.933L495.866,123.047L494.728,126.938L502.894,124.772L516.546,128.497L527.038,128.223L537.428,134.045L546.403,141.935L551.813,143.963L557.805,144.25L560.358,146.47L562.735,155.459L563.898,159.747L561.117,171.479L557.527,176.116L547.642,186.048L543.167,194.154L537.959,200.402L536.215,200.536L534.243,205.852L534.748,219.458L532.802,230.735L532.043,235.597L529.819,238.51L528.58,248.437L521.451,258.205L520.262,265.993L514.574,269.279L512.931,273.852L505.296,273.826L494.248,276.76L489.318,280.171L481.456,282.421L473.189,288.56L467.248,296.269L466.211,302.113L467.374,306.458L466.085,314.472L464.492,318.378L459.562,322.792L451.776,337.082L445.607,343.598L440.829,347.481L437.618,355.421ZM319.53,185.419L324.738,186.024L328.353,185.867L329.921,183.7L336.064,180.811L339.78,178.131L348.957,176.924L348.224,182.273L349.084,185.019L348.502,189.818L356.137,196.246L364,197.44L366.755,200.121L371.508,201.549L374.415,203.65L378.84,203.577L382.91,205.717L383.213,209.908L384.604,212.02L384.68,215.155L382.632,215.279L385.337,223.772L398.812,224.069L397.775,228.311L398.534,231.208L402.351,233.276L404.02,237.859L402.781,243.689L400.834,246.949L401.517,251.203L399.317,252.747L399.216,250.444L392.668,246.634L386.146,246.52L373.91,248.689L370.547,255.27L370.371,259.312L367.59,268.367L366.452,266.737L358.463,266.429L355.707,272.536L351.587,267.045L342.384,265.199L336.544,272.059L331.488,273.103L328.732,262.654L324.94,254.217L327.165,246.987L323.474,243.84L322.539,238.497L319.1,233.475L323.525,225.544L320.516,219.408L322.109,216.954L320.87,214.257L323.6,210.632L323.752,204.47L324.081,199.402L325.598,196.965ZM316.977,138.251L310.631,137.917L309.696,138.978L303.957,140.337L295.918,145.133L295.412,148.417L293.617,150.878L294.325,154.693L290.078,156.74L290.078,159.735L288.232,161.029L291.139,167.415L295.058,171.732L293.566,174.79L298.218,175.2L300.873,179L307.067,179.181L312.831,174.983L312.376,185.83L315.561,186.654L319.53,185.419L325.598,196.965L324.081,199.402L323.752,204.47L323.6,210.632L320.87,214.257L322.109,216.954L320.516,219.408L323.525,225.544L319.1,233.475L317.23,237.259L313.614,239.148L306.561,234.897L305.954,231.88L292.024,224.515L279.434,216.535L274.024,212.044L271.117,206.06L272.28,203.98L266.313,194.531L259.386,181.318L252.763,167.138L249.881,163.908L247.681,158.692L242.22,154.071L237.215,151.213L239.49,148.058L236.102,141.339L238.277,136.403L243.864,131.961L244.698,134.89L242.701,136.57L242.903,139.145L245.785,138.584L248.642,139.347L251.574,142.901L255.544,140.003L256.883,135.26L261.181,129.139L269.625,126.366L277.285,119.004L279.46,114.439L278.499,109.102L280.37,108.436L285.021,111.764L287.271,115.081L290.533,116.888L294.653,124.261L299.887,125.141L303.755,123.273L306.308,124.499L310.505,123.892L315.89,127.176L311.364,134.342L313.463,134.509ZM338.162,99.236L336.848,100.104L335.457,95.954L333.511,93.73L331.185,96.144L317.508,95.99L317.609,100.389L321.704,101.114L321.477,103.801L320.061,103.075L316.117,104.228L316.092,109.339L319.201,111.895L320.289,115.925L320.137,118.968L316.977,138.251L313.463,134.509L311.364,134.342L315.89,127.176L310.505,123.892L306.308,124.499L303.755,123.273L299.887,125.141L294.653,124.261L290.533,116.888L287.271,115.081L285.021,111.764L280.37,108.436L278.499,109.102L275.49,107.438L272.027,105.12L270.03,106.237L264.089,105.263L262.369,102.231L261.055,102.35L254.027,98.332L253.091,96.156L255.695,95.633L255.392,92.113L257.035,89.567L260.524,89.091L263.482,84.675L266.162,80.983L263.583,79.303L264.898,75.214L263.33,68.77L264.822,66.919L263.709,60.94L260.878,57.168L261.788,53.727L264.038,54.243L265.353,52.132L263.735,47.952L264.594,46.919L268.209,47.135L273.493,42.177L276.375,41.418L276.451,39.067L277.74,33.029L281.76,29.713L286.184,29.58L286.74,28.089L292.252,28.683L297.763,25.069L300.519,23.466L303.906,20L306.384,20.438L308.229,22.335L306.864,24.753L302.364,25.955L300.569,29.531L297.864,31.577L295.816,34.238L294.957,39.333L293.01,43.49L296.651,43.971L297.536,47.231L299.103,48.794L299.634,51.652L298.8,54.279L299.052,55.754L300.797,56.341L302.465,58.821L311.491,58.138L315.561,59.036L320.516,65.114L323.348,64.361L328.404,64.743L332.398,63.93L334.901,65.15L333.637,68.949L332.07,71.325L331.513,76.371L332.929,81.055L334.926,83.139L335.154,84.723L331.615,88.222L334.143,89.769L336.013,92.232ZM381.292,71.468L382.227,73.461L379.649,76.144L371.812,78.779L366.755,79.875L364.733,81.543L359.146,79.78L353.938,78.874L352.623,79.53L355.783,81.352L355.48,86.068L356.466,90.495L362.407,91.101L362.786,92.577L357.78,94.575L356.971,97.547L354.064,98.701L348.856,100.341L347.491,102.493L342.03,102.945L338.162,99.236L336.013,92.232L334.143,89.769L331.615,88.222L335.154,84.723L334.926,83.139L332.929,81.055L331.513,76.371L332.07,71.325L333.637,68.949L334.901,65.15L332.398,63.93L328.404,64.743L323.348,64.361L320.516,65.114L315.561,59.036L311.491,58.138L302.465,58.821L300.797,56.341L299.052,55.754L298.8,54.279L299.634,51.652L299.103,48.794L297.536,47.231L296.651,43.971L293.01,43.49L294.957,39.333L295.816,34.238L297.864,31.577L300.569,29.531L302.364,25.955L306.864,24.753L306.662,26.44L302.541,27.277L304.842,30.524L304.766,34.262L301.656,38.416L304.311,44.055L307.345,43.598L308.912,38.452L306.738,35.941L306.384,30.536L315.131,27.616L314.171,24.243L316.623,21.983L319.151,27.022L324.081,27.131L328.631,31.129L328.909,33.488L335.204,33.561L342.713,32.823L346.733,36.014L352.118,36.907L356.036,34.673L356.137,32.872L364.834,32.448L373.253,32.34L367.286,34.455L369.688,37.825L375.3,38.356L380.609,41.864L381.747,47.556L385.387,47.399L388.143,49.07L382.581,53.236L381.975,55.814L384.376,58.45L382.632,59.767L378.309,60.904L378.435,64.169L376.539,66.118ZM410.744,94.694L409.051,94.943L405.157,94.349L402.882,96.216L399.697,97.452L397.472,97.75L396.713,99.129L393.25,98.784L388.927,95.49L388.421,92.232L386.626,88.674L387.739,82.698L389.685,80.209L388.093,76.943L385.666,75.87L386.576,72.781L384.958,71.158L381.292,71.468L376.539,66.118L378.435,64.169L378.309,60.904L382.632,59.767L384.376,58.45L381.975,55.814L382.581,53.236L388.143,49.07L392.77,51.676L397.093,56.293L397.295,59.934L399.949,60.102L403.716,63.56L406.472,66.01L405.36,72.363L401.087,74.2L401.466,75.858L400.177,79.494L403.287,84.603L405.537,84.615L406.472,88.579ZM424.902,91.791L420.882,90.304L417.57,91.03L414.739,90.4L414.031,92.434L415.194,93.837L414.562,95.264L410.744,94.694L406.472,88.579L405.537,84.615L403.287,84.603L400.177,79.494L401.466,75.858L401.087,74.2L405.36,72.363L406.472,66.01L414.891,67.432L415.649,66.154L421.337,65.64L428.871,67.54L425.231,73.604L425.787,78.421L428.542,82.603L427.304,85.627L426.697,88.841ZM278.499,109.102L279.46,114.439L277.285,119.004L269.625,126.366L261.181,129.139L256.883,135.26L255.544,140.003L251.574,142.901L248.642,139.347L245.785,138.584L242.903,139.145L242.701,136.57L244.698,134.89L243.864,131.961L247.605,126.7L246.088,123.63L243.409,126.902L239.212,123.821L240.628,121.834L239.439,115.461L241.892,114.403L243.206,110.029L245.861,105.5L245.355,102.636L249.223,101.138L254.027,98.332L261.055,102.35L262.369,102.231L264.089,105.263L270.03,106.237L272.027,105.12L275.49,107.438ZM399.317,252.747L401.39,256.921L400.935,267.16L408.343,268.611L411.225,267.122L415.952,269.176L417.267,271.453L417.924,278.445L418.759,281.406L421.363,281.744L423.992,280.496L426.52,281.887L426.52,286.126L425.559,290.711L424.194,295.2L423.056,302.1L416.686,308.143L411.124,309.416L403.236,308.197L396.157,306.058L403.059,294.145L402.048,290.711L394.817,287.682L386.247,281.978L380.508,280.821L367.59,268.367L370.371,259.312L370.547,255.27L373.91,248.689L386.146,246.52L392.668,246.634L399.216,250.444Z" fill="#000000"/>
</svg>